%TF.GenerationSoftware,KiCad,Pcbnew,9.0.6*%
%TF.CreationDate,2026-01-19T06:48:40-03:00*%
%TF.ProjectId,control_dron_v5,636f6e74-726f-46c5-9f64-726f6e5f7635,rev?*%
%TF.SameCoordinates,Original*%
%TF.FileFunction,Soldermask,Bot*%
%TF.FilePolarity,Negative*%
%FSLAX46Y46*%
G04 Gerber Fmt 4.6, Leading zero omitted, Abs format (unit mm)*
G04 Created by KiCad (PCBNEW 9.0.6) date 2026-01-19 06:48:40*
%MOMM*%
%LPD*%
G01*
G04 APERTURE LIST*
%ADD10R,3.000000X3.000000*%
%ADD11C,3.000000*%
%ADD12R,1.700000X1.700000*%
%ADD13C,1.700000*%
%ADD14C,5.700000*%
G04 APERTURE END LIST*
D10*
%TO.C,J6*%
X167840000Y-44000000D03*
D11*
X172920000Y-44000000D03*
%TD*%
D12*
%TO.C,J2*%
X167165256Y-52615340D03*
D13*
X167165256Y-55155340D03*
X167165256Y-57695340D03*
X167165256Y-60235340D03*
X167165256Y-62775340D03*
X167165256Y-65315340D03*
X167165256Y-67855340D03*
X167165256Y-70395340D03*
X167165256Y-72935340D03*
X167165256Y-75475340D03*
X167165256Y-78015340D03*
X167165256Y-80555340D03*
X167165256Y-83095340D03*
X167165256Y-85635340D03*
%TD*%
D12*
%TO.C,J3*%
X146235000Y-53990000D03*
D13*
X143695000Y-53990000D03*
X141155000Y-53990000D03*
X138615000Y-53990000D03*
X136075000Y-53990000D03*
X133535000Y-53990000D03*
%TD*%
D14*
%TO.C,H1*%
X140125000Y-107925000D03*
%TD*%
%TO.C,H3*%
X108006589Y-75775000D03*
%TD*%
D12*
%TO.C,J4*%
X146185000Y-97415000D03*
D13*
X143645000Y-97415000D03*
X141105000Y-97415000D03*
X138565000Y-97415000D03*
X136025000Y-97415000D03*
X133485000Y-97415000D03*
%TD*%
D14*
%TO.C,H4*%
X140125000Y-43625000D03*
%TD*%
%TO.C,H2*%
X172243410Y-75775000D03*
%TD*%
D12*
%TO.C,J16*%
X120625000Y-51945000D03*
D13*
X120625000Y-54485000D03*
X120625000Y-57025000D03*
%TD*%
D12*
%TO.C,J7*%
X174300000Y-66830000D03*
D13*
X174300000Y-69370000D03*
%TD*%
D12*
%TO.C,J5*%
X127650000Y-56995000D03*
D13*
X127650000Y-54455000D03*
X127650000Y-51915000D03*
%TD*%
D12*
%TO.C,J1*%
X151165256Y-52615340D03*
D13*
X151165256Y-55155340D03*
X151165256Y-57695340D03*
X151165256Y-60235340D03*
X151165256Y-62775340D03*
X151165256Y-65315340D03*
X151165256Y-67855340D03*
X151165256Y-70395340D03*
X151165256Y-72935340D03*
X151165256Y-75475340D03*
X151165256Y-78015340D03*
X151165256Y-80555340D03*
X151165256Y-83095340D03*
X151165256Y-85635340D03*
%TD*%
M02*
