M48
; DRILL file {KiCad 9.0.6} date 2026-01-19T06:48:43-0300
; FORMAT={-:-/ absolute / metric / decimal}
; #@! TF.CreationDate,2026-01-19T06:48:43-03:00
; #@! TF.GenerationSoftware,Kicad,Pcbnew,9.0.6
; #@! TF.FileFunction,Plated,1,2,PTH
FMAT,2
METRIC
; #@! TA.AperFunction,Plated,PTH,ViaDrill
T1C0.400
; #@! TA.AperFunction,Plated,PTH,ViaDrill
T2C0.700
; #@! TA.AperFunction,Plated,PTH,ComponentDrill
T3C1.000
; #@! TA.AperFunction,Plated,PTH,ComponentDrill
T4C1.520
; #@! TA.AperFunction,Plated,PTH,ComponentDrill
T5C3.200
%
G90
G05
T1
X124.98Y-60.79
X134.64Y-79.59
X137.75Y-82.31
X137.82Y-89.3
X139.45Y-73.78
X139.92Y-69.3
X140.55Y-77.96
X140.986Y-72.934
X142.89Y-90.47
X145.744Y-78.193
X146.27Y-72.88
X146.92Y-74.28
X158.76Y-78.52
X159.52Y-84.43
X161.19Y-86.62
X162.48Y-84.54
X164.44Y-86.12
T2
X123.34Y-65.24
X132.85Y-68.47
X174.558Y-60.777
T3
X120.625Y-51.945
X120.625Y-54.485
X120.625Y-57.025
X127.65Y-51.915
X127.65Y-54.455
X127.65Y-56.995
X133.485Y-97.415
X133.535Y-53.99
X136.025Y-97.415
X136.075Y-53.99
X138.565Y-97.415
X138.615Y-53.99
X141.105Y-97.415
X141.155Y-53.99
X143.645Y-97.415
X143.695Y-53.99
X146.185Y-97.415
X146.235Y-53.99
X151.165Y-52.615
X151.165Y-55.155
X151.165Y-57.695
X151.165Y-60.235
X151.165Y-62.775
X151.165Y-65.315
X151.165Y-67.855
X151.165Y-70.395
X151.165Y-72.935
X151.165Y-75.475
X151.165Y-78.015
X151.165Y-80.555
X151.165Y-83.095
X151.165Y-85.635
X167.165Y-52.615
X167.165Y-55.155
X167.165Y-57.695
X167.165Y-60.235
X167.165Y-62.775
X167.165Y-65.315
X167.165Y-67.855
X167.165Y-70.395
X167.165Y-72.935
X167.165Y-75.475
X167.165Y-78.015
X167.165Y-80.555
X167.165Y-83.095
X167.165Y-85.635
X174.3Y-66.83
X174.3Y-69.37
T4
X167.84Y-44.0
X172.92Y-44.0
T5
X108.007Y-75.775
X140.125Y-43.625
X140.125Y-107.925
X172.243Y-75.775
M30
