%TF.GenerationSoftware,KiCad,Pcbnew,9.0.6*%
%TF.CreationDate,2026-01-19T06:48:43-03:00*%
%TF.ProjectId,control_dron_v5,636f6e74-726f-46c5-9f64-726f6e5f7635,rev?*%
%TF.SameCoordinates,Original*%
%TF.FileFunction,Drillmap*%
%TF.FilePolarity,Positive*%
%FSLAX45Y45*%
G04 Gerber Fmt 4.5, Leading zero omitted, Abs format (unit mm)*
G04 Created by KiCad (PCBNEW 9.0.6) date 2026-01-19 06:48:43*
%MOMM*%
%LPD*%
G01*
G04 APERTURE LIST*
%ADD10C,0.100000*%
%ADD11C,0.200000*%
%ADD12C,0.152000*%
%ADD13C,0.320000*%
G04 APERTURE END LIST*
D10*
X17942000Y-4056500D02*
X17942000Y-11023000D01*
X17942000Y-11023000D02*
G75*
G02*
X17642000Y-11323000I-300000J0D01*
G01*
X10591500Y-11323000D02*
G75*
G02*
X10291500Y-11023000I0J300000D01*
G01*
X10291500Y-11023000D02*
X10291500Y-4056500D01*
X17642000Y-11323000D02*
X10591500Y-11323000D01*
X17642000Y-3756500D02*
G75*
G02*
X17942000Y-4056500I0J-300000D01*
G01*
X10291500Y-4056500D02*
G75*
G02*
X10591500Y-3756500I300000J0D01*
G01*
X10591500Y-3756500D02*
X17642000Y-3756500D01*
D11*
D10*
X12478000Y-6059000D02*
X12518000Y-6099000D01*
X12518000Y-6059000D02*
X12478000Y-6099000D01*
X13444000Y-7939000D02*
X13484000Y-7979000D01*
X13484000Y-7939000D02*
X13444000Y-7979000D01*
X13755000Y-8211000D02*
X13795000Y-8251000D01*
X13795000Y-8211000D02*
X13755000Y-8251000D01*
X13762000Y-8910000D02*
X13802000Y-8950000D01*
X13802000Y-8910000D02*
X13762000Y-8950000D01*
X13925000Y-7358000D02*
X13965000Y-7398000D01*
X13965000Y-7358000D02*
X13925000Y-7398000D01*
X13972000Y-6910000D02*
X14012000Y-6950000D01*
X14012000Y-6910000D02*
X13972000Y-6950000D01*
X14035000Y-7776000D02*
X14075000Y-7816000D01*
X14075000Y-7776000D02*
X14035000Y-7816000D01*
X14078552Y-7273448D02*
X14118552Y-7313448D01*
X14118552Y-7273448D02*
X14078552Y-7313448D01*
X14269000Y-9027000D02*
X14309000Y-9067000D01*
X14309000Y-9027000D02*
X14269000Y-9067000D01*
X14554356Y-7799252D02*
X14594356Y-7839252D01*
X14594356Y-7799252D02*
X14554356Y-7839252D01*
X14607000Y-7268000D02*
X14647000Y-7308000D01*
X14647000Y-7268000D02*
X14607000Y-7308000D01*
X14672000Y-7408000D02*
X14712000Y-7448000D01*
X14712000Y-7408000D02*
X14672000Y-7448000D01*
X15856000Y-7832000D02*
X15896000Y-7872000D01*
X15896000Y-7832000D02*
X15856000Y-7872000D01*
X15932000Y-8423000D02*
X15972000Y-8463000D01*
X15972000Y-8423000D02*
X15932000Y-8463000D01*
X16099000Y-8642000D02*
X16139000Y-8682000D01*
X16139000Y-8642000D02*
X16099000Y-8682000D01*
X16228000Y-8434000D02*
X16268000Y-8474000D01*
X16268000Y-8434000D02*
X16228000Y-8474000D01*
X16424000Y-8592000D02*
X16464000Y-8632000D01*
X16464000Y-8592000D02*
X16424000Y-8632000D01*
X12369000Y-6524000D02*
G75*
G02*
X12299000Y-6524000I-35000J0D01*
G01*
X12299000Y-6524000D02*
G75*
G02*
X12369000Y-6524000I35000J0D01*
G01*
X13320000Y-6847000D02*
G75*
G02*
X13250000Y-6847000I-35000J0D01*
G01*
X13250000Y-6847000D02*
G75*
G02*
X13320000Y-6847000I35000J0D01*
G01*
X17490750Y-6077750D02*
G75*
G02*
X17420750Y-6077750I-35000J0D01*
G01*
X17420750Y-6077750D02*
G75*
G02*
X17490750Y-6077750I35000J0D01*
G01*
X12062500Y-5144500D02*
X12062500Y-5244500D01*
X12012500Y-5194500D02*
X12112500Y-5194500D01*
X12062500Y-5398500D02*
X12062500Y-5498500D01*
X12012500Y-5448500D02*
X12112500Y-5448500D01*
X12062500Y-5652500D02*
X12062500Y-5752500D01*
X12012500Y-5702500D02*
X12112500Y-5702500D01*
X12765000Y-5141500D02*
X12765000Y-5241500D01*
X12715000Y-5191500D02*
X12815000Y-5191500D01*
X12765000Y-5395500D02*
X12765000Y-5495500D01*
X12715000Y-5445500D02*
X12815000Y-5445500D01*
X12765000Y-5649500D02*
X12765000Y-5749500D01*
X12715000Y-5699500D02*
X12815000Y-5699500D01*
X13348500Y-9691500D02*
X13348500Y-9791500D01*
X13298500Y-9741500D02*
X13398500Y-9741500D01*
X13353500Y-5349000D02*
X13353500Y-5449000D01*
X13303500Y-5399000D02*
X13403500Y-5399000D01*
X13602500Y-9691500D02*
X13602500Y-9791500D01*
X13552500Y-9741500D02*
X13652500Y-9741500D01*
X13607500Y-5349000D02*
X13607500Y-5449000D01*
X13557500Y-5399000D02*
X13657500Y-5399000D01*
X13856500Y-9691500D02*
X13856500Y-9791500D01*
X13806500Y-9741500D02*
X13906500Y-9741500D01*
X13861500Y-5349000D02*
X13861500Y-5449000D01*
X13811500Y-5399000D02*
X13911500Y-5399000D01*
X14110500Y-9691500D02*
X14110500Y-9791500D01*
X14060500Y-9741500D02*
X14160500Y-9741500D01*
X14115500Y-5349000D02*
X14115500Y-5449000D01*
X14065500Y-5399000D02*
X14165500Y-5399000D01*
X14364500Y-9691500D02*
X14364500Y-9791500D01*
X14314500Y-9741500D02*
X14414500Y-9741500D01*
X14369500Y-5349000D02*
X14369500Y-5449000D01*
X14319500Y-5399000D02*
X14419500Y-5399000D01*
X14618500Y-9691500D02*
X14618500Y-9791500D01*
X14568500Y-9741500D02*
X14668500Y-9741500D01*
X14623500Y-5349000D02*
X14623500Y-5449000D01*
X14573500Y-5399000D02*
X14673500Y-5399000D01*
X15116526Y-5211534D02*
X15116526Y-5311534D01*
X15066526Y-5261534D02*
X15166526Y-5261534D01*
X15116526Y-5465534D02*
X15116526Y-5565534D01*
X15066526Y-5515534D02*
X15166526Y-5515534D01*
X15116526Y-5719534D02*
X15116526Y-5819534D01*
X15066526Y-5769534D02*
X15166526Y-5769534D01*
X15116526Y-5973534D02*
X15116526Y-6073534D01*
X15066526Y-6023534D02*
X15166526Y-6023534D01*
X15116526Y-6227534D02*
X15116526Y-6327534D01*
X15066526Y-6277534D02*
X15166526Y-6277534D01*
X15116526Y-6481534D02*
X15116526Y-6581534D01*
X15066526Y-6531534D02*
X15166526Y-6531534D01*
X15116526Y-6735534D02*
X15116526Y-6835534D01*
X15066526Y-6785534D02*
X15166526Y-6785534D01*
X15116526Y-6989534D02*
X15116526Y-7089534D01*
X15066526Y-7039534D02*
X15166526Y-7039534D01*
X15116526Y-7243534D02*
X15116526Y-7343534D01*
X15066526Y-7293534D02*
X15166526Y-7293534D01*
X15116526Y-7497534D02*
X15116526Y-7597534D01*
X15066526Y-7547534D02*
X15166526Y-7547534D01*
X15116526Y-7751534D02*
X15116526Y-7851534D01*
X15066526Y-7801534D02*
X15166526Y-7801534D01*
X15116526Y-8005534D02*
X15116526Y-8105534D01*
X15066526Y-8055534D02*
X15166526Y-8055534D01*
X15116526Y-8259534D02*
X15116526Y-8359534D01*
X15066526Y-8309534D02*
X15166526Y-8309534D01*
X15116526Y-8513534D02*
X15116526Y-8613534D01*
X15066526Y-8563534D02*
X15166526Y-8563534D01*
X16716526Y-5211534D02*
X16716526Y-5311534D01*
X16666526Y-5261534D02*
X16766526Y-5261534D01*
X16716526Y-5465534D02*
X16716526Y-5565534D01*
X16666526Y-5515534D02*
X16766526Y-5515534D01*
X16716526Y-5719534D02*
X16716526Y-5819534D01*
X16666526Y-5769534D02*
X16766526Y-5769534D01*
X16716526Y-5973534D02*
X16716526Y-6073534D01*
X16666526Y-6023534D02*
X16766526Y-6023534D01*
X16716526Y-6227534D02*
X16716526Y-6327534D01*
X16666526Y-6277534D02*
X16766526Y-6277534D01*
X16716526Y-6481534D02*
X16716526Y-6581534D01*
X16666526Y-6531534D02*
X16766526Y-6531534D01*
X16716526Y-6735534D02*
X16716526Y-6835534D01*
X16666526Y-6785534D02*
X16766526Y-6785534D01*
X16716526Y-6989534D02*
X16716526Y-7089534D01*
X16666526Y-7039534D02*
X16766526Y-7039534D01*
X16716526Y-7243534D02*
X16716526Y-7343534D01*
X16666526Y-7293534D02*
X16766526Y-7293534D01*
X16716526Y-7497534D02*
X16716526Y-7597534D01*
X16666526Y-7547534D02*
X16766526Y-7547534D01*
X16716526Y-7751534D02*
X16716526Y-7851534D01*
X16666526Y-7801534D02*
X16766526Y-7801534D01*
X16716526Y-8005534D02*
X16716526Y-8105534D01*
X16666526Y-8055534D02*
X16766526Y-8055534D01*
X16716526Y-8259534D02*
X16716526Y-8359534D01*
X16666526Y-8309534D02*
X16766526Y-8309534D01*
X16716526Y-8513534D02*
X16716526Y-8613534D01*
X16666526Y-8563534D02*
X16766526Y-8563534D01*
X17430000Y-6633000D02*
X17430000Y-6733000D01*
X17380000Y-6683000D02*
X17480000Y-6683000D01*
X17430000Y-6887000D02*
X17430000Y-6987000D01*
X17380000Y-6937000D02*
X17480000Y-6937000D01*
D12*
X16837741Y-4453741D02*
X16837741Y-4346259D01*
X16730259Y-4346259D01*
X16730259Y-4453741D01*
X16837741Y-4453741D01*
X17345741Y-4453741D02*
X17345741Y-4346259D01*
X17238259Y-4346259D01*
X17238259Y-4453741D01*
X17345741Y-4453741D01*
D13*
X10800659Y-7737500D02*
X10960659Y-7577500D01*
X10800659Y-7417500D01*
X10640659Y-7577500D01*
X10800659Y-7737500D01*
X14012500Y-4522500D02*
X14172500Y-4362500D01*
X14012500Y-4202500D01*
X13852500Y-4362500D01*
X14012500Y-4522500D01*
X14012500Y-10952500D02*
X14172500Y-10792500D01*
X14012500Y-10632500D01*
X13852500Y-10792500D01*
X14012500Y-10952500D01*
X17224341Y-7737500D02*
X17384341Y-7577500D01*
X17224341Y-7417500D01*
X17064341Y-7577500D01*
X17224341Y-7737500D01*
D11*
X10547277Y-11639484D02*
X10547277Y-11439484D01*
X10547277Y-11439484D02*
X10594896Y-11439484D01*
X10594896Y-11439484D02*
X10623467Y-11449008D01*
X10623467Y-11449008D02*
X10642515Y-11468055D01*
X10642515Y-11468055D02*
X10652039Y-11487103D01*
X10652039Y-11487103D02*
X10661563Y-11525198D01*
X10661563Y-11525198D02*
X10661563Y-11553769D01*
X10661563Y-11553769D02*
X10652039Y-11591865D01*
X10652039Y-11591865D02*
X10642515Y-11610912D01*
X10642515Y-11610912D02*
X10623467Y-11629960D01*
X10623467Y-11629960D02*
X10594896Y-11639484D01*
X10594896Y-11639484D02*
X10547277Y-11639484D01*
X10747277Y-11639484D02*
X10747277Y-11506150D01*
X10747277Y-11544246D02*
X10756801Y-11525198D01*
X10756801Y-11525198D02*
X10766324Y-11515674D01*
X10766324Y-11515674D02*
X10785372Y-11506150D01*
X10785372Y-11506150D02*
X10804420Y-11506150D01*
X10871086Y-11639484D02*
X10871086Y-11506150D01*
X10871086Y-11439484D02*
X10861563Y-11449008D01*
X10861563Y-11449008D02*
X10871086Y-11458531D01*
X10871086Y-11458531D02*
X10880610Y-11449008D01*
X10880610Y-11449008D02*
X10871086Y-11439484D01*
X10871086Y-11439484D02*
X10871086Y-11458531D01*
X10994896Y-11639484D02*
X10975848Y-11629960D01*
X10975848Y-11629960D02*
X10966324Y-11610912D01*
X10966324Y-11610912D02*
X10966324Y-11439484D01*
X11099658Y-11639484D02*
X11080610Y-11629960D01*
X11080610Y-11629960D02*
X11071086Y-11610912D01*
X11071086Y-11610912D02*
X11071086Y-11439484D01*
X11328229Y-11639484D02*
X11328229Y-11439484D01*
X11328229Y-11439484D02*
X11394896Y-11582341D01*
X11394896Y-11582341D02*
X11461562Y-11439484D01*
X11461562Y-11439484D02*
X11461562Y-11639484D01*
X11642515Y-11639484D02*
X11642515Y-11534722D01*
X11642515Y-11534722D02*
X11632991Y-11515674D01*
X11632991Y-11515674D02*
X11613943Y-11506150D01*
X11613943Y-11506150D02*
X11575848Y-11506150D01*
X11575848Y-11506150D02*
X11556801Y-11515674D01*
X11642515Y-11629960D02*
X11623467Y-11639484D01*
X11623467Y-11639484D02*
X11575848Y-11639484D01*
X11575848Y-11639484D02*
X11556801Y-11629960D01*
X11556801Y-11629960D02*
X11547277Y-11610912D01*
X11547277Y-11610912D02*
X11547277Y-11591865D01*
X11547277Y-11591865D02*
X11556801Y-11572817D01*
X11556801Y-11572817D02*
X11575848Y-11563293D01*
X11575848Y-11563293D02*
X11623467Y-11563293D01*
X11623467Y-11563293D02*
X11642515Y-11553769D01*
X11737753Y-11506150D02*
X11737753Y-11706150D01*
X11737753Y-11515674D02*
X11756801Y-11506150D01*
X11756801Y-11506150D02*
X11794896Y-11506150D01*
X11794896Y-11506150D02*
X11813943Y-11515674D01*
X11813943Y-11515674D02*
X11823467Y-11525198D01*
X11823467Y-11525198D02*
X11832991Y-11544246D01*
X11832991Y-11544246D02*
X11832991Y-11601388D01*
X11832991Y-11601388D02*
X11823467Y-11620436D01*
X11823467Y-11620436D02*
X11813943Y-11629960D01*
X11813943Y-11629960D02*
X11794896Y-11639484D01*
X11794896Y-11639484D02*
X11756801Y-11639484D01*
X11756801Y-11639484D02*
X11737753Y-11629960D01*
X11918705Y-11620436D02*
X11928229Y-11629960D01*
X11928229Y-11629960D02*
X11918705Y-11639484D01*
X11918705Y-11639484D02*
X11909182Y-11629960D01*
X11909182Y-11629960D02*
X11918705Y-11620436D01*
X11918705Y-11620436D02*
X11918705Y-11639484D01*
X11918705Y-11515674D02*
X11928229Y-11525198D01*
X11928229Y-11525198D02*
X11918705Y-11534722D01*
X11918705Y-11534722D02*
X11909182Y-11525198D01*
X11909182Y-11525198D02*
X11918705Y-11515674D01*
X11918705Y-11515674D02*
X11918705Y-11534722D01*
D10*
X10246500Y-11948000D02*
X10286500Y-11988000D01*
X10286500Y-11948000D02*
X10246500Y-11988000D01*
D11*
X10585372Y-11859484D02*
X10604420Y-11859484D01*
X10604420Y-11859484D02*
X10623467Y-11869008D01*
X10623467Y-11869008D02*
X10632991Y-11878531D01*
X10632991Y-11878531D02*
X10642515Y-11897579D01*
X10642515Y-11897579D02*
X10652039Y-11935674D01*
X10652039Y-11935674D02*
X10652039Y-11983293D01*
X10652039Y-11983293D02*
X10642515Y-12021388D01*
X10642515Y-12021388D02*
X10632991Y-12040436D01*
X10632991Y-12040436D02*
X10623467Y-12049960D01*
X10623467Y-12049960D02*
X10604420Y-12059484D01*
X10604420Y-12059484D02*
X10585372Y-12059484D01*
X10585372Y-12059484D02*
X10566324Y-12049960D01*
X10566324Y-12049960D02*
X10556801Y-12040436D01*
X10556801Y-12040436D02*
X10547277Y-12021388D01*
X10547277Y-12021388D02*
X10537753Y-11983293D01*
X10537753Y-11983293D02*
X10537753Y-11935674D01*
X10537753Y-11935674D02*
X10547277Y-11897579D01*
X10547277Y-11897579D02*
X10556801Y-11878531D01*
X10556801Y-11878531D02*
X10566324Y-11869008D01*
X10566324Y-11869008D02*
X10585372Y-11859484D01*
X10737753Y-12040436D02*
X10747277Y-12049960D01*
X10747277Y-12049960D02*
X10737753Y-12059484D01*
X10737753Y-12059484D02*
X10728229Y-12049960D01*
X10728229Y-12049960D02*
X10737753Y-12040436D01*
X10737753Y-12040436D02*
X10737753Y-12059484D01*
X10918705Y-11926150D02*
X10918705Y-12059484D01*
X10871086Y-11849960D02*
X10823467Y-11992817D01*
X10823467Y-11992817D02*
X10947277Y-11992817D01*
X11061563Y-11859484D02*
X11080610Y-11859484D01*
X11080610Y-11859484D02*
X11099658Y-11869008D01*
X11099658Y-11869008D02*
X11109182Y-11878531D01*
X11109182Y-11878531D02*
X11118705Y-11897579D01*
X11118705Y-11897579D02*
X11128229Y-11935674D01*
X11128229Y-11935674D02*
X11128229Y-11983293D01*
X11128229Y-11983293D02*
X11118705Y-12021388D01*
X11118705Y-12021388D02*
X11109182Y-12040436D01*
X11109182Y-12040436D02*
X11099658Y-12049960D01*
X11099658Y-12049960D02*
X11080610Y-12059484D01*
X11080610Y-12059484D02*
X11061563Y-12059484D01*
X11061563Y-12059484D02*
X11042515Y-12049960D01*
X11042515Y-12049960D02*
X11032991Y-12040436D01*
X11032991Y-12040436D02*
X11023467Y-12021388D01*
X11023467Y-12021388D02*
X11013944Y-11983293D01*
X11013944Y-11983293D02*
X11013944Y-11935674D01*
X11013944Y-11935674D02*
X11023467Y-11897579D01*
X11023467Y-11897579D02*
X11032991Y-11878531D01*
X11032991Y-11878531D02*
X11042515Y-11869008D01*
X11042515Y-11869008D02*
X11061563Y-11859484D01*
X11252039Y-11859484D02*
X11271086Y-11859484D01*
X11271086Y-11859484D02*
X11290134Y-11869008D01*
X11290134Y-11869008D02*
X11299658Y-11878531D01*
X11299658Y-11878531D02*
X11309182Y-11897579D01*
X11309182Y-11897579D02*
X11318705Y-11935674D01*
X11318705Y-11935674D02*
X11318705Y-11983293D01*
X11318705Y-11983293D02*
X11309182Y-12021388D01*
X11309182Y-12021388D02*
X11299658Y-12040436D01*
X11299658Y-12040436D02*
X11290134Y-12049960D01*
X11290134Y-12049960D02*
X11271086Y-12059484D01*
X11271086Y-12059484D02*
X11252039Y-12059484D01*
X11252039Y-12059484D02*
X11232991Y-12049960D01*
X11232991Y-12049960D02*
X11223467Y-12040436D01*
X11223467Y-12040436D02*
X11213943Y-12021388D01*
X11213943Y-12021388D02*
X11204420Y-11983293D01*
X11204420Y-11983293D02*
X11204420Y-11935674D01*
X11204420Y-11935674D02*
X11213943Y-11897579D01*
X11213943Y-11897579D02*
X11223467Y-11878531D01*
X11223467Y-11878531D02*
X11232991Y-11869008D01*
X11232991Y-11869008D02*
X11252039Y-11859484D01*
X11404420Y-12059484D02*
X11404420Y-11926150D01*
X11404420Y-11945198D02*
X11413943Y-11935674D01*
X11413943Y-11935674D02*
X11432991Y-11926150D01*
X11432991Y-11926150D02*
X11461563Y-11926150D01*
X11461563Y-11926150D02*
X11480610Y-11935674D01*
X11480610Y-11935674D02*
X11490134Y-11954722D01*
X11490134Y-11954722D02*
X11490134Y-12059484D01*
X11490134Y-11954722D02*
X11499658Y-11935674D01*
X11499658Y-11935674D02*
X11518705Y-11926150D01*
X11518705Y-11926150D02*
X11547277Y-11926150D01*
X11547277Y-11926150D02*
X11566324Y-11935674D01*
X11566324Y-11935674D02*
X11575848Y-11954722D01*
X11575848Y-11954722D02*
X11575848Y-12059484D01*
X11671086Y-12059484D02*
X11671086Y-11926150D01*
X11671086Y-11945198D02*
X11680610Y-11935674D01*
X11680610Y-11935674D02*
X11699658Y-11926150D01*
X11699658Y-11926150D02*
X11728229Y-11926150D01*
X11728229Y-11926150D02*
X11747277Y-11935674D01*
X11747277Y-11935674D02*
X11756801Y-11954722D01*
X11756801Y-11954722D02*
X11756801Y-12059484D01*
X11756801Y-11954722D02*
X11766324Y-11935674D01*
X11766324Y-11935674D02*
X11785372Y-11926150D01*
X11785372Y-11926150D02*
X11813943Y-11926150D01*
X11813943Y-11926150D02*
X11832991Y-11935674D01*
X11832991Y-11935674D02*
X11842515Y-11954722D01*
X11842515Y-11954722D02*
X11842515Y-12059484D01*
X12232991Y-11849960D02*
X12061563Y-12107103D01*
X12490134Y-11859484D02*
X12509182Y-11859484D01*
X12509182Y-11859484D02*
X12528229Y-11869008D01*
X12528229Y-11869008D02*
X12537753Y-11878531D01*
X12537753Y-11878531D02*
X12547277Y-11897579D01*
X12547277Y-11897579D02*
X12556801Y-11935674D01*
X12556801Y-11935674D02*
X12556801Y-11983293D01*
X12556801Y-11983293D02*
X12547277Y-12021388D01*
X12547277Y-12021388D02*
X12537753Y-12040436D01*
X12537753Y-12040436D02*
X12528229Y-12049960D01*
X12528229Y-12049960D02*
X12509182Y-12059484D01*
X12509182Y-12059484D02*
X12490134Y-12059484D01*
X12490134Y-12059484D02*
X12471086Y-12049960D01*
X12471086Y-12049960D02*
X12461563Y-12040436D01*
X12461563Y-12040436D02*
X12452039Y-12021388D01*
X12452039Y-12021388D02*
X12442515Y-11983293D01*
X12442515Y-11983293D02*
X12442515Y-11935674D01*
X12442515Y-11935674D02*
X12452039Y-11897579D01*
X12452039Y-11897579D02*
X12461563Y-11878531D01*
X12461563Y-11878531D02*
X12471086Y-11869008D01*
X12471086Y-11869008D02*
X12490134Y-11859484D01*
X12642515Y-12040436D02*
X12652039Y-12049960D01*
X12652039Y-12049960D02*
X12642515Y-12059484D01*
X12642515Y-12059484D02*
X12632991Y-12049960D01*
X12632991Y-12049960D02*
X12642515Y-12040436D01*
X12642515Y-12040436D02*
X12642515Y-12059484D01*
X12775848Y-11859484D02*
X12794896Y-11859484D01*
X12794896Y-11859484D02*
X12813944Y-11869008D01*
X12813944Y-11869008D02*
X12823467Y-11878531D01*
X12823467Y-11878531D02*
X12832991Y-11897579D01*
X12832991Y-11897579D02*
X12842515Y-11935674D01*
X12842515Y-11935674D02*
X12842515Y-11983293D01*
X12842515Y-11983293D02*
X12832991Y-12021388D01*
X12832991Y-12021388D02*
X12823467Y-12040436D01*
X12823467Y-12040436D02*
X12813944Y-12049960D01*
X12813944Y-12049960D02*
X12794896Y-12059484D01*
X12794896Y-12059484D02*
X12775848Y-12059484D01*
X12775848Y-12059484D02*
X12756801Y-12049960D01*
X12756801Y-12049960D02*
X12747277Y-12040436D01*
X12747277Y-12040436D02*
X12737753Y-12021388D01*
X12737753Y-12021388D02*
X12728229Y-11983293D01*
X12728229Y-11983293D02*
X12728229Y-11935674D01*
X12728229Y-11935674D02*
X12737753Y-11897579D01*
X12737753Y-11897579D02*
X12747277Y-11878531D01*
X12747277Y-11878531D02*
X12756801Y-11869008D01*
X12756801Y-11869008D02*
X12775848Y-11859484D01*
X13032991Y-12059484D02*
X12918706Y-12059484D01*
X12975848Y-12059484D02*
X12975848Y-11859484D01*
X12975848Y-11859484D02*
X12956801Y-11888055D01*
X12956801Y-11888055D02*
X12937753Y-11907103D01*
X12937753Y-11907103D02*
X12918706Y-11916627D01*
X13213944Y-11859484D02*
X13118706Y-11859484D01*
X13118706Y-11859484D02*
X13109182Y-11954722D01*
X13109182Y-11954722D02*
X13118706Y-11945198D01*
X13118706Y-11945198D02*
X13137753Y-11935674D01*
X13137753Y-11935674D02*
X13185372Y-11935674D01*
X13185372Y-11935674D02*
X13204420Y-11945198D01*
X13204420Y-11945198D02*
X13213944Y-11954722D01*
X13213944Y-11954722D02*
X13223467Y-11973769D01*
X13223467Y-11973769D02*
X13223467Y-12021388D01*
X13223467Y-12021388D02*
X13213944Y-12040436D01*
X13213944Y-12040436D02*
X13204420Y-12049960D01*
X13204420Y-12049960D02*
X13185372Y-12059484D01*
X13185372Y-12059484D02*
X13137753Y-12059484D01*
X13137753Y-12059484D02*
X13118706Y-12049960D01*
X13118706Y-12049960D02*
X13109182Y-12040436D01*
X13290134Y-11859484D02*
X13423467Y-11859484D01*
X13423467Y-11859484D02*
X13337753Y-12059484D01*
X13490134Y-11859484D02*
X13490134Y-11897579D01*
X13566325Y-11859484D02*
X13566325Y-11897579D01*
X13861563Y-12135674D02*
X13852039Y-12126150D01*
X13852039Y-12126150D02*
X13832991Y-12097579D01*
X13832991Y-12097579D02*
X13823468Y-12078531D01*
X13823468Y-12078531D02*
X13813944Y-12049960D01*
X13813944Y-12049960D02*
X13804420Y-12002341D01*
X13804420Y-12002341D02*
X13804420Y-11964246D01*
X13804420Y-11964246D02*
X13813944Y-11916627D01*
X13813944Y-11916627D02*
X13823468Y-11888055D01*
X13823468Y-11888055D02*
X13832991Y-11869008D01*
X13832991Y-11869008D02*
X13852039Y-11840436D01*
X13852039Y-11840436D02*
X13861563Y-11830912D01*
X14042515Y-12059484D02*
X13928229Y-12059484D01*
X13985372Y-12059484D02*
X13985372Y-11859484D01*
X13985372Y-11859484D02*
X13966325Y-11888055D01*
X13966325Y-11888055D02*
X13947277Y-11907103D01*
X13947277Y-11907103D02*
X13928229Y-11916627D01*
X14109182Y-11859484D02*
X14242515Y-11859484D01*
X14242515Y-11859484D02*
X14156801Y-12059484D01*
X14471087Y-12059484D02*
X14471087Y-11859484D01*
X14556801Y-12059484D02*
X14556801Y-11954722D01*
X14556801Y-11954722D02*
X14547277Y-11935674D01*
X14547277Y-11935674D02*
X14528230Y-11926150D01*
X14528230Y-11926150D02*
X14499658Y-11926150D01*
X14499658Y-11926150D02*
X14480610Y-11935674D01*
X14480610Y-11935674D02*
X14471087Y-11945198D01*
X14680610Y-12059484D02*
X14661563Y-12049960D01*
X14661563Y-12049960D02*
X14652039Y-12040436D01*
X14652039Y-12040436D02*
X14642515Y-12021388D01*
X14642515Y-12021388D02*
X14642515Y-11964246D01*
X14642515Y-11964246D02*
X14652039Y-11945198D01*
X14652039Y-11945198D02*
X14661563Y-11935674D01*
X14661563Y-11935674D02*
X14680610Y-11926150D01*
X14680610Y-11926150D02*
X14709182Y-11926150D01*
X14709182Y-11926150D02*
X14728230Y-11935674D01*
X14728230Y-11935674D02*
X14737753Y-11945198D01*
X14737753Y-11945198D02*
X14747277Y-11964246D01*
X14747277Y-11964246D02*
X14747277Y-12021388D01*
X14747277Y-12021388D02*
X14737753Y-12040436D01*
X14737753Y-12040436D02*
X14728230Y-12049960D01*
X14728230Y-12049960D02*
X14709182Y-12059484D01*
X14709182Y-12059484D02*
X14680610Y-12059484D01*
X14861563Y-12059484D02*
X14842515Y-12049960D01*
X14842515Y-12049960D02*
X14832991Y-12030912D01*
X14832991Y-12030912D02*
X14832991Y-11859484D01*
X15013944Y-12049960D02*
X14994896Y-12059484D01*
X14994896Y-12059484D02*
X14956801Y-12059484D01*
X14956801Y-12059484D02*
X14937753Y-12049960D01*
X14937753Y-12049960D02*
X14928230Y-12030912D01*
X14928230Y-12030912D02*
X14928230Y-11954722D01*
X14928230Y-11954722D02*
X14937753Y-11935674D01*
X14937753Y-11935674D02*
X14956801Y-11926150D01*
X14956801Y-11926150D02*
X14994896Y-11926150D01*
X14994896Y-11926150D02*
X15013944Y-11935674D01*
X15013944Y-11935674D02*
X15023468Y-11954722D01*
X15023468Y-11954722D02*
X15023468Y-11973769D01*
X15023468Y-11973769D02*
X14928230Y-11992817D01*
X15099658Y-12049960D02*
X15118706Y-12059484D01*
X15118706Y-12059484D02*
X15156801Y-12059484D01*
X15156801Y-12059484D02*
X15175849Y-12049960D01*
X15175849Y-12049960D02*
X15185372Y-12030912D01*
X15185372Y-12030912D02*
X15185372Y-12021388D01*
X15185372Y-12021388D02*
X15175849Y-12002341D01*
X15175849Y-12002341D02*
X15156801Y-11992817D01*
X15156801Y-11992817D02*
X15128230Y-11992817D01*
X15128230Y-11992817D02*
X15109182Y-11983293D01*
X15109182Y-11983293D02*
X15099658Y-11964246D01*
X15099658Y-11964246D02*
X15099658Y-11954722D01*
X15099658Y-11954722D02*
X15109182Y-11935674D01*
X15109182Y-11935674D02*
X15128230Y-11926150D01*
X15128230Y-11926150D02*
X15156801Y-11926150D01*
X15156801Y-11926150D02*
X15175849Y-11935674D01*
X15252039Y-12135674D02*
X15261563Y-12126150D01*
X15261563Y-12126150D02*
X15280611Y-12097579D01*
X15280611Y-12097579D02*
X15290134Y-12078531D01*
X15290134Y-12078531D02*
X15299658Y-12049960D01*
X15299658Y-12049960D02*
X15309182Y-12002341D01*
X15309182Y-12002341D02*
X15309182Y-11964246D01*
X15309182Y-11964246D02*
X15299658Y-11916627D01*
X15299658Y-11916627D02*
X15290134Y-11888055D01*
X15290134Y-11888055D02*
X15280611Y-11869008D01*
X15280611Y-11869008D02*
X15261563Y-11840436D01*
X15261563Y-11840436D02*
X15252039Y-11830912D01*
D10*
X10286500Y-12232000D02*
G75*
G02*
X10216500Y-12232000I-35000J0D01*
G01*
X10216500Y-12232000D02*
G75*
G02*
X10286500Y-12232000I35000J0D01*
G01*
D11*
X10585372Y-12123484D02*
X10604420Y-12123484D01*
X10604420Y-12123484D02*
X10623467Y-12133008D01*
X10623467Y-12133008D02*
X10632991Y-12142531D01*
X10632991Y-12142531D02*
X10642515Y-12161579D01*
X10642515Y-12161579D02*
X10652039Y-12199674D01*
X10652039Y-12199674D02*
X10652039Y-12247293D01*
X10652039Y-12247293D02*
X10642515Y-12285388D01*
X10642515Y-12285388D02*
X10632991Y-12304436D01*
X10632991Y-12304436D02*
X10623467Y-12313960D01*
X10623467Y-12313960D02*
X10604420Y-12323484D01*
X10604420Y-12323484D02*
X10585372Y-12323484D01*
X10585372Y-12323484D02*
X10566324Y-12313960D01*
X10566324Y-12313960D02*
X10556801Y-12304436D01*
X10556801Y-12304436D02*
X10547277Y-12285388D01*
X10547277Y-12285388D02*
X10537753Y-12247293D01*
X10537753Y-12247293D02*
X10537753Y-12199674D01*
X10537753Y-12199674D02*
X10547277Y-12161579D01*
X10547277Y-12161579D02*
X10556801Y-12142531D01*
X10556801Y-12142531D02*
X10566324Y-12133008D01*
X10566324Y-12133008D02*
X10585372Y-12123484D01*
X10737753Y-12304436D02*
X10747277Y-12313960D01*
X10747277Y-12313960D02*
X10737753Y-12323484D01*
X10737753Y-12323484D02*
X10728229Y-12313960D01*
X10728229Y-12313960D02*
X10737753Y-12304436D01*
X10737753Y-12304436D02*
X10737753Y-12323484D01*
X10813944Y-12123484D02*
X10947277Y-12123484D01*
X10947277Y-12123484D02*
X10861563Y-12323484D01*
X11061563Y-12123484D02*
X11080610Y-12123484D01*
X11080610Y-12123484D02*
X11099658Y-12133008D01*
X11099658Y-12133008D02*
X11109182Y-12142531D01*
X11109182Y-12142531D02*
X11118705Y-12161579D01*
X11118705Y-12161579D02*
X11128229Y-12199674D01*
X11128229Y-12199674D02*
X11128229Y-12247293D01*
X11128229Y-12247293D02*
X11118705Y-12285388D01*
X11118705Y-12285388D02*
X11109182Y-12304436D01*
X11109182Y-12304436D02*
X11099658Y-12313960D01*
X11099658Y-12313960D02*
X11080610Y-12323484D01*
X11080610Y-12323484D02*
X11061563Y-12323484D01*
X11061563Y-12323484D02*
X11042515Y-12313960D01*
X11042515Y-12313960D02*
X11032991Y-12304436D01*
X11032991Y-12304436D02*
X11023467Y-12285388D01*
X11023467Y-12285388D02*
X11013944Y-12247293D01*
X11013944Y-12247293D02*
X11013944Y-12199674D01*
X11013944Y-12199674D02*
X11023467Y-12161579D01*
X11023467Y-12161579D02*
X11032991Y-12142531D01*
X11032991Y-12142531D02*
X11042515Y-12133008D01*
X11042515Y-12133008D02*
X11061563Y-12123484D01*
X11252039Y-12123484D02*
X11271086Y-12123484D01*
X11271086Y-12123484D02*
X11290134Y-12133008D01*
X11290134Y-12133008D02*
X11299658Y-12142531D01*
X11299658Y-12142531D02*
X11309182Y-12161579D01*
X11309182Y-12161579D02*
X11318705Y-12199674D01*
X11318705Y-12199674D02*
X11318705Y-12247293D01*
X11318705Y-12247293D02*
X11309182Y-12285388D01*
X11309182Y-12285388D02*
X11299658Y-12304436D01*
X11299658Y-12304436D02*
X11290134Y-12313960D01*
X11290134Y-12313960D02*
X11271086Y-12323484D01*
X11271086Y-12323484D02*
X11252039Y-12323484D01*
X11252039Y-12323484D02*
X11232991Y-12313960D01*
X11232991Y-12313960D02*
X11223467Y-12304436D01*
X11223467Y-12304436D02*
X11213943Y-12285388D01*
X11213943Y-12285388D02*
X11204420Y-12247293D01*
X11204420Y-12247293D02*
X11204420Y-12199674D01*
X11204420Y-12199674D02*
X11213943Y-12161579D01*
X11213943Y-12161579D02*
X11223467Y-12142531D01*
X11223467Y-12142531D02*
X11232991Y-12133008D01*
X11232991Y-12133008D02*
X11252039Y-12123484D01*
X11404420Y-12323484D02*
X11404420Y-12190150D01*
X11404420Y-12209198D02*
X11413943Y-12199674D01*
X11413943Y-12199674D02*
X11432991Y-12190150D01*
X11432991Y-12190150D02*
X11461563Y-12190150D01*
X11461563Y-12190150D02*
X11480610Y-12199674D01*
X11480610Y-12199674D02*
X11490134Y-12218722D01*
X11490134Y-12218722D02*
X11490134Y-12323484D01*
X11490134Y-12218722D02*
X11499658Y-12199674D01*
X11499658Y-12199674D02*
X11518705Y-12190150D01*
X11518705Y-12190150D02*
X11547277Y-12190150D01*
X11547277Y-12190150D02*
X11566324Y-12199674D01*
X11566324Y-12199674D02*
X11575848Y-12218722D01*
X11575848Y-12218722D02*
X11575848Y-12323484D01*
X11671086Y-12323484D02*
X11671086Y-12190150D01*
X11671086Y-12209198D02*
X11680610Y-12199674D01*
X11680610Y-12199674D02*
X11699658Y-12190150D01*
X11699658Y-12190150D02*
X11728229Y-12190150D01*
X11728229Y-12190150D02*
X11747277Y-12199674D01*
X11747277Y-12199674D02*
X11756801Y-12218722D01*
X11756801Y-12218722D02*
X11756801Y-12323484D01*
X11756801Y-12218722D02*
X11766324Y-12199674D01*
X11766324Y-12199674D02*
X11785372Y-12190150D01*
X11785372Y-12190150D02*
X11813943Y-12190150D01*
X11813943Y-12190150D02*
X11832991Y-12199674D01*
X11832991Y-12199674D02*
X11842515Y-12218722D01*
X11842515Y-12218722D02*
X11842515Y-12323484D01*
X12232991Y-12113960D02*
X12061563Y-12371103D01*
X12490134Y-12123484D02*
X12509182Y-12123484D01*
X12509182Y-12123484D02*
X12528229Y-12133008D01*
X12528229Y-12133008D02*
X12537753Y-12142531D01*
X12537753Y-12142531D02*
X12547277Y-12161579D01*
X12547277Y-12161579D02*
X12556801Y-12199674D01*
X12556801Y-12199674D02*
X12556801Y-12247293D01*
X12556801Y-12247293D02*
X12547277Y-12285388D01*
X12547277Y-12285388D02*
X12537753Y-12304436D01*
X12537753Y-12304436D02*
X12528229Y-12313960D01*
X12528229Y-12313960D02*
X12509182Y-12323484D01*
X12509182Y-12323484D02*
X12490134Y-12323484D01*
X12490134Y-12323484D02*
X12471086Y-12313960D01*
X12471086Y-12313960D02*
X12461563Y-12304436D01*
X12461563Y-12304436D02*
X12452039Y-12285388D01*
X12452039Y-12285388D02*
X12442515Y-12247293D01*
X12442515Y-12247293D02*
X12442515Y-12199674D01*
X12442515Y-12199674D02*
X12452039Y-12161579D01*
X12452039Y-12161579D02*
X12461563Y-12142531D01*
X12461563Y-12142531D02*
X12471086Y-12133008D01*
X12471086Y-12133008D02*
X12490134Y-12123484D01*
X12642515Y-12304436D02*
X12652039Y-12313960D01*
X12652039Y-12313960D02*
X12642515Y-12323484D01*
X12642515Y-12323484D02*
X12632991Y-12313960D01*
X12632991Y-12313960D02*
X12642515Y-12304436D01*
X12642515Y-12304436D02*
X12642515Y-12323484D01*
X12775848Y-12123484D02*
X12794896Y-12123484D01*
X12794896Y-12123484D02*
X12813944Y-12133008D01*
X12813944Y-12133008D02*
X12823467Y-12142531D01*
X12823467Y-12142531D02*
X12832991Y-12161579D01*
X12832991Y-12161579D02*
X12842515Y-12199674D01*
X12842515Y-12199674D02*
X12842515Y-12247293D01*
X12842515Y-12247293D02*
X12832991Y-12285388D01*
X12832991Y-12285388D02*
X12823467Y-12304436D01*
X12823467Y-12304436D02*
X12813944Y-12313960D01*
X12813944Y-12313960D02*
X12794896Y-12323484D01*
X12794896Y-12323484D02*
X12775848Y-12323484D01*
X12775848Y-12323484D02*
X12756801Y-12313960D01*
X12756801Y-12313960D02*
X12747277Y-12304436D01*
X12747277Y-12304436D02*
X12737753Y-12285388D01*
X12737753Y-12285388D02*
X12728229Y-12247293D01*
X12728229Y-12247293D02*
X12728229Y-12199674D01*
X12728229Y-12199674D02*
X12737753Y-12161579D01*
X12737753Y-12161579D02*
X12747277Y-12142531D01*
X12747277Y-12142531D02*
X12756801Y-12133008D01*
X12756801Y-12133008D02*
X12775848Y-12123484D01*
X12918706Y-12142531D02*
X12928229Y-12133008D01*
X12928229Y-12133008D02*
X12947277Y-12123484D01*
X12947277Y-12123484D02*
X12994896Y-12123484D01*
X12994896Y-12123484D02*
X13013944Y-12133008D01*
X13013944Y-12133008D02*
X13023467Y-12142531D01*
X13023467Y-12142531D02*
X13032991Y-12161579D01*
X13032991Y-12161579D02*
X13032991Y-12180627D01*
X13032991Y-12180627D02*
X13023467Y-12209198D01*
X13023467Y-12209198D02*
X12909182Y-12323484D01*
X12909182Y-12323484D02*
X13032991Y-12323484D01*
X13099658Y-12123484D02*
X13232991Y-12123484D01*
X13232991Y-12123484D02*
X13147277Y-12323484D01*
X13394896Y-12123484D02*
X13356801Y-12123484D01*
X13356801Y-12123484D02*
X13337753Y-12133008D01*
X13337753Y-12133008D02*
X13328229Y-12142531D01*
X13328229Y-12142531D02*
X13309182Y-12171103D01*
X13309182Y-12171103D02*
X13299658Y-12209198D01*
X13299658Y-12209198D02*
X13299658Y-12285388D01*
X13299658Y-12285388D02*
X13309182Y-12304436D01*
X13309182Y-12304436D02*
X13318706Y-12313960D01*
X13318706Y-12313960D02*
X13337753Y-12323484D01*
X13337753Y-12323484D02*
X13375848Y-12323484D01*
X13375848Y-12323484D02*
X13394896Y-12313960D01*
X13394896Y-12313960D02*
X13404420Y-12304436D01*
X13404420Y-12304436D02*
X13413944Y-12285388D01*
X13413944Y-12285388D02*
X13413944Y-12237769D01*
X13413944Y-12237769D02*
X13404420Y-12218722D01*
X13404420Y-12218722D02*
X13394896Y-12209198D01*
X13394896Y-12209198D02*
X13375848Y-12199674D01*
X13375848Y-12199674D02*
X13337753Y-12199674D01*
X13337753Y-12199674D02*
X13318706Y-12209198D01*
X13318706Y-12209198D02*
X13309182Y-12218722D01*
X13309182Y-12218722D02*
X13299658Y-12237769D01*
X13490134Y-12123484D02*
X13490134Y-12161579D01*
X13566325Y-12123484D02*
X13566325Y-12161579D01*
X13861563Y-12399674D02*
X13852039Y-12390150D01*
X13852039Y-12390150D02*
X13832991Y-12361579D01*
X13832991Y-12361579D02*
X13823468Y-12342531D01*
X13823468Y-12342531D02*
X13813944Y-12313960D01*
X13813944Y-12313960D02*
X13804420Y-12266341D01*
X13804420Y-12266341D02*
X13804420Y-12228246D01*
X13804420Y-12228246D02*
X13813944Y-12180627D01*
X13813944Y-12180627D02*
X13823468Y-12152055D01*
X13823468Y-12152055D02*
X13832991Y-12133008D01*
X13832991Y-12133008D02*
X13852039Y-12104436D01*
X13852039Y-12104436D02*
X13861563Y-12094912D01*
X13918706Y-12123484D02*
X14042515Y-12123484D01*
X14042515Y-12123484D02*
X13975848Y-12199674D01*
X13975848Y-12199674D02*
X14004420Y-12199674D01*
X14004420Y-12199674D02*
X14023468Y-12209198D01*
X14023468Y-12209198D02*
X14032991Y-12218722D01*
X14032991Y-12218722D02*
X14042515Y-12237769D01*
X14042515Y-12237769D02*
X14042515Y-12285388D01*
X14042515Y-12285388D02*
X14032991Y-12304436D01*
X14032991Y-12304436D02*
X14023468Y-12313960D01*
X14023468Y-12313960D02*
X14004420Y-12323484D01*
X14004420Y-12323484D02*
X13947277Y-12323484D01*
X13947277Y-12323484D02*
X13928229Y-12313960D01*
X13928229Y-12313960D02*
X13918706Y-12304436D01*
X14280610Y-12323484D02*
X14280610Y-12123484D01*
X14366325Y-12323484D02*
X14366325Y-12218722D01*
X14366325Y-12218722D02*
X14356801Y-12199674D01*
X14356801Y-12199674D02*
X14337753Y-12190150D01*
X14337753Y-12190150D02*
X14309182Y-12190150D01*
X14309182Y-12190150D02*
X14290134Y-12199674D01*
X14290134Y-12199674D02*
X14280610Y-12209198D01*
X14490134Y-12323484D02*
X14471087Y-12313960D01*
X14471087Y-12313960D02*
X14461563Y-12304436D01*
X14461563Y-12304436D02*
X14452039Y-12285388D01*
X14452039Y-12285388D02*
X14452039Y-12228246D01*
X14452039Y-12228246D02*
X14461563Y-12209198D01*
X14461563Y-12209198D02*
X14471087Y-12199674D01*
X14471087Y-12199674D02*
X14490134Y-12190150D01*
X14490134Y-12190150D02*
X14518706Y-12190150D01*
X14518706Y-12190150D02*
X14537753Y-12199674D01*
X14537753Y-12199674D02*
X14547277Y-12209198D01*
X14547277Y-12209198D02*
X14556801Y-12228246D01*
X14556801Y-12228246D02*
X14556801Y-12285388D01*
X14556801Y-12285388D02*
X14547277Y-12304436D01*
X14547277Y-12304436D02*
X14537753Y-12313960D01*
X14537753Y-12313960D02*
X14518706Y-12323484D01*
X14518706Y-12323484D02*
X14490134Y-12323484D01*
X14671087Y-12323484D02*
X14652039Y-12313960D01*
X14652039Y-12313960D02*
X14642515Y-12294912D01*
X14642515Y-12294912D02*
X14642515Y-12123484D01*
X14823468Y-12313960D02*
X14804420Y-12323484D01*
X14804420Y-12323484D02*
X14766325Y-12323484D01*
X14766325Y-12323484D02*
X14747277Y-12313960D01*
X14747277Y-12313960D02*
X14737753Y-12294912D01*
X14737753Y-12294912D02*
X14737753Y-12218722D01*
X14737753Y-12218722D02*
X14747277Y-12199674D01*
X14747277Y-12199674D02*
X14766325Y-12190150D01*
X14766325Y-12190150D02*
X14804420Y-12190150D01*
X14804420Y-12190150D02*
X14823468Y-12199674D01*
X14823468Y-12199674D02*
X14832991Y-12218722D01*
X14832991Y-12218722D02*
X14832991Y-12237769D01*
X14832991Y-12237769D02*
X14737753Y-12256817D01*
X14909182Y-12313960D02*
X14928230Y-12323484D01*
X14928230Y-12323484D02*
X14966325Y-12323484D01*
X14966325Y-12323484D02*
X14985372Y-12313960D01*
X14985372Y-12313960D02*
X14994896Y-12294912D01*
X14994896Y-12294912D02*
X14994896Y-12285388D01*
X14994896Y-12285388D02*
X14985372Y-12266341D01*
X14985372Y-12266341D02*
X14966325Y-12256817D01*
X14966325Y-12256817D02*
X14937753Y-12256817D01*
X14937753Y-12256817D02*
X14918706Y-12247293D01*
X14918706Y-12247293D02*
X14909182Y-12228246D01*
X14909182Y-12228246D02*
X14909182Y-12218722D01*
X14909182Y-12218722D02*
X14918706Y-12199674D01*
X14918706Y-12199674D02*
X14937753Y-12190150D01*
X14937753Y-12190150D02*
X14966325Y-12190150D01*
X14966325Y-12190150D02*
X14985372Y-12199674D01*
X15061563Y-12399674D02*
X15071087Y-12390150D01*
X15071087Y-12390150D02*
X15090134Y-12361579D01*
X15090134Y-12361579D02*
X15099658Y-12342531D01*
X15099658Y-12342531D02*
X15109182Y-12313960D01*
X15109182Y-12313960D02*
X15118706Y-12266341D01*
X15118706Y-12266341D02*
X15118706Y-12228246D01*
X15118706Y-12228246D02*
X15109182Y-12180627D01*
X15109182Y-12180627D02*
X15099658Y-12152055D01*
X15099658Y-12152055D02*
X15090134Y-12133008D01*
X15090134Y-12133008D02*
X15071087Y-12104436D01*
X15071087Y-12104436D02*
X15061563Y-12094912D01*
D10*
X10236500Y-12446000D02*
X10236500Y-12546000D01*
X10186500Y-12496000D02*
X10286500Y-12496000D01*
D11*
X10652039Y-12587484D02*
X10537753Y-12587484D01*
X10594896Y-12587484D02*
X10594896Y-12387484D01*
X10594896Y-12387484D02*
X10575848Y-12416055D01*
X10575848Y-12416055D02*
X10556801Y-12435103D01*
X10556801Y-12435103D02*
X10537753Y-12444627D01*
X10737753Y-12568436D02*
X10747277Y-12577960D01*
X10747277Y-12577960D02*
X10737753Y-12587484D01*
X10737753Y-12587484D02*
X10728229Y-12577960D01*
X10728229Y-12577960D02*
X10737753Y-12568436D01*
X10737753Y-12568436D02*
X10737753Y-12587484D01*
X10871086Y-12387484D02*
X10890134Y-12387484D01*
X10890134Y-12387484D02*
X10909182Y-12397008D01*
X10909182Y-12397008D02*
X10918705Y-12406531D01*
X10918705Y-12406531D02*
X10928229Y-12425579D01*
X10928229Y-12425579D02*
X10937753Y-12463674D01*
X10937753Y-12463674D02*
X10937753Y-12511293D01*
X10937753Y-12511293D02*
X10928229Y-12549388D01*
X10928229Y-12549388D02*
X10918705Y-12568436D01*
X10918705Y-12568436D02*
X10909182Y-12577960D01*
X10909182Y-12577960D02*
X10890134Y-12587484D01*
X10890134Y-12587484D02*
X10871086Y-12587484D01*
X10871086Y-12587484D02*
X10852039Y-12577960D01*
X10852039Y-12577960D02*
X10842515Y-12568436D01*
X10842515Y-12568436D02*
X10832991Y-12549388D01*
X10832991Y-12549388D02*
X10823467Y-12511293D01*
X10823467Y-12511293D02*
X10823467Y-12463674D01*
X10823467Y-12463674D02*
X10832991Y-12425579D01*
X10832991Y-12425579D02*
X10842515Y-12406531D01*
X10842515Y-12406531D02*
X10852039Y-12397008D01*
X10852039Y-12397008D02*
X10871086Y-12387484D01*
X11061563Y-12387484D02*
X11080610Y-12387484D01*
X11080610Y-12387484D02*
X11099658Y-12397008D01*
X11099658Y-12397008D02*
X11109182Y-12406531D01*
X11109182Y-12406531D02*
X11118705Y-12425579D01*
X11118705Y-12425579D02*
X11128229Y-12463674D01*
X11128229Y-12463674D02*
X11128229Y-12511293D01*
X11128229Y-12511293D02*
X11118705Y-12549388D01*
X11118705Y-12549388D02*
X11109182Y-12568436D01*
X11109182Y-12568436D02*
X11099658Y-12577960D01*
X11099658Y-12577960D02*
X11080610Y-12587484D01*
X11080610Y-12587484D02*
X11061563Y-12587484D01*
X11061563Y-12587484D02*
X11042515Y-12577960D01*
X11042515Y-12577960D02*
X11032991Y-12568436D01*
X11032991Y-12568436D02*
X11023467Y-12549388D01*
X11023467Y-12549388D02*
X11013944Y-12511293D01*
X11013944Y-12511293D02*
X11013944Y-12463674D01*
X11013944Y-12463674D02*
X11023467Y-12425579D01*
X11023467Y-12425579D02*
X11032991Y-12406531D01*
X11032991Y-12406531D02*
X11042515Y-12397008D01*
X11042515Y-12397008D02*
X11061563Y-12387484D01*
X11252039Y-12387484D02*
X11271086Y-12387484D01*
X11271086Y-12387484D02*
X11290134Y-12397008D01*
X11290134Y-12397008D02*
X11299658Y-12406531D01*
X11299658Y-12406531D02*
X11309182Y-12425579D01*
X11309182Y-12425579D02*
X11318705Y-12463674D01*
X11318705Y-12463674D02*
X11318705Y-12511293D01*
X11318705Y-12511293D02*
X11309182Y-12549388D01*
X11309182Y-12549388D02*
X11299658Y-12568436D01*
X11299658Y-12568436D02*
X11290134Y-12577960D01*
X11290134Y-12577960D02*
X11271086Y-12587484D01*
X11271086Y-12587484D02*
X11252039Y-12587484D01*
X11252039Y-12587484D02*
X11232991Y-12577960D01*
X11232991Y-12577960D02*
X11223467Y-12568436D01*
X11223467Y-12568436D02*
X11213943Y-12549388D01*
X11213943Y-12549388D02*
X11204420Y-12511293D01*
X11204420Y-12511293D02*
X11204420Y-12463674D01*
X11204420Y-12463674D02*
X11213943Y-12425579D01*
X11213943Y-12425579D02*
X11223467Y-12406531D01*
X11223467Y-12406531D02*
X11232991Y-12397008D01*
X11232991Y-12397008D02*
X11252039Y-12387484D01*
X11404420Y-12587484D02*
X11404420Y-12454150D01*
X11404420Y-12473198D02*
X11413943Y-12463674D01*
X11413943Y-12463674D02*
X11432991Y-12454150D01*
X11432991Y-12454150D02*
X11461563Y-12454150D01*
X11461563Y-12454150D02*
X11480610Y-12463674D01*
X11480610Y-12463674D02*
X11490134Y-12482722D01*
X11490134Y-12482722D02*
X11490134Y-12587484D01*
X11490134Y-12482722D02*
X11499658Y-12463674D01*
X11499658Y-12463674D02*
X11518705Y-12454150D01*
X11518705Y-12454150D02*
X11547277Y-12454150D01*
X11547277Y-12454150D02*
X11566324Y-12463674D01*
X11566324Y-12463674D02*
X11575848Y-12482722D01*
X11575848Y-12482722D02*
X11575848Y-12587484D01*
X11671086Y-12587484D02*
X11671086Y-12454150D01*
X11671086Y-12473198D02*
X11680610Y-12463674D01*
X11680610Y-12463674D02*
X11699658Y-12454150D01*
X11699658Y-12454150D02*
X11728229Y-12454150D01*
X11728229Y-12454150D02*
X11747277Y-12463674D01*
X11747277Y-12463674D02*
X11756801Y-12482722D01*
X11756801Y-12482722D02*
X11756801Y-12587484D01*
X11756801Y-12482722D02*
X11766324Y-12463674D01*
X11766324Y-12463674D02*
X11785372Y-12454150D01*
X11785372Y-12454150D02*
X11813943Y-12454150D01*
X11813943Y-12454150D02*
X11832991Y-12463674D01*
X11832991Y-12463674D02*
X11842515Y-12482722D01*
X11842515Y-12482722D02*
X11842515Y-12587484D01*
X12232991Y-12377960D02*
X12061563Y-12635103D01*
X12490134Y-12387484D02*
X12509182Y-12387484D01*
X12509182Y-12387484D02*
X12528229Y-12397008D01*
X12528229Y-12397008D02*
X12537753Y-12406531D01*
X12537753Y-12406531D02*
X12547277Y-12425579D01*
X12547277Y-12425579D02*
X12556801Y-12463674D01*
X12556801Y-12463674D02*
X12556801Y-12511293D01*
X12556801Y-12511293D02*
X12547277Y-12549388D01*
X12547277Y-12549388D02*
X12537753Y-12568436D01*
X12537753Y-12568436D02*
X12528229Y-12577960D01*
X12528229Y-12577960D02*
X12509182Y-12587484D01*
X12509182Y-12587484D02*
X12490134Y-12587484D01*
X12490134Y-12587484D02*
X12471086Y-12577960D01*
X12471086Y-12577960D02*
X12461563Y-12568436D01*
X12461563Y-12568436D02*
X12452039Y-12549388D01*
X12452039Y-12549388D02*
X12442515Y-12511293D01*
X12442515Y-12511293D02*
X12442515Y-12463674D01*
X12442515Y-12463674D02*
X12452039Y-12425579D01*
X12452039Y-12425579D02*
X12461563Y-12406531D01*
X12461563Y-12406531D02*
X12471086Y-12397008D01*
X12471086Y-12397008D02*
X12490134Y-12387484D01*
X12642515Y-12568436D02*
X12652039Y-12577960D01*
X12652039Y-12577960D02*
X12642515Y-12587484D01*
X12642515Y-12587484D02*
X12632991Y-12577960D01*
X12632991Y-12577960D02*
X12642515Y-12568436D01*
X12642515Y-12568436D02*
X12642515Y-12587484D01*
X12775848Y-12387484D02*
X12794896Y-12387484D01*
X12794896Y-12387484D02*
X12813944Y-12397008D01*
X12813944Y-12397008D02*
X12823467Y-12406531D01*
X12823467Y-12406531D02*
X12832991Y-12425579D01*
X12832991Y-12425579D02*
X12842515Y-12463674D01*
X12842515Y-12463674D02*
X12842515Y-12511293D01*
X12842515Y-12511293D02*
X12832991Y-12549388D01*
X12832991Y-12549388D02*
X12823467Y-12568436D01*
X12823467Y-12568436D02*
X12813944Y-12577960D01*
X12813944Y-12577960D02*
X12794896Y-12587484D01*
X12794896Y-12587484D02*
X12775848Y-12587484D01*
X12775848Y-12587484D02*
X12756801Y-12577960D01*
X12756801Y-12577960D02*
X12747277Y-12568436D01*
X12747277Y-12568436D02*
X12737753Y-12549388D01*
X12737753Y-12549388D02*
X12728229Y-12511293D01*
X12728229Y-12511293D02*
X12728229Y-12463674D01*
X12728229Y-12463674D02*
X12737753Y-12425579D01*
X12737753Y-12425579D02*
X12747277Y-12406531D01*
X12747277Y-12406531D02*
X12756801Y-12397008D01*
X12756801Y-12397008D02*
X12775848Y-12387484D01*
X12909182Y-12387484D02*
X13032991Y-12387484D01*
X13032991Y-12387484D02*
X12966325Y-12463674D01*
X12966325Y-12463674D02*
X12994896Y-12463674D01*
X12994896Y-12463674D02*
X13013944Y-12473198D01*
X13013944Y-12473198D02*
X13023467Y-12482722D01*
X13023467Y-12482722D02*
X13032991Y-12501769D01*
X13032991Y-12501769D02*
X13032991Y-12549388D01*
X13032991Y-12549388D02*
X13023467Y-12568436D01*
X13023467Y-12568436D02*
X13013944Y-12577960D01*
X13013944Y-12577960D02*
X12994896Y-12587484D01*
X12994896Y-12587484D02*
X12937753Y-12587484D01*
X12937753Y-12587484D02*
X12918706Y-12577960D01*
X12918706Y-12577960D02*
X12909182Y-12568436D01*
X13128229Y-12587484D02*
X13166325Y-12587484D01*
X13166325Y-12587484D02*
X13185372Y-12577960D01*
X13185372Y-12577960D02*
X13194896Y-12568436D01*
X13194896Y-12568436D02*
X13213944Y-12539865D01*
X13213944Y-12539865D02*
X13223467Y-12501769D01*
X13223467Y-12501769D02*
X13223467Y-12425579D01*
X13223467Y-12425579D02*
X13213944Y-12406531D01*
X13213944Y-12406531D02*
X13204420Y-12397008D01*
X13204420Y-12397008D02*
X13185372Y-12387484D01*
X13185372Y-12387484D02*
X13147277Y-12387484D01*
X13147277Y-12387484D02*
X13128229Y-12397008D01*
X13128229Y-12397008D02*
X13118706Y-12406531D01*
X13118706Y-12406531D02*
X13109182Y-12425579D01*
X13109182Y-12425579D02*
X13109182Y-12473198D01*
X13109182Y-12473198D02*
X13118706Y-12492246D01*
X13118706Y-12492246D02*
X13128229Y-12501769D01*
X13128229Y-12501769D02*
X13147277Y-12511293D01*
X13147277Y-12511293D02*
X13185372Y-12511293D01*
X13185372Y-12511293D02*
X13204420Y-12501769D01*
X13204420Y-12501769D02*
X13213944Y-12492246D01*
X13213944Y-12492246D02*
X13223467Y-12473198D01*
X13394896Y-12454150D02*
X13394896Y-12587484D01*
X13347277Y-12377960D02*
X13299658Y-12520817D01*
X13299658Y-12520817D02*
X13423467Y-12520817D01*
X13490134Y-12387484D02*
X13490134Y-12425579D01*
X13566325Y-12387484D02*
X13566325Y-12425579D01*
X13861563Y-12663674D02*
X13852039Y-12654150D01*
X13852039Y-12654150D02*
X13832991Y-12625579D01*
X13832991Y-12625579D02*
X13823468Y-12606531D01*
X13823468Y-12606531D02*
X13813944Y-12577960D01*
X13813944Y-12577960D02*
X13804420Y-12530341D01*
X13804420Y-12530341D02*
X13804420Y-12492246D01*
X13804420Y-12492246D02*
X13813944Y-12444627D01*
X13813944Y-12444627D02*
X13823468Y-12416055D01*
X13823468Y-12416055D02*
X13832991Y-12397008D01*
X13832991Y-12397008D02*
X13852039Y-12368436D01*
X13852039Y-12368436D02*
X13861563Y-12358912D01*
X14023468Y-12454150D02*
X14023468Y-12587484D01*
X13975848Y-12377960D02*
X13928229Y-12520817D01*
X13928229Y-12520817D02*
X14052039Y-12520817D01*
X14156801Y-12473198D02*
X14137753Y-12463674D01*
X14137753Y-12463674D02*
X14128229Y-12454150D01*
X14128229Y-12454150D02*
X14118706Y-12435103D01*
X14118706Y-12435103D02*
X14118706Y-12425579D01*
X14118706Y-12425579D02*
X14128229Y-12406531D01*
X14128229Y-12406531D02*
X14137753Y-12397008D01*
X14137753Y-12397008D02*
X14156801Y-12387484D01*
X14156801Y-12387484D02*
X14194896Y-12387484D01*
X14194896Y-12387484D02*
X14213944Y-12397008D01*
X14213944Y-12397008D02*
X14223468Y-12406531D01*
X14223468Y-12406531D02*
X14232991Y-12425579D01*
X14232991Y-12425579D02*
X14232991Y-12435103D01*
X14232991Y-12435103D02*
X14223468Y-12454150D01*
X14223468Y-12454150D02*
X14213944Y-12463674D01*
X14213944Y-12463674D02*
X14194896Y-12473198D01*
X14194896Y-12473198D02*
X14156801Y-12473198D01*
X14156801Y-12473198D02*
X14137753Y-12482722D01*
X14137753Y-12482722D02*
X14128229Y-12492246D01*
X14128229Y-12492246D02*
X14118706Y-12511293D01*
X14118706Y-12511293D02*
X14118706Y-12549388D01*
X14118706Y-12549388D02*
X14128229Y-12568436D01*
X14128229Y-12568436D02*
X14137753Y-12577960D01*
X14137753Y-12577960D02*
X14156801Y-12587484D01*
X14156801Y-12587484D02*
X14194896Y-12587484D01*
X14194896Y-12587484D02*
X14213944Y-12577960D01*
X14213944Y-12577960D02*
X14223468Y-12568436D01*
X14223468Y-12568436D02*
X14232991Y-12549388D01*
X14232991Y-12549388D02*
X14232991Y-12511293D01*
X14232991Y-12511293D02*
X14223468Y-12492246D01*
X14223468Y-12492246D02*
X14213944Y-12482722D01*
X14213944Y-12482722D02*
X14194896Y-12473198D01*
X14471087Y-12587484D02*
X14471087Y-12387484D01*
X14556801Y-12587484D02*
X14556801Y-12482722D01*
X14556801Y-12482722D02*
X14547277Y-12463674D01*
X14547277Y-12463674D02*
X14528230Y-12454150D01*
X14528230Y-12454150D02*
X14499658Y-12454150D01*
X14499658Y-12454150D02*
X14480610Y-12463674D01*
X14480610Y-12463674D02*
X14471087Y-12473198D01*
X14680610Y-12587484D02*
X14661563Y-12577960D01*
X14661563Y-12577960D02*
X14652039Y-12568436D01*
X14652039Y-12568436D02*
X14642515Y-12549388D01*
X14642515Y-12549388D02*
X14642515Y-12492246D01*
X14642515Y-12492246D02*
X14652039Y-12473198D01*
X14652039Y-12473198D02*
X14661563Y-12463674D01*
X14661563Y-12463674D02*
X14680610Y-12454150D01*
X14680610Y-12454150D02*
X14709182Y-12454150D01*
X14709182Y-12454150D02*
X14728230Y-12463674D01*
X14728230Y-12463674D02*
X14737753Y-12473198D01*
X14737753Y-12473198D02*
X14747277Y-12492246D01*
X14747277Y-12492246D02*
X14747277Y-12549388D01*
X14747277Y-12549388D02*
X14737753Y-12568436D01*
X14737753Y-12568436D02*
X14728230Y-12577960D01*
X14728230Y-12577960D02*
X14709182Y-12587484D01*
X14709182Y-12587484D02*
X14680610Y-12587484D01*
X14861563Y-12587484D02*
X14842515Y-12577960D01*
X14842515Y-12577960D02*
X14832991Y-12558912D01*
X14832991Y-12558912D02*
X14832991Y-12387484D01*
X15013944Y-12577960D02*
X14994896Y-12587484D01*
X14994896Y-12587484D02*
X14956801Y-12587484D01*
X14956801Y-12587484D02*
X14937753Y-12577960D01*
X14937753Y-12577960D02*
X14928230Y-12558912D01*
X14928230Y-12558912D02*
X14928230Y-12482722D01*
X14928230Y-12482722D02*
X14937753Y-12463674D01*
X14937753Y-12463674D02*
X14956801Y-12454150D01*
X14956801Y-12454150D02*
X14994896Y-12454150D01*
X14994896Y-12454150D02*
X15013944Y-12463674D01*
X15013944Y-12463674D02*
X15023468Y-12482722D01*
X15023468Y-12482722D02*
X15023468Y-12501769D01*
X15023468Y-12501769D02*
X14928230Y-12520817D01*
X15099658Y-12577960D02*
X15118706Y-12587484D01*
X15118706Y-12587484D02*
X15156801Y-12587484D01*
X15156801Y-12587484D02*
X15175849Y-12577960D01*
X15175849Y-12577960D02*
X15185372Y-12558912D01*
X15185372Y-12558912D02*
X15185372Y-12549388D01*
X15185372Y-12549388D02*
X15175849Y-12530341D01*
X15175849Y-12530341D02*
X15156801Y-12520817D01*
X15156801Y-12520817D02*
X15128230Y-12520817D01*
X15128230Y-12520817D02*
X15109182Y-12511293D01*
X15109182Y-12511293D02*
X15099658Y-12492246D01*
X15099658Y-12492246D02*
X15099658Y-12482722D01*
X15099658Y-12482722D02*
X15109182Y-12463674D01*
X15109182Y-12463674D02*
X15128230Y-12454150D01*
X15128230Y-12454150D02*
X15156801Y-12454150D01*
X15156801Y-12454150D02*
X15175849Y-12463674D01*
X15252039Y-12663674D02*
X15261563Y-12654150D01*
X15261563Y-12654150D02*
X15280611Y-12625579D01*
X15280611Y-12625579D02*
X15290134Y-12606531D01*
X15290134Y-12606531D02*
X15299658Y-12577960D01*
X15299658Y-12577960D02*
X15309182Y-12530341D01*
X15309182Y-12530341D02*
X15309182Y-12492246D01*
X15309182Y-12492246D02*
X15299658Y-12444627D01*
X15299658Y-12444627D02*
X15290134Y-12416055D01*
X15290134Y-12416055D02*
X15280611Y-12397008D01*
X15280611Y-12397008D02*
X15261563Y-12368436D01*
X15261563Y-12368436D02*
X15252039Y-12358912D01*
D12*
X10264241Y-12813741D02*
X10264241Y-12706259D01*
X10156759Y-12706259D01*
X10156759Y-12813741D01*
X10264241Y-12813741D01*
D11*
X10652039Y-12851484D02*
X10537753Y-12851484D01*
X10594896Y-12851484D02*
X10594896Y-12651484D01*
X10594896Y-12651484D02*
X10575848Y-12680055D01*
X10575848Y-12680055D02*
X10556801Y-12699103D01*
X10556801Y-12699103D02*
X10537753Y-12708627D01*
X10737753Y-12832436D02*
X10747277Y-12841960D01*
X10747277Y-12841960D02*
X10737753Y-12851484D01*
X10737753Y-12851484D02*
X10728229Y-12841960D01*
X10728229Y-12841960D02*
X10737753Y-12832436D01*
X10737753Y-12832436D02*
X10737753Y-12851484D01*
X10928229Y-12651484D02*
X10832991Y-12651484D01*
X10832991Y-12651484D02*
X10823467Y-12746722D01*
X10823467Y-12746722D02*
X10832991Y-12737198D01*
X10832991Y-12737198D02*
X10852039Y-12727674D01*
X10852039Y-12727674D02*
X10899658Y-12727674D01*
X10899658Y-12727674D02*
X10918705Y-12737198D01*
X10918705Y-12737198D02*
X10928229Y-12746722D01*
X10928229Y-12746722D02*
X10937753Y-12765769D01*
X10937753Y-12765769D02*
X10937753Y-12813388D01*
X10937753Y-12813388D02*
X10928229Y-12832436D01*
X10928229Y-12832436D02*
X10918705Y-12841960D01*
X10918705Y-12841960D02*
X10899658Y-12851484D01*
X10899658Y-12851484D02*
X10852039Y-12851484D01*
X10852039Y-12851484D02*
X10832991Y-12841960D01*
X10832991Y-12841960D02*
X10823467Y-12832436D01*
X11013944Y-12670531D02*
X11023467Y-12661008D01*
X11023467Y-12661008D02*
X11042515Y-12651484D01*
X11042515Y-12651484D02*
X11090134Y-12651484D01*
X11090134Y-12651484D02*
X11109182Y-12661008D01*
X11109182Y-12661008D02*
X11118705Y-12670531D01*
X11118705Y-12670531D02*
X11128229Y-12689579D01*
X11128229Y-12689579D02*
X11128229Y-12708627D01*
X11128229Y-12708627D02*
X11118705Y-12737198D01*
X11118705Y-12737198D02*
X11004420Y-12851484D01*
X11004420Y-12851484D02*
X11128229Y-12851484D01*
X11252039Y-12651484D02*
X11271086Y-12651484D01*
X11271086Y-12651484D02*
X11290134Y-12661008D01*
X11290134Y-12661008D02*
X11299658Y-12670531D01*
X11299658Y-12670531D02*
X11309182Y-12689579D01*
X11309182Y-12689579D02*
X11318705Y-12727674D01*
X11318705Y-12727674D02*
X11318705Y-12775293D01*
X11318705Y-12775293D02*
X11309182Y-12813388D01*
X11309182Y-12813388D02*
X11299658Y-12832436D01*
X11299658Y-12832436D02*
X11290134Y-12841960D01*
X11290134Y-12841960D02*
X11271086Y-12851484D01*
X11271086Y-12851484D02*
X11252039Y-12851484D01*
X11252039Y-12851484D02*
X11232991Y-12841960D01*
X11232991Y-12841960D02*
X11223467Y-12832436D01*
X11223467Y-12832436D02*
X11213943Y-12813388D01*
X11213943Y-12813388D02*
X11204420Y-12775293D01*
X11204420Y-12775293D02*
X11204420Y-12727674D01*
X11204420Y-12727674D02*
X11213943Y-12689579D01*
X11213943Y-12689579D02*
X11223467Y-12670531D01*
X11223467Y-12670531D02*
X11232991Y-12661008D01*
X11232991Y-12661008D02*
X11252039Y-12651484D01*
X11404420Y-12851484D02*
X11404420Y-12718150D01*
X11404420Y-12737198D02*
X11413943Y-12727674D01*
X11413943Y-12727674D02*
X11432991Y-12718150D01*
X11432991Y-12718150D02*
X11461563Y-12718150D01*
X11461563Y-12718150D02*
X11480610Y-12727674D01*
X11480610Y-12727674D02*
X11490134Y-12746722D01*
X11490134Y-12746722D02*
X11490134Y-12851484D01*
X11490134Y-12746722D02*
X11499658Y-12727674D01*
X11499658Y-12727674D02*
X11518705Y-12718150D01*
X11518705Y-12718150D02*
X11547277Y-12718150D01*
X11547277Y-12718150D02*
X11566324Y-12727674D01*
X11566324Y-12727674D02*
X11575848Y-12746722D01*
X11575848Y-12746722D02*
X11575848Y-12851484D01*
X11671086Y-12851484D02*
X11671086Y-12718150D01*
X11671086Y-12737198D02*
X11680610Y-12727674D01*
X11680610Y-12727674D02*
X11699658Y-12718150D01*
X11699658Y-12718150D02*
X11728229Y-12718150D01*
X11728229Y-12718150D02*
X11747277Y-12727674D01*
X11747277Y-12727674D02*
X11756801Y-12746722D01*
X11756801Y-12746722D02*
X11756801Y-12851484D01*
X11756801Y-12746722D02*
X11766324Y-12727674D01*
X11766324Y-12727674D02*
X11785372Y-12718150D01*
X11785372Y-12718150D02*
X11813943Y-12718150D01*
X11813943Y-12718150D02*
X11832991Y-12727674D01*
X11832991Y-12727674D02*
X11842515Y-12746722D01*
X11842515Y-12746722D02*
X11842515Y-12851484D01*
X12232991Y-12641960D02*
X12061563Y-12899103D01*
X12490134Y-12651484D02*
X12509182Y-12651484D01*
X12509182Y-12651484D02*
X12528229Y-12661008D01*
X12528229Y-12661008D02*
X12537753Y-12670531D01*
X12537753Y-12670531D02*
X12547277Y-12689579D01*
X12547277Y-12689579D02*
X12556801Y-12727674D01*
X12556801Y-12727674D02*
X12556801Y-12775293D01*
X12556801Y-12775293D02*
X12547277Y-12813388D01*
X12547277Y-12813388D02*
X12537753Y-12832436D01*
X12537753Y-12832436D02*
X12528229Y-12841960D01*
X12528229Y-12841960D02*
X12509182Y-12851484D01*
X12509182Y-12851484D02*
X12490134Y-12851484D01*
X12490134Y-12851484D02*
X12471086Y-12841960D01*
X12471086Y-12841960D02*
X12461563Y-12832436D01*
X12461563Y-12832436D02*
X12452039Y-12813388D01*
X12452039Y-12813388D02*
X12442515Y-12775293D01*
X12442515Y-12775293D02*
X12442515Y-12727674D01*
X12442515Y-12727674D02*
X12452039Y-12689579D01*
X12452039Y-12689579D02*
X12461563Y-12670531D01*
X12461563Y-12670531D02*
X12471086Y-12661008D01*
X12471086Y-12661008D02*
X12490134Y-12651484D01*
X12642515Y-12832436D02*
X12652039Y-12841960D01*
X12652039Y-12841960D02*
X12642515Y-12851484D01*
X12642515Y-12851484D02*
X12632991Y-12841960D01*
X12632991Y-12841960D02*
X12642515Y-12832436D01*
X12642515Y-12832436D02*
X12642515Y-12851484D01*
X12775848Y-12651484D02*
X12794896Y-12651484D01*
X12794896Y-12651484D02*
X12813944Y-12661008D01*
X12813944Y-12661008D02*
X12823467Y-12670531D01*
X12823467Y-12670531D02*
X12832991Y-12689579D01*
X12832991Y-12689579D02*
X12842515Y-12727674D01*
X12842515Y-12727674D02*
X12842515Y-12775293D01*
X12842515Y-12775293D02*
X12832991Y-12813388D01*
X12832991Y-12813388D02*
X12823467Y-12832436D01*
X12823467Y-12832436D02*
X12813944Y-12841960D01*
X12813944Y-12841960D02*
X12794896Y-12851484D01*
X12794896Y-12851484D02*
X12775848Y-12851484D01*
X12775848Y-12851484D02*
X12756801Y-12841960D01*
X12756801Y-12841960D02*
X12747277Y-12832436D01*
X12747277Y-12832436D02*
X12737753Y-12813388D01*
X12737753Y-12813388D02*
X12728229Y-12775293D01*
X12728229Y-12775293D02*
X12728229Y-12727674D01*
X12728229Y-12727674D02*
X12737753Y-12689579D01*
X12737753Y-12689579D02*
X12747277Y-12670531D01*
X12747277Y-12670531D02*
X12756801Y-12661008D01*
X12756801Y-12661008D02*
X12775848Y-12651484D01*
X13023467Y-12651484D02*
X12928229Y-12651484D01*
X12928229Y-12651484D02*
X12918706Y-12746722D01*
X12918706Y-12746722D02*
X12928229Y-12737198D01*
X12928229Y-12737198D02*
X12947277Y-12727674D01*
X12947277Y-12727674D02*
X12994896Y-12727674D01*
X12994896Y-12727674D02*
X13013944Y-12737198D01*
X13013944Y-12737198D02*
X13023467Y-12746722D01*
X13023467Y-12746722D02*
X13032991Y-12765769D01*
X13032991Y-12765769D02*
X13032991Y-12813388D01*
X13032991Y-12813388D02*
X13023467Y-12832436D01*
X13023467Y-12832436D02*
X13013944Y-12841960D01*
X13013944Y-12841960D02*
X12994896Y-12851484D01*
X12994896Y-12851484D02*
X12947277Y-12851484D01*
X12947277Y-12851484D02*
X12928229Y-12841960D01*
X12928229Y-12841960D02*
X12918706Y-12832436D01*
X13128229Y-12851484D02*
X13166325Y-12851484D01*
X13166325Y-12851484D02*
X13185372Y-12841960D01*
X13185372Y-12841960D02*
X13194896Y-12832436D01*
X13194896Y-12832436D02*
X13213944Y-12803865D01*
X13213944Y-12803865D02*
X13223467Y-12765769D01*
X13223467Y-12765769D02*
X13223467Y-12689579D01*
X13223467Y-12689579D02*
X13213944Y-12670531D01*
X13213944Y-12670531D02*
X13204420Y-12661008D01*
X13204420Y-12661008D02*
X13185372Y-12651484D01*
X13185372Y-12651484D02*
X13147277Y-12651484D01*
X13147277Y-12651484D02*
X13128229Y-12661008D01*
X13128229Y-12661008D02*
X13118706Y-12670531D01*
X13118706Y-12670531D02*
X13109182Y-12689579D01*
X13109182Y-12689579D02*
X13109182Y-12737198D01*
X13109182Y-12737198D02*
X13118706Y-12756246D01*
X13118706Y-12756246D02*
X13128229Y-12765769D01*
X13128229Y-12765769D02*
X13147277Y-12775293D01*
X13147277Y-12775293D02*
X13185372Y-12775293D01*
X13185372Y-12775293D02*
X13204420Y-12765769D01*
X13204420Y-12765769D02*
X13213944Y-12756246D01*
X13213944Y-12756246D02*
X13223467Y-12737198D01*
X13337753Y-12737198D02*
X13318706Y-12727674D01*
X13318706Y-12727674D02*
X13309182Y-12718150D01*
X13309182Y-12718150D02*
X13299658Y-12699103D01*
X13299658Y-12699103D02*
X13299658Y-12689579D01*
X13299658Y-12689579D02*
X13309182Y-12670531D01*
X13309182Y-12670531D02*
X13318706Y-12661008D01*
X13318706Y-12661008D02*
X13337753Y-12651484D01*
X13337753Y-12651484D02*
X13375848Y-12651484D01*
X13375848Y-12651484D02*
X13394896Y-12661008D01*
X13394896Y-12661008D02*
X13404420Y-12670531D01*
X13404420Y-12670531D02*
X13413944Y-12689579D01*
X13413944Y-12689579D02*
X13413944Y-12699103D01*
X13413944Y-12699103D02*
X13404420Y-12718150D01*
X13404420Y-12718150D02*
X13394896Y-12727674D01*
X13394896Y-12727674D02*
X13375848Y-12737198D01*
X13375848Y-12737198D02*
X13337753Y-12737198D01*
X13337753Y-12737198D02*
X13318706Y-12746722D01*
X13318706Y-12746722D02*
X13309182Y-12756246D01*
X13309182Y-12756246D02*
X13299658Y-12775293D01*
X13299658Y-12775293D02*
X13299658Y-12813388D01*
X13299658Y-12813388D02*
X13309182Y-12832436D01*
X13309182Y-12832436D02*
X13318706Y-12841960D01*
X13318706Y-12841960D02*
X13337753Y-12851484D01*
X13337753Y-12851484D02*
X13375848Y-12851484D01*
X13375848Y-12851484D02*
X13394896Y-12841960D01*
X13394896Y-12841960D02*
X13404420Y-12832436D01*
X13404420Y-12832436D02*
X13413944Y-12813388D01*
X13413944Y-12813388D02*
X13413944Y-12775293D01*
X13413944Y-12775293D02*
X13404420Y-12756246D01*
X13404420Y-12756246D02*
X13394896Y-12746722D01*
X13394896Y-12746722D02*
X13375848Y-12737198D01*
X13490134Y-12651484D02*
X13490134Y-12689579D01*
X13566325Y-12651484D02*
X13566325Y-12689579D01*
X13861563Y-12927674D02*
X13852039Y-12918150D01*
X13852039Y-12918150D02*
X13832991Y-12889579D01*
X13832991Y-12889579D02*
X13823468Y-12870531D01*
X13823468Y-12870531D02*
X13813944Y-12841960D01*
X13813944Y-12841960D02*
X13804420Y-12794341D01*
X13804420Y-12794341D02*
X13804420Y-12756246D01*
X13804420Y-12756246D02*
X13813944Y-12708627D01*
X13813944Y-12708627D02*
X13823468Y-12680055D01*
X13823468Y-12680055D02*
X13832991Y-12661008D01*
X13832991Y-12661008D02*
X13852039Y-12632436D01*
X13852039Y-12632436D02*
X13861563Y-12622912D01*
X13928229Y-12670531D02*
X13937753Y-12661008D01*
X13937753Y-12661008D02*
X13956801Y-12651484D01*
X13956801Y-12651484D02*
X14004420Y-12651484D01*
X14004420Y-12651484D02*
X14023468Y-12661008D01*
X14023468Y-12661008D02*
X14032991Y-12670531D01*
X14032991Y-12670531D02*
X14042515Y-12689579D01*
X14042515Y-12689579D02*
X14042515Y-12708627D01*
X14042515Y-12708627D02*
X14032991Y-12737198D01*
X14032991Y-12737198D02*
X13918706Y-12851484D01*
X13918706Y-12851484D02*
X14042515Y-12851484D01*
X14280610Y-12851484D02*
X14280610Y-12651484D01*
X14366325Y-12851484D02*
X14366325Y-12746722D01*
X14366325Y-12746722D02*
X14356801Y-12727674D01*
X14356801Y-12727674D02*
X14337753Y-12718150D01*
X14337753Y-12718150D02*
X14309182Y-12718150D01*
X14309182Y-12718150D02*
X14290134Y-12727674D01*
X14290134Y-12727674D02*
X14280610Y-12737198D01*
X14490134Y-12851484D02*
X14471087Y-12841960D01*
X14471087Y-12841960D02*
X14461563Y-12832436D01*
X14461563Y-12832436D02*
X14452039Y-12813388D01*
X14452039Y-12813388D02*
X14452039Y-12756246D01*
X14452039Y-12756246D02*
X14461563Y-12737198D01*
X14461563Y-12737198D02*
X14471087Y-12727674D01*
X14471087Y-12727674D02*
X14490134Y-12718150D01*
X14490134Y-12718150D02*
X14518706Y-12718150D01*
X14518706Y-12718150D02*
X14537753Y-12727674D01*
X14537753Y-12727674D02*
X14547277Y-12737198D01*
X14547277Y-12737198D02*
X14556801Y-12756246D01*
X14556801Y-12756246D02*
X14556801Y-12813388D01*
X14556801Y-12813388D02*
X14547277Y-12832436D01*
X14547277Y-12832436D02*
X14537753Y-12841960D01*
X14537753Y-12841960D02*
X14518706Y-12851484D01*
X14518706Y-12851484D02*
X14490134Y-12851484D01*
X14671087Y-12851484D02*
X14652039Y-12841960D01*
X14652039Y-12841960D02*
X14642515Y-12822912D01*
X14642515Y-12822912D02*
X14642515Y-12651484D01*
X14823468Y-12841960D02*
X14804420Y-12851484D01*
X14804420Y-12851484D02*
X14766325Y-12851484D01*
X14766325Y-12851484D02*
X14747277Y-12841960D01*
X14747277Y-12841960D02*
X14737753Y-12822912D01*
X14737753Y-12822912D02*
X14737753Y-12746722D01*
X14737753Y-12746722D02*
X14747277Y-12727674D01*
X14747277Y-12727674D02*
X14766325Y-12718150D01*
X14766325Y-12718150D02*
X14804420Y-12718150D01*
X14804420Y-12718150D02*
X14823468Y-12727674D01*
X14823468Y-12727674D02*
X14832991Y-12746722D01*
X14832991Y-12746722D02*
X14832991Y-12765769D01*
X14832991Y-12765769D02*
X14737753Y-12784817D01*
X14909182Y-12841960D02*
X14928230Y-12851484D01*
X14928230Y-12851484D02*
X14966325Y-12851484D01*
X14966325Y-12851484D02*
X14985372Y-12841960D01*
X14985372Y-12841960D02*
X14994896Y-12822912D01*
X14994896Y-12822912D02*
X14994896Y-12813388D01*
X14994896Y-12813388D02*
X14985372Y-12794341D01*
X14985372Y-12794341D02*
X14966325Y-12784817D01*
X14966325Y-12784817D02*
X14937753Y-12784817D01*
X14937753Y-12784817D02*
X14918706Y-12775293D01*
X14918706Y-12775293D02*
X14909182Y-12756246D01*
X14909182Y-12756246D02*
X14909182Y-12746722D01*
X14909182Y-12746722D02*
X14918706Y-12727674D01*
X14918706Y-12727674D02*
X14937753Y-12718150D01*
X14937753Y-12718150D02*
X14966325Y-12718150D01*
X14966325Y-12718150D02*
X14985372Y-12727674D01*
X15061563Y-12927674D02*
X15071087Y-12918150D01*
X15071087Y-12918150D02*
X15090134Y-12889579D01*
X15090134Y-12889579D02*
X15099658Y-12870531D01*
X15099658Y-12870531D02*
X15109182Y-12841960D01*
X15109182Y-12841960D02*
X15118706Y-12794341D01*
X15118706Y-12794341D02*
X15118706Y-12756246D01*
X15118706Y-12756246D02*
X15109182Y-12708627D01*
X15109182Y-12708627D02*
X15099658Y-12680055D01*
X15099658Y-12680055D02*
X15090134Y-12661008D01*
X15090134Y-12661008D02*
X15071087Y-12632436D01*
X15071087Y-12632436D02*
X15061563Y-12622912D01*
X10186500Y-13132000D02*
X10286500Y-13032000D01*
X10186500Y-12932000D01*
X10086500Y-13032000D01*
X10186500Y-13132000D01*
X10528229Y-12923484D02*
X10652039Y-12923484D01*
X10652039Y-12923484D02*
X10585372Y-12999674D01*
X10585372Y-12999674D02*
X10613944Y-12999674D01*
X10613944Y-12999674D02*
X10632991Y-13009198D01*
X10632991Y-13009198D02*
X10642515Y-13018722D01*
X10642515Y-13018722D02*
X10652039Y-13037769D01*
X10652039Y-13037769D02*
X10652039Y-13085388D01*
X10652039Y-13085388D02*
X10642515Y-13104436D01*
X10642515Y-13104436D02*
X10632991Y-13113960D01*
X10632991Y-13113960D02*
X10613944Y-13123484D01*
X10613944Y-13123484D02*
X10556801Y-13123484D01*
X10556801Y-13123484D02*
X10537753Y-13113960D01*
X10537753Y-13113960D02*
X10528229Y-13104436D01*
X10737753Y-13104436D02*
X10747277Y-13113960D01*
X10747277Y-13113960D02*
X10737753Y-13123484D01*
X10737753Y-13123484D02*
X10728229Y-13113960D01*
X10728229Y-13113960D02*
X10737753Y-13104436D01*
X10737753Y-13104436D02*
X10737753Y-13123484D01*
X10823467Y-12942531D02*
X10832991Y-12933008D01*
X10832991Y-12933008D02*
X10852039Y-12923484D01*
X10852039Y-12923484D02*
X10899658Y-12923484D01*
X10899658Y-12923484D02*
X10918705Y-12933008D01*
X10918705Y-12933008D02*
X10928229Y-12942531D01*
X10928229Y-12942531D02*
X10937753Y-12961579D01*
X10937753Y-12961579D02*
X10937753Y-12980627D01*
X10937753Y-12980627D02*
X10928229Y-13009198D01*
X10928229Y-13009198D02*
X10813944Y-13123484D01*
X10813944Y-13123484D02*
X10937753Y-13123484D01*
X11061563Y-12923484D02*
X11080610Y-12923484D01*
X11080610Y-12923484D02*
X11099658Y-12933008D01*
X11099658Y-12933008D02*
X11109182Y-12942531D01*
X11109182Y-12942531D02*
X11118705Y-12961579D01*
X11118705Y-12961579D02*
X11128229Y-12999674D01*
X11128229Y-12999674D02*
X11128229Y-13047293D01*
X11128229Y-13047293D02*
X11118705Y-13085388D01*
X11118705Y-13085388D02*
X11109182Y-13104436D01*
X11109182Y-13104436D02*
X11099658Y-13113960D01*
X11099658Y-13113960D02*
X11080610Y-13123484D01*
X11080610Y-13123484D02*
X11061563Y-13123484D01*
X11061563Y-13123484D02*
X11042515Y-13113960D01*
X11042515Y-13113960D02*
X11032991Y-13104436D01*
X11032991Y-13104436D02*
X11023467Y-13085388D01*
X11023467Y-13085388D02*
X11013944Y-13047293D01*
X11013944Y-13047293D02*
X11013944Y-12999674D01*
X11013944Y-12999674D02*
X11023467Y-12961579D01*
X11023467Y-12961579D02*
X11032991Y-12942531D01*
X11032991Y-12942531D02*
X11042515Y-12933008D01*
X11042515Y-12933008D02*
X11061563Y-12923484D01*
X11252039Y-12923484D02*
X11271086Y-12923484D01*
X11271086Y-12923484D02*
X11290134Y-12933008D01*
X11290134Y-12933008D02*
X11299658Y-12942531D01*
X11299658Y-12942531D02*
X11309182Y-12961579D01*
X11309182Y-12961579D02*
X11318705Y-12999674D01*
X11318705Y-12999674D02*
X11318705Y-13047293D01*
X11318705Y-13047293D02*
X11309182Y-13085388D01*
X11309182Y-13085388D02*
X11299658Y-13104436D01*
X11299658Y-13104436D02*
X11290134Y-13113960D01*
X11290134Y-13113960D02*
X11271086Y-13123484D01*
X11271086Y-13123484D02*
X11252039Y-13123484D01*
X11252039Y-13123484D02*
X11232991Y-13113960D01*
X11232991Y-13113960D02*
X11223467Y-13104436D01*
X11223467Y-13104436D02*
X11213943Y-13085388D01*
X11213943Y-13085388D02*
X11204420Y-13047293D01*
X11204420Y-13047293D02*
X11204420Y-12999674D01*
X11204420Y-12999674D02*
X11213943Y-12961579D01*
X11213943Y-12961579D02*
X11223467Y-12942531D01*
X11223467Y-12942531D02*
X11232991Y-12933008D01*
X11232991Y-12933008D02*
X11252039Y-12923484D01*
X11404420Y-13123484D02*
X11404420Y-12990150D01*
X11404420Y-13009198D02*
X11413943Y-12999674D01*
X11413943Y-12999674D02*
X11432991Y-12990150D01*
X11432991Y-12990150D02*
X11461563Y-12990150D01*
X11461563Y-12990150D02*
X11480610Y-12999674D01*
X11480610Y-12999674D02*
X11490134Y-13018722D01*
X11490134Y-13018722D02*
X11490134Y-13123484D01*
X11490134Y-13018722D02*
X11499658Y-12999674D01*
X11499658Y-12999674D02*
X11518705Y-12990150D01*
X11518705Y-12990150D02*
X11547277Y-12990150D01*
X11547277Y-12990150D02*
X11566324Y-12999674D01*
X11566324Y-12999674D02*
X11575848Y-13018722D01*
X11575848Y-13018722D02*
X11575848Y-13123484D01*
X11671086Y-13123484D02*
X11671086Y-12990150D01*
X11671086Y-13009198D02*
X11680610Y-12999674D01*
X11680610Y-12999674D02*
X11699658Y-12990150D01*
X11699658Y-12990150D02*
X11728229Y-12990150D01*
X11728229Y-12990150D02*
X11747277Y-12999674D01*
X11747277Y-12999674D02*
X11756801Y-13018722D01*
X11756801Y-13018722D02*
X11756801Y-13123484D01*
X11756801Y-13018722D02*
X11766324Y-12999674D01*
X11766324Y-12999674D02*
X11785372Y-12990150D01*
X11785372Y-12990150D02*
X11813943Y-12990150D01*
X11813943Y-12990150D02*
X11832991Y-12999674D01*
X11832991Y-12999674D02*
X11842515Y-13018722D01*
X11842515Y-13018722D02*
X11842515Y-13123484D01*
X12232991Y-12913960D02*
X12061563Y-13171103D01*
X12490134Y-12923484D02*
X12509182Y-12923484D01*
X12509182Y-12923484D02*
X12528229Y-12933008D01*
X12528229Y-12933008D02*
X12537753Y-12942531D01*
X12537753Y-12942531D02*
X12547277Y-12961579D01*
X12547277Y-12961579D02*
X12556801Y-12999674D01*
X12556801Y-12999674D02*
X12556801Y-13047293D01*
X12556801Y-13047293D02*
X12547277Y-13085388D01*
X12547277Y-13085388D02*
X12537753Y-13104436D01*
X12537753Y-13104436D02*
X12528229Y-13113960D01*
X12528229Y-13113960D02*
X12509182Y-13123484D01*
X12509182Y-13123484D02*
X12490134Y-13123484D01*
X12490134Y-13123484D02*
X12471086Y-13113960D01*
X12471086Y-13113960D02*
X12461563Y-13104436D01*
X12461563Y-13104436D02*
X12452039Y-13085388D01*
X12452039Y-13085388D02*
X12442515Y-13047293D01*
X12442515Y-13047293D02*
X12442515Y-12999674D01*
X12442515Y-12999674D02*
X12452039Y-12961579D01*
X12452039Y-12961579D02*
X12461563Y-12942531D01*
X12461563Y-12942531D02*
X12471086Y-12933008D01*
X12471086Y-12933008D02*
X12490134Y-12923484D01*
X12642515Y-13104436D02*
X12652039Y-13113960D01*
X12652039Y-13113960D02*
X12642515Y-13123484D01*
X12642515Y-13123484D02*
X12632991Y-13113960D01*
X12632991Y-13113960D02*
X12642515Y-13104436D01*
X12642515Y-13104436D02*
X12642515Y-13123484D01*
X12842515Y-13123484D02*
X12728229Y-13123484D01*
X12785372Y-13123484D02*
X12785372Y-12923484D01*
X12785372Y-12923484D02*
X12766325Y-12952055D01*
X12766325Y-12952055D02*
X12747277Y-12971103D01*
X12747277Y-12971103D02*
X12728229Y-12980627D01*
X12918706Y-12942531D02*
X12928229Y-12933008D01*
X12928229Y-12933008D02*
X12947277Y-12923484D01*
X12947277Y-12923484D02*
X12994896Y-12923484D01*
X12994896Y-12923484D02*
X13013944Y-12933008D01*
X13013944Y-12933008D02*
X13023467Y-12942531D01*
X13023467Y-12942531D02*
X13032991Y-12961579D01*
X13032991Y-12961579D02*
X13032991Y-12980627D01*
X13032991Y-12980627D02*
X13023467Y-13009198D01*
X13023467Y-13009198D02*
X12909182Y-13123484D01*
X12909182Y-13123484D02*
X13032991Y-13123484D01*
X13204420Y-12923484D02*
X13166325Y-12923484D01*
X13166325Y-12923484D02*
X13147277Y-12933008D01*
X13147277Y-12933008D02*
X13137753Y-12942531D01*
X13137753Y-12942531D02*
X13118706Y-12971103D01*
X13118706Y-12971103D02*
X13109182Y-13009198D01*
X13109182Y-13009198D02*
X13109182Y-13085388D01*
X13109182Y-13085388D02*
X13118706Y-13104436D01*
X13118706Y-13104436D02*
X13128229Y-13113960D01*
X13128229Y-13113960D02*
X13147277Y-13123484D01*
X13147277Y-13123484D02*
X13185372Y-13123484D01*
X13185372Y-13123484D02*
X13204420Y-13113960D01*
X13204420Y-13113960D02*
X13213944Y-13104436D01*
X13213944Y-13104436D02*
X13223467Y-13085388D01*
X13223467Y-13085388D02*
X13223467Y-13037769D01*
X13223467Y-13037769D02*
X13213944Y-13018722D01*
X13213944Y-13018722D02*
X13204420Y-13009198D01*
X13204420Y-13009198D02*
X13185372Y-12999674D01*
X13185372Y-12999674D02*
X13147277Y-12999674D01*
X13147277Y-12999674D02*
X13128229Y-13009198D01*
X13128229Y-13009198D02*
X13118706Y-13018722D01*
X13118706Y-13018722D02*
X13109182Y-13037769D01*
X13347277Y-12923484D02*
X13366325Y-12923484D01*
X13366325Y-12923484D02*
X13385372Y-12933008D01*
X13385372Y-12933008D02*
X13394896Y-12942531D01*
X13394896Y-12942531D02*
X13404420Y-12961579D01*
X13404420Y-12961579D02*
X13413944Y-12999674D01*
X13413944Y-12999674D02*
X13413944Y-13047293D01*
X13413944Y-13047293D02*
X13404420Y-13085388D01*
X13404420Y-13085388D02*
X13394896Y-13104436D01*
X13394896Y-13104436D02*
X13385372Y-13113960D01*
X13385372Y-13113960D02*
X13366325Y-13123484D01*
X13366325Y-13123484D02*
X13347277Y-13123484D01*
X13347277Y-13123484D02*
X13328229Y-13113960D01*
X13328229Y-13113960D02*
X13318706Y-13104436D01*
X13318706Y-13104436D02*
X13309182Y-13085388D01*
X13309182Y-13085388D02*
X13299658Y-13047293D01*
X13299658Y-13047293D02*
X13299658Y-12999674D01*
X13299658Y-12999674D02*
X13309182Y-12961579D01*
X13309182Y-12961579D02*
X13318706Y-12942531D01*
X13318706Y-12942531D02*
X13328229Y-12933008D01*
X13328229Y-12933008D02*
X13347277Y-12923484D01*
X13490134Y-12923484D02*
X13490134Y-12961579D01*
X13566325Y-12923484D02*
X13566325Y-12961579D01*
X13861563Y-13199674D02*
X13852039Y-13190150D01*
X13852039Y-13190150D02*
X13832991Y-13161579D01*
X13832991Y-13161579D02*
X13823468Y-13142531D01*
X13823468Y-13142531D02*
X13813944Y-13113960D01*
X13813944Y-13113960D02*
X13804420Y-13066341D01*
X13804420Y-13066341D02*
X13804420Y-13028246D01*
X13804420Y-13028246D02*
X13813944Y-12980627D01*
X13813944Y-12980627D02*
X13823468Y-12952055D01*
X13823468Y-12952055D02*
X13832991Y-12933008D01*
X13832991Y-12933008D02*
X13852039Y-12904436D01*
X13852039Y-12904436D02*
X13861563Y-12894912D01*
X14023468Y-12990150D02*
X14023468Y-13123484D01*
X13975848Y-12913960D02*
X13928229Y-13056817D01*
X13928229Y-13056817D02*
X14052039Y-13056817D01*
X14280610Y-13123484D02*
X14280610Y-12923484D01*
X14366325Y-13123484D02*
X14366325Y-13018722D01*
X14366325Y-13018722D02*
X14356801Y-12999674D01*
X14356801Y-12999674D02*
X14337753Y-12990150D01*
X14337753Y-12990150D02*
X14309182Y-12990150D01*
X14309182Y-12990150D02*
X14290134Y-12999674D01*
X14290134Y-12999674D02*
X14280610Y-13009198D01*
X14490134Y-13123484D02*
X14471087Y-13113960D01*
X14471087Y-13113960D02*
X14461563Y-13104436D01*
X14461563Y-13104436D02*
X14452039Y-13085388D01*
X14452039Y-13085388D02*
X14452039Y-13028246D01*
X14452039Y-13028246D02*
X14461563Y-13009198D01*
X14461563Y-13009198D02*
X14471087Y-12999674D01*
X14471087Y-12999674D02*
X14490134Y-12990150D01*
X14490134Y-12990150D02*
X14518706Y-12990150D01*
X14518706Y-12990150D02*
X14537753Y-12999674D01*
X14537753Y-12999674D02*
X14547277Y-13009198D01*
X14547277Y-13009198D02*
X14556801Y-13028246D01*
X14556801Y-13028246D02*
X14556801Y-13085388D01*
X14556801Y-13085388D02*
X14547277Y-13104436D01*
X14547277Y-13104436D02*
X14537753Y-13113960D01*
X14537753Y-13113960D02*
X14518706Y-13123484D01*
X14518706Y-13123484D02*
X14490134Y-13123484D01*
X14671087Y-13123484D02*
X14652039Y-13113960D01*
X14652039Y-13113960D02*
X14642515Y-13094912D01*
X14642515Y-13094912D02*
X14642515Y-12923484D01*
X14823468Y-13113960D02*
X14804420Y-13123484D01*
X14804420Y-13123484D02*
X14766325Y-13123484D01*
X14766325Y-13123484D02*
X14747277Y-13113960D01*
X14747277Y-13113960D02*
X14737753Y-13094912D01*
X14737753Y-13094912D02*
X14737753Y-13018722D01*
X14737753Y-13018722D02*
X14747277Y-12999674D01*
X14747277Y-12999674D02*
X14766325Y-12990150D01*
X14766325Y-12990150D02*
X14804420Y-12990150D01*
X14804420Y-12990150D02*
X14823468Y-12999674D01*
X14823468Y-12999674D02*
X14832991Y-13018722D01*
X14832991Y-13018722D02*
X14832991Y-13037769D01*
X14832991Y-13037769D02*
X14737753Y-13056817D01*
X14909182Y-13113960D02*
X14928230Y-13123484D01*
X14928230Y-13123484D02*
X14966325Y-13123484D01*
X14966325Y-13123484D02*
X14985372Y-13113960D01*
X14985372Y-13113960D02*
X14994896Y-13094912D01*
X14994896Y-13094912D02*
X14994896Y-13085388D01*
X14994896Y-13085388D02*
X14985372Y-13066341D01*
X14985372Y-13066341D02*
X14966325Y-13056817D01*
X14966325Y-13056817D02*
X14937753Y-13056817D01*
X14937753Y-13056817D02*
X14918706Y-13047293D01*
X14918706Y-13047293D02*
X14909182Y-13028246D01*
X14909182Y-13028246D02*
X14909182Y-13018722D01*
X14909182Y-13018722D02*
X14918706Y-12999674D01*
X14918706Y-12999674D02*
X14937753Y-12990150D01*
X14937753Y-12990150D02*
X14966325Y-12990150D01*
X14966325Y-12990150D02*
X14985372Y-12999674D01*
X15061563Y-13199674D02*
X15071087Y-13190150D01*
X15071087Y-13190150D02*
X15090134Y-13161579D01*
X15090134Y-13161579D02*
X15099658Y-13142531D01*
X15099658Y-13142531D02*
X15109182Y-13113960D01*
X15109182Y-13113960D02*
X15118706Y-13066341D01*
X15118706Y-13066341D02*
X15118706Y-13028246D01*
X15118706Y-13028246D02*
X15109182Y-12980627D01*
X15109182Y-12980627D02*
X15099658Y-12952055D01*
X15099658Y-12952055D02*
X15090134Y-12933008D01*
X15090134Y-12933008D02*
X15071087Y-12904436D01*
X15071087Y-12904436D02*
X15061563Y-12894912D01*
M02*
