%TF.GenerationSoftware,KiCad,Pcbnew,9.0.6*%
%TF.CreationDate,2026-01-19T06:48:40-03:00*%
%TF.ProjectId,control_dron_v5,636f6e74-726f-46c5-9f64-726f6e5f7635,rev?*%
%TF.SameCoordinates,Original*%
%TF.FileFunction,Paste,Top*%
%TF.FilePolarity,Positive*%
%FSLAX46Y46*%
G04 Gerber Fmt 4.6, Leading zero omitted, Abs format (unit mm)*
G04 Created by KiCad (PCBNEW 9.0.6) date 2026-01-19 06:48:40*
%MOMM*%
%LPD*%
G01*
G04 APERTURE LIST*
G04 Aperture macros list*
%AMRoundRect*
0 Rectangle with rounded corners*
0 $1 Rounding radius*
0 $2 $3 $4 $5 $6 $7 $8 $9 X,Y pos of 4 corners*
0 Add a 4 corners polygon primitive as box body*
4,1,4,$2,$3,$4,$5,$6,$7,$8,$9,$2,$3,0*
0 Add four circle primitives for the rounded corners*
1,1,$1+$1,$2,$3*
1,1,$1+$1,$4,$5*
1,1,$1+$1,$6,$7*
1,1,$1+$1,$8,$9*
0 Add four rect primitives between the rounded corners*
20,1,$1+$1,$2,$3,$4,$5,0*
20,1,$1+$1,$4,$5,$6,$7,0*
20,1,$1+$1,$6,$7,$8,$9,0*
20,1,$1+$1,$8,$9,$2,$3,0*%
G04 Aperture macros list end*
%ADD10RoundRect,0.250000X0.650000X-0.412500X0.650000X0.412500X-0.650000X0.412500X-0.650000X-0.412500X0*%
%ADD11R,0.600000X0.300000*%
%ADD12R,0.300000X0.600000*%
%ADD13RoundRect,0.250000X0.412500X0.650000X-0.412500X0.650000X-0.412500X-0.650000X0.412500X-0.650000X0*%
%ADD14RoundRect,0.062500X0.275000X-0.062500X0.275000X0.062500X-0.275000X0.062500X-0.275000X-0.062500X0*%
%ADD15RoundRect,0.062500X0.062500X-0.275000X0.062500X0.275000X-0.062500X0.275000X-0.062500X-0.275000X0*%
%ADD16RoundRect,0.250000X-0.400000X-0.625000X0.400000X-0.625000X0.400000X0.625000X-0.400000X0.625000X0*%
%ADD17RoundRect,0.250000X-0.550000X1.250000X-0.550000X-1.250000X0.550000X-1.250000X0.550000X1.250000X0*%
%ADD18RoundRect,0.250000X-0.650000X0.412500X-0.650000X-0.412500X0.650000X-0.412500X0.650000X0.412500X0*%
%ADD19RoundRect,0.250000X-0.412500X-0.650000X0.412500X-0.650000X0.412500X0.650000X-0.412500X0.650000X0*%
%ADD20RoundRect,0.250000X1.050000X0.550000X-1.050000X0.550000X-1.050000X-0.550000X1.050000X-0.550000X0*%
G04 APERTURE END LIST*
D10*
%TO.C,C1*%
X171380000Y-63892500D03*
X171380000Y-60767500D03*
%TD*%
D11*
%TO.C,AC1*%
X138877295Y-76562521D03*
X138877295Y-76062521D03*
X138877295Y-75562521D03*
X138877295Y-75062521D03*
D12*
X138227295Y-74912521D03*
X137727295Y-74912521D03*
X137227295Y-74912521D03*
D11*
X136577295Y-75062521D03*
X136577295Y-75562521D03*
X136577295Y-76062521D03*
X136577295Y-76562521D03*
D12*
X137227295Y-76712521D03*
X137727295Y-76712521D03*
X138227295Y-76712521D03*
%TD*%
D13*
%TO.C,C7*%
X145106056Y-80230000D03*
X141981056Y-80230000D03*
%TD*%
D14*
%TO.C,U2*%
X141968556Y-77312521D03*
X141968556Y-76812521D03*
X141968556Y-76312521D03*
X141968556Y-75812521D03*
X141968556Y-75312521D03*
X141968556Y-74812521D03*
X141968556Y-74312521D03*
D15*
X143231056Y-73800021D03*
D14*
X144493556Y-74312521D03*
X144493556Y-74812521D03*
X144493556Y-75312521D03*
X144493556Y-75812521D03*
X144493556Y-76312521D03*
X144493556Y-76812521D03*
X144493556Y-77312521D03*
D15*
X143231056Y-77825021D03*
%TD*%
D13*
%TO.C,C13*%
X139482500Y-80230000D03*
X136357500Y-80230000D03*
%TD*%
D16*
%TO.C,R2*%
X142960000Y-67300000D03*
X146060000Y-67300000D03*
%TD*%
D17*
%TO.C,C14*%
X131160000Y-72280000D03*
X131160000Y-76680000D03*
%TD*%
D16*
%TO.C,R1*%
X136850000Y-67300000D03*
X139950000Y-67300000D03*
%TD*%
D18*
%TO.C,C3*%
X120825000Y-62162500D03*
X120825000Y-65287500D03*
%TD*%
D13*
%TO.C,C2*%
X174452500Y-56191879D03*
X171327500Y-56191879D03*
%TD*%
D16*
%TO.C,R9*%
X142590000Y-84550000D03*
X145690000Y-84550000D03*
%TD*%
%TO.C,R10*%
X137020000Y-84550000D03*
X140120000Y-84550000D03*
%TD*%
D19*
%TO.C,C11*%
X141711056Y-71192521D03*
X144836056Y-71192521D03*
%TD*%
D20*
%TO.C,C5*%
X174376006Y-50901879D03*
X170776006Y-50901879D03*
%TD*%
D19*
%TO.C,C12*%
X135897500Y-71192521D03*
X139022500Y-71192521D03*
%TD*%
M02*
