%TF.GenerationSoftware,KiCad,Pcbnew,9.0.6*%
%TF.CreationDate,2026-01-19T06:48:40-03:00*%
%TF.ProjectId,control_dron_v5,636f6e74-726f-46c5-9f64-726f6e5f7635,rev?*%
%TF.SameCoordinates,Original*%
%TF.FileFunction,Legend,Top*%
%TF.FilePolarity,Positive*%
%FSLAX46Y46*%
G04 Gerber Fmt 4.6, Leading zero omitted, Abs format (unit mm)*
G04 Created by KiCad (PCBNEW 9.0.6) date 2026-01-19 06:48:40*
%MOMM*%
%LPD*%
G01*
G04 APERTURE LIST*
%ADD10C,0.150000*%
%ADD11C,0.175000*%
%ADD12C,0.200000*%
%ADD13C,0.375000*%
%ADD14C,0.100000*%
%ADD15C,0.120000*%
%ADD16C,0.000000*%
G04 APERTURE END LIST*
D10*
X156835256Y-50815340D02*
X160195256Y-50815340D01*
X160195256Y-53705340D01*
X156835256Y-53705340D01*
X156835256Y-50815340D01*
X157985075Y-71259387D02*
X157985075Y-70687959D01*
X158985075Y-70973673D02*
X157985075Y-70973673D01*
X158461265Y-70354625D02*
X158461265Y-70021292D01*
X158985075Y-69878435D02*
X158985075Y-70354625D01*
X158985075Y-70354625D02*
X157985075Y-70354625D01*
X157985075Y-70354625D02*
X157985075Y-69878435D01*
X158461265Y-69449863D02*
X158461265Y-69116530D01*
X158985075Y-68973673D02*
X158985075Y-69449863D01*
X158985075Y-69449863D02*
X157985075Y-69449863D01*
X157985075Y-69449863D02*
X157985075Y-68973673D01*
X158985075Y-68545101D02*
X157985075Y-68545101D01*
X157985075Y-68545101D02*
X158985075Y-67973673D01*
X158985075Y-67973673D02*
X157985075Y-67973673D01*
X158937456Y-67545101D02*
X158985075Y-67402244D01*
X158985075Y-67402244D02*
X158985075Y-67164149D01*
X158985075Y-67164149D02*
X158937456Y-67068911D01*
X158937456Y-67068911D02*
X158889836Y-67021292D01*
X158889836Y-67021292D02*
X158794598Y-66973673D01*
X158794598Y-66973673D02*
X158699360Y-66973673D01*
X158699360Y-66973673D02*
X158604122Y-67021292D01*
X158604122Y-67021292D02*
X158556503Y-67068911D01*
X158556503Y-67068911D02*
X158508884Y-67164149D01*
X158508884Y-67164149D02*
X158461265Y-67354625D01*
X158461265Y-67354625D02*
X158413646Y-67449863D01*
X158413646Y-67449863D02*
X158366027Y-67497482D01*
X158366027Y-67497482D02*
X158270789Y-67545101D01*
X158270789Y-67545101D02*
X158175551Y-67545101D01*
X158175551Y-67545101D02*
X158080313Y-67497482D01*
X158080313Y-67497482D02*
X158032694Y-67449863D01*
X158032694Y-67449863D02*
X157985075Y-67354625D01*
X157985075Y-67354625D02*
X157985075Y-67116530D01*
X157985075Y-67116530D02*
X158032694Y-66973673D01*
X158508884Y-66354625D02*
X158985075Y-66354625D01*
X157985075Y-66687958D02*
X158508884Y-66354625D01*
X158508884Y-66354625D02*
X157985075Y-66021292D01*
D11*
X161849648Y-52809662D02*
X162687744Y-52809662D01*
X162268696Y-53407757D02*
X162268696Y-52211567D01*
X163735363Y-51837757D02*
X163211553Y-51837757D01*
X163211553Y-51837757D02*
X163159172Y-52585376D01*
X163159172Y-52585376D02*
X163211553Y-52510615D01*
X163211553Y-52510615D02*
X163316315Y-52435853D01*
X163316315Y-52435853D02*
X163578220Y-52435853D01*
X163578220Y-52435853D02*
X163682982Y-52510615D01*
X163682982Y-52510615D02*
X163735363Y-52585376D01*
X163735363Y-52585376D02*
X163787744Y-52734900D01*
X163787744Y-52734900D02*
X163787744Y-53108710D01*
X163787744Y-53108710D02*
X163735363Y-53258234D01*
X163735363Y-53258234D02*
X163682982Y-53332996D01*
X163682982Y-53332996D02*
X163578220Y-53407757D01*
X163578220Y-53407757D02*
X163316315Y-53407757D01*
X163316315Y-53407757D02*
X163211553Y-53332996D01*
X163211553Y-53332996D02*
X163159172Y-53258234D01*
X164102029Y-51837757D02*
X164468696Y-53407757D01*
X164468696Y-53407757D02*
X164835363Y-51837757D01*
X164678220Y-54440131D02*
X164573458Y-54365369D01*
X164573458Y-54365369D02*
X164416315Y-54365369D01*
X164416315Y-54365369D02*
X164259172Y-54440131D01*
X164259172Y-54440131D02*
X164154410Y-54589655D01*
X164154410Y-54589655D02*
X164102029Y-54739179D01*
X164102029Y-54739179D02*
X164049648Y-55038227D01*
X164049648Y-55038227D02*
X164049648Y-55262512D01*
X164049648Y-55262512D02*
X164102029Y-55561560D01*
X164102029Y-55561560D02*
X164154410Y-55711084D01*
X164154410Y-55711084D02*
X164259172Y-55860608D01*
X164259172Y-55860608D02*
X164416315Y-55935369D01*
X164416315Y-55935369D02*
X164521077Y-55935369D01*
X164521077Y-55935369D02*
X164678220Y-55860608D01*
X164678220Y-55860608D02*
X164730601Y-55785846D01*
X164730601Y-55785846D02*
X164730601Y-55262512D01*
X164730601Y-55262512D02*
X164521077Y-55262512D01*
X160278219Y-57864886D02*
X161116315Y-57864886D01*
X160697267Y-58462981D02*
X160697267Y-57266791D01*
X161535362Y-56892981D02*
X162216315Y-56892981D01*
X162216315Y-56892981D02*
X161849648Y-57491077D01*
X161849648Y-57491077D02*
X162006791Y-57491077D01*
X162006791Y-57491077D02*
X162111553Y-57565839D01*
X162111553Y-57565839D02*
X162163934Y-57640600D01*
X162163934Y-57640600D02*
X162216315Y-57790124D01*
X162216315Y-57790124D02*
X162216315Y-58163934D01*
X162216315Y-58163934D02*
X162163934Y-58313458D01*
X162163934Y-58313458D02*
X162111553Y-58388220D01*
X162111553Y-58388220D02*
X162006791Y-58462981D01*
X162006791Y-58462981D02*
X161692505Y-58462981D01*
X161692505Y-58462981D02*
X161587743Y-58388220D01*
X161587743Y-58388220D02*
X161535362Y-58313458D01*
X162687743Y-58313458D02*
X162740124Y-58388220D01*
X162740124Y-58388220D02*
X162687743Y-58462981D01*
X162687743Y-58462981D02*
X162635362Y-58388220D01*
X162635362Y-58388220D02*
X162687743Y-58313458D01*
X162687743Y-58313458D02*
X162687743Y-58462981D01*
X163106791Y-56892981D02*
X163787744Y-56892981D01*
X163787744Y-56892981D02*
X163421077Y-57491077D01*
X163421077Y-57491077D02*
X163578220Y-57491077D01*
X163578220Y-57491077D02*
X163682982Y-57565839D01*
X163682982Y-57565839D02*
X163735363Y-57640600D01*
X163735363Y-57640600D02*
X163787744Y-57790124D01*
X163787744Y-57790124D02*
X163787744Y-58163934D01*
X163787744Y-58163934D02*
X163735363Y-58313458D01*
X163735363Y-58313458D02*
X163682982Y-58388220D01*
X163682982Y-58388220D02*
X163578220Y-58462981D01*
X163578220Y-58462981D02*
X163263934Y-58462981D01*
X163263934Y-58462981D02*
X163159172Y-58388220D01*
X163159172Y-58388220D02*
X163106791Y-58313458D01*
X164102029Y-56892981D02*
X164468696Y-58462981D01*
X164468696Y-58462981D02*
X164835363Y-56892981D01*
X163054410Y-59570117D02*
X163106791Y-59495355D01*
X163106791Y-59495355D02*
X163211553Y-59420593D01*
X163211553Y-59420593D02*
X163473458Y-59420593D01*
X163473458Y-59420593D02*
X163578220Y-59495355D01*
X163578220Y-59495355D02*
X163630601Y-59570117D01*
X163630601Y-59570117D02*
X163682982Y-59719641D01*
X163682982Y-59719641D02*
X163682982Y-59869165D01*
X163682982Y-59869165D02*
X163630601Y-60093451D01*
X163630601Y-60093451D02*
X163002029Y-60990593D01*
X163002029Y-60990593D02*
X163682982Y-60990593D01*
X164049648Y-59420593D02*
X164730601Y-59420593D01*
X164730601Y-59420593D02*
X164363934Y-60018689D01*
X164363934Y-60018689D02*
X164521077Y-60018689D01*
X164521077Y-60018689D02*
X164625839Y-60093451D01*
X164625839Y-60093451D02*
X164678220Y-60168212D01*
X164678220Y-60168212D02*
X164730601Y-60317736D01*
X164730601Y-60317736D02*
X164730601Y-60691546D01*
X164730601Y-60691546D02*
X164678220Y-60841070D01*
X164678220Y-60841070D02*
X164625839Y-60915832D01*
X164625839Y-60915832D02*
X164521077Y-60990593D01*
X164521077Y-60990593D02*
X164206791Y-60990593D01*
X164206791Y-60990593D02*
X164102029Y-60915832D01*
X164102029Y-60915832D02*
X164049648Y-60841070D01*
X163054410Y-62097729D02*
X163106791Y-62022967D01*
X163106791Y-62022967D02*
X163211553Y-61948205D01*
X163211553Y-61948205D02*
X163473458Y-61948205D01*
X163473458Y-61948205D02*
X163578220Y-62022967D01*
X163578220Y-62022967D02*
X163630601Y-62097729D01*
X163630601Y-62097729D02*
X163682982Y-62247253D01*
X163682982Y-62247253D02*
X163682982Y-62396777D01*
X163682982Y-62396777D02*
X163630601Y-62621063D01*
X163630601Y-62621063D02*
X163002029Y-63518205D01*
X163002029Y-63518205D02*
X163682982Y-63518205D01*
X164102029Y-62097729D02*
X164154410Y-62022967D01*
X164154410Y-62022967D02*
X164259172Y-61948205D01*
X164259172Y-61948205D02*
X164521077Y-61948205D01*
X164521077Y-61948205D02*
X164625839Y-62022967D01*
X164625839Y-62022967D02*
X164678220Y-62097729D01*
X164678220Y-62097729D02*
X164730601Y-62247253D01*
X164730601Y-62247253D02*
X164730601Y-62396777D01*
X164730601Y-62396777D02*
X164678220Y-62621063D01*
X164678220Y-62621063D02*
X164049648Y-63518205D01*
X164049648Y-63518205D02*
X164730601Y-63518205D01*
X163054410Y-64625341D02*
X163106791Y-64550579D01*
X163106791Y-64550579D02*
X163211553Y-64475817D01*
X163211553Y-64475817D02*
X163473458Y-64475817D01*
X163473458Y-64475817D02*
X163578220Y-64550579D01*
X163578220Y-64550579D02*
X163630601Y-64625341D01*
X163630601Y-64625341D02*
X163682982Y-64774865D01*
X163682982Y-64774865D02*
X163682982Y-64924389D01*
X163682982Y-64924389D02*
X163630601Y-65148675D01*
X163630601Y-65148675D02*
X163002029Y-66045817D01*
X163002029Y-66045817D02*
X163682982Y-66045817D01*
X164730601Y-66045817D02*
X164102029Y-66045817D01*
X164416315Y-66045817D02*
X164416315Y-64475817D01*
X164416315Y-64475817D02*
X164311553Y-64700103D01*
X164311553Y-64700103D02*
X164206791Y-64849627D01*
X164206791Y-64849627D02*
X164102029Y-64924389D01*
X163054410Y-67152953D02*
X163106791Y-67078191D01*
X163106791Y-67078191D02*
X163211553Y-67003429D01*
X163211553Y-67003429D02*
X163473458Y-67003429D01*
X163473458Y-67003429D02*
X163578220Y-67078191D01*
X163578220Y-67078191D02*
X163630601Y-67152953D01*
X163630601Y-67152953D02*
X163682982Y-67302477D01*
X163682982Y-67302477D02*
X163682982Y-67452001D01*
X163682982Y-67452001D02*
X163630601Y-67676287D01*
X163630601Y-67676287D02*
X163002029Y-68573429D01*
X163002029Y-68573429D02*
X163682982Y-68573429D01*
X164363934Y-67003429D02*
X164468696Y-67003429D01*
X164468696Y-67003429D02*
X164573458Y-67078191D01*
X164573458Y-67078191D02*
X164625839Y-67152953D01*
X164625839Y-67152953D02*
X164678220Y-67302477D01*
X164678220Y-67302477D02*
X164730601Y-67601525D01*
X164730601Y-67601525D02*
X164730601Y-67975334D01*
X164730601Y-67975334D02*
X164678220Y-68274382D01*
X164678220Y-68274382D02*
X164625839Y-68423906D01*
X164625839Y-68423906D02*
X164573458Y-68498668D01*
X164573458Y-68498668D02*
X164468696Y-68573429D01*
X164468696Y-68573429D02*
X164363934Y-68573429D01*
X164363934Y-68573429D02*
X164259172Y-68498668D01*
X164259172Y-68498668D02*
X164206791Y-68423906D01*
X164206791Y-68423906D02*
X164154410Y-68274382D01*
X164154410Y-68274382D02*
X164102029Y-67975334D01*
X164102029Y-67975334D02*
X164102029Y-67601525D01*
X164102029Y-67601525D02*
X164154410Y-67302477D01*
X164154410Y-67302477D02*
X164206791Y-67152953D01*
X164206791Y-67152953D02*
X164259172Y-67078191D01*
X164259172Y-67078191D02*
X164363934Y-67003429D01*
X163682982Y-71101041D02*
X163054410Y-71101041D01*
X163368696Y-71101041D02*
X163368696Y-69531041D01*
X163368696Y-69531041D02*
X163263934Y-69755327D01*
X163263934Y-69755327D02*
X163159172Y-69904851D01*
X163159172Y-69904851D02*
X163054410Y-69979613D01*
X164206791Y-71101041D02*
X164416315Y-71101041D01*
X164416315Y-71101041D02*
X164521077Y-71026280D01*
X164521077Y-71026280D02*
X164573458Y-70951518D01*
X164573458Y-70951518D02*
X164678220Y-70727232D01*
X164678220Y-70727232D02*
X164730601Y-70428184D01*
X164730601Y-70428184D02*
X164730601Y-69830089D01*
X164730601Y-69830089D02*
X164678220Y-69680565D01*
X164678220Y-69680565D02*
X164625839Y-69605803D01*
X164625839Y-69605803D02*
X164521077Y-69531041D01*
X164521077Y-69531041D02*
X164311553Y-69531041D01*
X164311553Y-69531041D02*
X164206791Y-69605803D01*
X164206791Y-69605803D02*
X164154410Y-69680565D01*
X164154410Y-69680565D02*
X164102029Y-69830089D01*
X164102029Y-69830089D02*
X164102029Y-70203899D01*
X164102029Y-70203899D02*
X164154410Y-70353422D01*
X164154410Y-70353422D02*
X164206791Y-70428184D01*
X164206791Y-70428184D02*
X164311553Y-70502946D01*
X164311553Y-70502946D02*
X164521077Y-70502946D01*
X164521077Y-70502946D02*
X164625839Y-70428184D01*
X164625839Y-70428184D02*
X164678220Y-70353422D01*
X164678220Y-70353422D02*
X164730601Y-70203899D01*
X163682982Y-73628653D02*
X163054410Y-73628653D01*
X163368696Y-73628653D02*
X163368696Y-72058653D01*
X163368696Y-72058653D02*
X163263934Y-72282939D01*
X163263934Y-72282939D02*
X163159172Y-72432463D01*
X163159172Y-72432463D02*
X163054410Y-72507225D01*
X164311553Y-72731511D02*
X164206791Y-72656749D01*
X164206791Y-72656749D02*
X164154410Y-72581987D01*
X164154410Y-72581987D02*
X164102029Y-72432463D01*
X164102029Y-72432463D02*
X164102029Y-72357701D01*
X164102029Y-72357701D02*
X164154410Y-72208177D01*
X164154410Y-72208177D02*
X164206791Y-72133415D01*
X164206791Y-72133415D02*
X164311553Y-72058653D01*
X164311553Y-72058653D02*
X164521077Y-72058653D01*
X164521077Y-72058653D02*
X164625839Y-72133415D01*
X164625839Y-72133415D02*
X164678220Y-72208177D01*
X164678220Y-72208177D02*
X164730601Y-72357701D01*
X164730601Y-72357701D02*
X164730601Y-72432463D01*
X164730601Y-72432463D02*
X164678220Y-72581987D01*
X164678220Y-72581987D02*
X164625839Y-72656749D01*
X164625839Y-72656749D02*
X164521077Y-72731511D01*
X164521077Y-72731511D02*
X164311553Y-72731511D01*
X164311553Y-72731511D02*
X164206791Y-72806272D01*
X164206791Y-72806272D02*
X164154410Y-72881034D01*
X164154410Y-72881034D02*
X164102029Y-73030558D01*
X164102029Y-73030558D02*
X164102029Y-73329606D01*
X164102029Y-73329606D02*
X164154410Y-73479130D01*
X164154410Y-73479130D02*
X164206791Y-73553892D01*
X164206791Y-73553892D02*
X164311553Y-73628653D01*
X164311553Y-73628653D02*
X164521077Y-73628653D01*
X164521077Y-73628653D02*
X164625839Y-73553892D01*
X164625839Y-73553892D02*
X164678220Y-73479130D01*
X164678220Y-73479130D02*
X164730601Y-73329606D01*
X164730601Y-73329606D02*
X164730601Y-73030558D01*
X164730601Y-73030558D02*
X164678220Y-72881034D01*
X164678220Y-72881034D02*
X164625839Y-72806272D01*
X164625839Y-72806272D02*
X164521077Y-72731511D01*
X163682982Y-76156265D02*
X163054410Y-76156265D01*
X163368696Y-76156265D02*
X163368696Y-74586265D01*
X163368696Y-74586265D02*
X163263934Y-74810551D01*
X163263934Y-74810551D02*
X163159172Y-74960075D01*
X163159172Y-74960075D02*
X163054410Y-75034837D01*
X164049648Y-74586265D02*
X164782982Y-74586265D01*
X164782982Y-74586265D02*
X164311553Y-76156265D01*
X163682982Y-78683877D02*
X163054410Y-78683877D01*
X163368696Y-78683877D02*
X163368696Y-77113877D01*
X163368696Y-77113877D02*
X163263934Y-77338163D01*
X163263934Y-77338163D02*
X163159172Y-77487687D01*
X163159172Y-77487687D02*
X163054410Y-77562449D01*
X164625839Y-77113877D02*
X164416315Y-77113877D01*
X164416315Y-77113877D02*
X164311553Y-77188639D01*
X164311553Y-77188639D02*
X164259172Y-77263401D01*
X164259172Y-77263401D02*
X164154410Y-77487687D01*
X164154410Y-77487687D02*
X164102029Y-77786735D01*
X164102029Y-77786735D02*
X164102029Y-78384830D01*
X164102029Y-78384830D02*
X164154410Y-78534354D01*
X164154410Y-78534354D02*
X164206791Y-78609116D01*
X164206791Y-78609116D02*
X164311553Y-78683877D01*
X164311553Y-78683877D02*
X164521077Y-78683877D01*
X164521077Y-78683877D02*
X164625839Y-78609116D01*
X164625839Y-78609116D02*
X164678220Y-78534354D01*
X164678220Y-78534354D02*
X164730601Y-78384830D01*
X164730601Y-78384830D02*
X164730601Y-78011020D01*
X164730601Y-78011020D02*
X164678220Y-77861496D01*
X164678220Y-77861496D02*
X164625839Y-77786735D01*
X164625839Y-77786735D02*
X164521077Y-77711973D01*
X164521077Y-77711973D02*
X164311553Y-77711973D01*
X164311553Y-77711973D02*
X164206791Y-77786735D01*
X164206791Y-77786735D02*
X164154410Y-77861496D01*
X164154410Y-77861496D02*
X164102029Y-78011020D01*
X163682982Y-81211489D02*
X163054410Y-81211489D01*
X163368696Y-81211489D02*
X163368696Y-79641489D01*
X163368696Y-79641489D02*
X163263934Y-79865775D01*
X163263934Y-79865775D02*
X163159172Y-80015299D01*
X163159172Y-80015299D02*
X163054410Y-80090061D01*
X164678220Y-79641489D02*
X164154410Y-79641489D01*
X164154410Y-79641489D02*
X164102029Y-80389108D01*
X164102029Y-80389108D02*
X164154410Y-80314347D01*
X164154410Y-80314347D02*
X164259172Y-80239585D01*
X164259172Y-80239585D02*
X164521077Y-80239585D01*
X164521077Y-80239585D02*
X164625839Y-80314347D01*
X164625839Y-80314347D02*
X164678220Y-80389108D01*
X164678220Y-80389108D02*
X164730601Y-80538632D01*
X164730601Y-80538632D02*
X164730601Y-80912442D01*
X164730601Y-80912442D02*
X164678220Y-81061966D01*
X164678220Y-81061966D02*
X164625839Y-81136728D01*
X164625839Y-81136728D02*
X164521077Y-81211489D01*
X164521077Y-81211489D02*
X164259172Y-81211489D01*
X164259172Y-81211489D02*
X164154410Y-81136728D01*
X164154410Y-81136728D02*
X164102029Y-81061966D01*
X163682982Y-83739101D02*
X163054410Y-83739101D01*
X163368696Y-83739101D02*
X163368696Y-82169101D01*
X163368696Y-82169101D02*
X163263934Y-82393387D01*
X163263934Y-82393387D02*
X163159172Y-82542911D01*
X163159172Y-82542911D02*
X163054410Y-82617673D01*
X164625839Y-82692435D02*
X164625839Y-83739101D01*
X164363934Y-82094340D02*
X164102029Y-83215768D01*
X164102029Y-83215768D02*
X164782982Y-83215768D01*
D12*
X134168189Y-57506980D02*
X134120570Y-57554600D01*
X134120570Y-57554600D02*
X133977713Y-57602219D01*
X133977713Y-57602219D02*
X133882475Y-57602219D01*
X133882475Y-57602219D02*
X133739618Y-57554600D01*
X133739618Y-57554600D02*
X133644380Y-57459361D01*
X133644380Y-57459361D02*
X133596761Y-57364123D01*
X133596761Y-57364123D02*
X133549142Y-57173647D01*
X133549142Y-57173647D02*
X133549142Y-57030790D01*
X133549142Y-57030790D02*
X133596761Y-56840314D01*
X133596761Y-56840314D02*
X133644380Y-56745076D01*
X133644380Y-56745076D02*
X133739618Y-56649838D01*
X133739618Y-56649838D02*
X133882475Y-56602219D01*
X133882475Y-56602219D02*
X133977713Y-56602219D01*
X133977713Y-56602219D02*
X134120570Y-56649838D01*
X134120570Y-56649838D02*
X134168189Y-56697457D01*
X134739618Y-57602219D02*
X134644380Y-57554600D01*
X134644380Y-57554600D02*
X134596761Y-57506980D01*
X134596761Y-57506980D02*
X134549142Y-57411742D01*
X134549142Y-57411742D02*
X134549142Y-57126028D01*
X134549142Y-57126028D02*
X134596761Y-57030790D01*
X134596761Y-57030790D02*
X134644380Y-56983171D01*
X134644380Y-56983171D02*
X134739618Y-56935552D01*
X134739618Y-56935552D02*
X134882475Y-56935552D01*
X134882475Y-56935552D02*
X134977713Y-56983171D01*
X134977713Y-56983171D02*
X135025332Y-57030790D01*
X135025332Y-57030790D02*
X135072951Y-57126028D01*
X135072951Y-57126028D02*
X135072951Y-57411742D01*
X135072951Y-57411742D02*
X135025332Y-57506980D01*
X135025332Y-57506980D02*
X134977713Y-57554600D01*
X134977713Y-57554600D02*
X134882475Y-57602219D01*
X134882475Y-57602219D02*
X134739618Y-57602219D01*
X135501523Y-56935552D02*
X135501523Y-57602219D01*
X135501523Y-57030790D02*
X135549142Y-56983171D01*
X135549142Y-56983171D02*
X135644380Y-56935552D01*
X135644380Y-56935552D02*
X135787237Y-56935552D01*
X135787237Y-56935552D02*
X135882475Y-56983171D01*
X135882475Y-56983171D02*
X135930094Y-57078409D01*
X135930094Y-57078409D02*
X135930094Y-57602219D01*
X136263428Y-56935552D02*
X136644380Y-56935552D01*
X136406285Y-56602219D02*
X136406285Y-57459361D01*
X136406285Y-57459361D02*
X136453904Y-57554600D01*
X136453904Y-57554600D02*
X136549142Y-57602219D01*
X136549142Y-57602219D02*
X136644380Y-57602219D01*
X136977714Y-57602219D02*
X136977714Y-56935552D01*
X136977714Y-57126028D02*
X137025333Y-57030790D01*
X137025333Y-57030790D02*
X137072952Y-56983171D01*
X137072952Y-56983171D02*
X137168190Y-56935552D01*
X137168190Y-56935552D02*
X137263428Y-56935552D01*
X137739619Y-57602219D02*
X137644381Y-57554600D01*
X137644381Y-57554600D02*
X137596762Y-57506980D01*
X137596762Y-57506980D02*
X137549143Y-57411742D01*
X137549143Y-57411742D02*
X137549143Y-57126028D01*
X137549143Y-57126028D02*
X137596762Y-57030790D01*
X137596762Y-57030790D02*
X137644381Y-56983171D01*
X137644381Y-56983171D02*
X137739619Y-56935552D01*
X137739619Y-56935552D02*
X137882476Y-56935552D01*
X137882476Y-56935552D02*
X137977714Y-56983171D01*
X137977714Y-56983171D02*
X138025333Y-57030790D01*
X138025333Y-57030790D02*
X138072952Y-57126028D01*
X138072952Y-57126028D02*
X138072952Y-57411742D01*
X138072952Y-57411742D02*
X138025333Y-57506980D01*
X138025333Y-57506980D02*
X137977714Y-57554600D01*
X137977714Y-57554600D02*
X137882476Y-57602219D01*
X137882476Y-57602219D02*
X137739619Y-57602219D01*
X138644381Y-57602219D02*
X138549143Y-57554600D01*
X138549143Y-57554600D02*
X138501524Y-57459361D01*
X138501524Y-57459361D02*
X138501524Y-56602219D01*
X139739620Y-57554600D02*
X139882477Y-57602219D01*
X139882477Y-57602219D02*
X140120572Y-57602219D01*
X140120572Y-57602219D02*
X140215810Y-57554600D01*
X140215810Y-57554600D02*
X140263429Y-57506980D01*
X140263429Y-57506980D02*
X140311048Y-57411742D01*
X140311048Y-57411742D02*
X140311048Y-57316504D01*
X140311048Y-57316504D02*
X140263429Y-57221266D01*
X140263429Y-57221266D02*
X140215810Y-57173647D01*
X140215810Y-57173647D02*
X140120572Y-57126028D01*
X140120572Y-57126028D02*
X139930096Y-57078409D01*
X139930096Y-57078409D02*
X139834858Y-57030790D01*
X139834858Y-57030790D02*
X139787239Y-56983171D01*
X139787239Y-56983171D02*
X139739620Y-56887933D01*
X139739620Y-56887933D02*
X139739620Y-56792695D01*
X139739620Y-56792695D02*
X139787239Y-56697457D01*
X139787239Y-56697457D02*
X139834858Y-56649838D01*
X139834858Y-56649838D02*
X139930096Y-56602219D01*
X139930096Y-56602219D02*
X140168191Y-56602219D01*
X140168191Y-56602219D02*
X140311048Y-56649838D01*
X140739620Y-57602219D02*
X140739620Y-56935552D01*
X140739620Y-56602219D02*
X140692001Y-56649838D01*
X140692001Y-56649838D02*
X140739620Y-56697457D01*
X140739620Y-56697457D02*
X140787239Y-56649838D01*
X140787239Y-56649838D02*
X140739620Y-56602219D01*
X140739620Y-56602219D02*
X140739620Y-56697457D01*
X141644381Y-56935552D02*
X141644381Y-57745076D01*
X141644381Y-57745076D02*
X141596762Y-57840314D01*
X141596762Y-57840314D02*
X141549143Y-57887933D01*
X141549143Y-57887933D02*
X141453905Y-57935552D01*
X141453905Y-57935552D02*
X141311048Y-57935552D01*
X141311048Y-57935552D02*
X141215810Y-57887933D01*
X141644381Y-57554600D02*
X141549143Y-57602219D01*
X141549143Y-57602219D02*
X141358667Y-57602219D01*
X141358667Y-57602219D02*
X141263429Y-57554600D01*
X141263429Y-57554600D02*
X141215810Y-57506980D01*
X141215810Y-57506980D02*
X141168191Y-57411742D01*
X141168191Y-57411742D02*
X141168191Y-57126028D01*
X141168191Y-57126028D02*
X141215810Y-57030790D01*
X141215810Y-57030790D02*
X141263429Y-56983171D01*
X141263429Y-56983171D02*
X141358667Y-56935552D01*
X141358667Y-56935552D02*
X141549143Y-56935552D01*
X141549143Y-56935552D02*
X141644381Y-56983171D01*
X142120572Y-56935552D02*
X142120572Y-57602219D01*
X142120572Y-57030790D02*
X142168191Y-56983171D01*
X142168191Y-56983171D02*
X142263429Y-56935552D01*
X142263429Y-56935552D02*
X142406286Y-56935552D01*
X142406286Y-56935552D02*
X142501524Y-56983171D01*
X142501524Y-56983171D02*
X142549143Y-57078409D01*
X142549143Y-57078409D02*
X142549143Y-57602219D01*
X143453905Y-57602219D02*
X143453905Y-57078409D01*
X143453905Y-57078409D02*
X143406286Y-56983171D01*
X143406286Y-56983171D02*
X143311048Y-56935552D01*
X143311048Y-56935552D02*
X143120572Y-56935552D01*
X143120572Y-56935552D02*
X143025334Y-56983171D01*
X143453905Y-57554600D02*
X143358667Y-57602219D01*
X143358667Y-57602219D02*
X143120572Y-57602219D01*
X143120572Y-57602219D02*
X143025334Y-57554600D01*
X143025334Y-57554600D02*
X142977715Y-57459361D01*
X142977715Y-57459361D02*
X142977715Y-57364123D01*
X142977715Y-57364123D02*
X143025334Y-57268885D01*
X143025334Y-57268885D02*
X143120572Y-57221266D01*
X143120572Y-57221266D02*
X143358667Y-57221266D01*
X143358667Y-57221266D02*
X143453905Y-57173647D01*
X144072953Y-57602219D02*
X143977715Y-57554600D01*
X143977715Y-57554600D02*
X143930096Y-57459361D01*
X143930096Y-57459361D02*
X143930096Y-56602219D01*
X144406287Y-57554600D02*
X144501525Y-57602219D01*
X144501525Y-57602219D02*
X144692001Y-57602219D01*
X144692001Y-57602219D02*
X144787239Y-57554600D01*
X144787239Y-57554600D02*
X144834858Y-57459361D01*
X144834858Y-57459361D02*
X144834858Y-57411742D01*
X144834858Y-57411742D02*
X144787239Y-57316504D01*
X144787239Y-57316504D02*
X144692001Y-57268885D01*
X144692001Y-57268885D02*
X144549144Y-57268885D01*
X144549144Y-57268885D02*
X144453906Y-57221266D01*
X144453906Y-57221266D02*
X144406287Y-57126028D01*
X144406287Y-57126028D02*
X144406287Y-57078409D01*
X144406287Y-57078409D02*
X144453906Y-56983171D01*
X144453906Y-56983171D02*
X144549144Y-56935552D01*
X144549144Y-56935552D02*
X144692001Y-56935552D01*
X144692001Y-56935552D02*
X144787239Y-56983171D01*
D10*
X143923866Y-51815475D02*
X143923866Y-51053571D01*
X144304819Y-51434523D02*
X143542914Y-51434523D01*
X143304819Y-50101190D02*
X143304819Y-50577380D01*
X143304819Y-50577380D02*
X143781009Y-50624999D01*
X143781009Y-50624999D02*
X143733390Y-50577380D01*
X143733390Y-50577380D02*
X143685771Y-50482142D01*
X143685771Y-50482142D02*
X143685771Y-50244047D01*
X143685771Y-50244047D02*
X143733390Y-50148809D01*
X143733390Y-50148809D02*
X143781009Y-50101190D01*
X143781009Y-50101190D02*
X143876247Y-50053571D01*
X143876247Y-50053571D02*
X144114342Y-50053571D01*
X144114342Y-50053571D02*
X144209580Y-50101190D01*
X144209580Y-50101190D02*
X144257200Y-50148809D01*
X144257200Y-50148809D02*
X144304819Y-50244047D01*
X144304819Y-50244047D02*
X144304819Y-50482142D01*
X144304819Y-50482142D02*
X144257200Y-50577380D01*
X144257200Y-50577380D02*
X144209580Y-50624999D01*
X143304819Y-49767856D02*
X144304819Y-49434523D01*
X144304819Y-49434523D02*
X143304819Y-49101190D01*
X144400057Y-49005952D02*
X144400057Y-48244047D01*
X144304819Y-48005951D02*
X143304819Y-48005951D01*
X143304819Y-48005951D02*
X144304819Y-47434523D01*
X144304819Y-47434523D02*
X143304819Y-47434523D01*
X144209580Y-46386904D02*
X144257200Y-46434523D01*
X144257200Y-46434523D02*
X144304819Y-46577380D01*
X144304819Y-46577380D02*
X144304819Y-46672618D01*
X144304819Y-46672618D02*
X144257200Y-46815475D01*
X144257200Y-46815475D02*
X144161961Y-46910713D01*
X144161961Y-46910713D02*
X144066723Y-46958332D01*
X144066723Y-46958332D02*
X143876247Y-47005951D01*
X143876247Y-47005951D02*
X143733390Y-47005951D01*
X143733390Y-47005951D02*
X143542914Y-46958332D01*
X143542914Y-46958332D02*
X143447676Y-46910713D01*
X143447676Y-46910713D02*
X143352438Y-46815475D01*
X143352438Y-46815475D02*
X143304819Y-46672618D01*
X143304819Y-46672618D02*
X143304819Y-46577380D01*
X143304819Y-46577380D02*
X143352438Y-46434523D01*
X143352438Y-46434523D02*
X143400057Y-46386904D01*
X120005952Y-49404819D02*
X119672619Y-48928628D01*
X119434524Y-49404819D02*
X119434524Y-48404819D01*
X119434524Y-48404819D02*
X119815476Y-48404819D01*
X119815476Y-48404819D02*
X119910714Y-48452438D01*
X119910714Y-48452438D02*
X119958333Y-48500057D01*
X119958333Y-48500057D02*
X120005952Y-48595295D01*
X120005952Y-48595295D02*
X120005952Y-48738152D01*
X120005952Y-48738152D02*
X119958333Y-48833390D01*
X119958333Y-48833390D02*
X119910714Y-48881009D01*
X119910714Y-48881009D02*
X119815476Y-48928628D01*
X119815476Y-48928628D02*
X119434524Y-48928628D01*
X120767857Y-48881009D02*
X120434524Y-48881009D01*
X120434524Y-49404819D02*
X120434524Y-48404819D01*
X120434524Y-48404819D02*
X120910714Y-48404819D01*
X126267857Y-49184580D02*
X126220238Y-49232200D01*
X126220238Y-49232200D02*
X126077381Y-49279819D01*
X126077381Y-49279819D02*
X125982143Y-49279819D01*
X125982143Y-49279819D02*
X125839286Y-49232200D01*
X125839286Y-49232200D02*
X125744048Y-49136961D01*
X125744048Y-49136961D02*
X125696429Y-49041723D01*
X125696429Y-49041723D02*
X125648810Y-48851247D01*
X125648810Y-48851247D02*
X125648810Y-48708390D01*
X125648810Y-48708390D02*
X125696429Y-48517914D01*
X125696429Y-48517914D02*
X125744048Y-48422676D01*
X125744048Y-48422676D02*
X125839286Y-48327438D01*
X125839286Y-48327438D02*
X125982143Y-48279819D01*
X125982143Y-48279819D02*
X126077381Y-48279819D01*
X126077381Y-48279819D02*
X126220238Y-48327438D01*
X126220238Y-48327438D02*
X126267857Y-48375057D01*
X126886905Y-48279819D02*
X127077381Y-48279819D01*
X127077381Y-48279819D02*
X127172619Y-48327438D01*
X127172619Y-48327438D02*
X127267857Y-48422676D01*
X127267857Y-48422676D02*
X127315476Y-48613152D01*
X127315476Y-48613152D02*
X127315476Y-48946485D01*
X127315476Y-48946485D02*
X127267857Y-49136961D01*
X127267857Y-49136961D02*
X127172619Y-49232200D01*
X127172619Y-49232200D02*
X127077381Y-49279819D01*
X127077381Y-49279819D02*
X126886905Y-49279819D01*
X126886905Y-49279819D02*
X126791667Y-49232200D01*
X126791667Y-49232200D02*
X126696429Y-49136961D01*
X126696429Y-49136961D02*
X126648810Y-48946485D01*
X126648810Y-48946485D02*
X126648810Y-48613152D01*
X126648810Y-48613152D02*
X126696429Y-48422676D01*
X126696429Y-48422676D02*
X126791667Y-48327438D01*
X126791667Y-48327438D02*
X126886905Y-48279819D01*
X127744048Y-49279819D02*
X127744048Y-48279819D01*
X127744048Y-48279819D02*
X128077381Y-48994104D01*
X128077381Y-48994104D02*
X128410714Y-48279819D01*
X128410714Y-48279819D02*
X128410714Y-49279819D01*
X128886905Y-49279819D02*
X128886905Y-48279819D01*
X128886905Y-48279819D02*
X129220238Y-48994104D01*
X129220238Y-48994104D02*
X129553571Y-48279819D01*
X129553571Y-48279819D02*
X129553571Y-49279819D01*
X136048866Y-51815475D02*
X136048866Y-51053571D01*
X136429819Y-51434523D02*
X135667914Y-51434523D01*
X135429819Y-50101190D02*
X135429819Y-50577380D01*
X135429819Y-50577380D02*
X135906009Y-50624999D01*
X135906009Y-50624999D02*
X135858390Y-50577380D01*
X135858390Y-50577380D02*
X135810771Y-50482142D01*
X135810771Y-50482142D02*
X135810771Y-50244047D01*
X135810771Y-50244047D02*
X135858390Y-50148809D01*
X135858390Y-50148809D02*
X135906009Y-50101190D01*
X135906009Y-50101190D02*
X136001247Y-50053571D01*
X136001247Y-50053571D02*
X136239342Y-50053571D01*
X136239342Y-50053571D02*
X136334580Y-50101190D01*
X136334580Y-50101190D02*
X136382200Y-50148809D01*
X136382200Y-50148809D02*
X136429819Y-50244047D01*
X136429819Y-50244047D02*
X136429819Y-50482142D01*
X136429819Y-50482142D02*
X136382200Y-50577380D01*
X136382200Y-50577380D02*
X136334580Y-50624999D01*
X135429819Y-49767856D02*
X136429819Y-49434523D01*
X136429819Y-49434523D02*
X135429819Y-49101190D01*
X136525057Y-49005952D02*
X136525057Y-48244047D01*
X136429819Y-48005951D02*
X135429819Y-48005951D01*
X135429819Y-48005951D02*
X136429819Y-47434523D01*
X136429819Y-47434523D02*
X135429819Y-47434523D01*
X136334580Y-46386904D02*
X136382200Y-46434523D01*
X136382200Y-46434523D02*
X136429819Y-46577380D01*
X136429819Y-46577380D02*
X136429819Y-46672618D01*
X136429819Y-46672618D02*
X136382200Y-46815475D01*
X136382200Y-46815475D02*
X136286961Y-46910713D01*
X136286961Y-46910713D02*
X136191723Y-46958332D01*
X136191723Y-46958332D02*
X136001247Y-47005951D01*
X136001247Y-47005951D02*
X135858390Y-47005951D01*
X135858390Y-47005951D02*
X135667914Y-46958332D01*
X135667914Y-46958332D02*
X135572676Y-46910713D01*
X135572676Y-46910713D02*
X135477438Y-46815475D01*
X135477438Y-46815475D02*
X135429819Y-46672618D01*
X135429819Y-46672618D02*
X135429819Y-46577380D01*
X135429819Y-46577380D02*
X135477438Y-46434523D01*
X135477438Y-46434523D02*
X135525057Y-46386904D01*
D13*
X118407143Y-75494428D02*
X117264285Y-75923000D01*
X117264285Y-75923000D02*
X118407143Y-76351571D01*
X119121428Y-75923000D02*
X120264286Y-75923000D01*
X120978571Y-75923000D02*
X122121429Y-75923000D01*
X122835714Y-75923000D02*
X123978572Y-75923000D01*
X124692857Y-75923000D02*
X125835715Y-75923000D01*
D10*
X132952438Y-99570238D02*
X132904819Y-99665476D01*
X132904819Y-99665476D02*
X132904819Y-99808333D01*
X132904819Y-99808333D02*
X132952438Y-99951190D01*
X132952438Y-99951190D02*
X133047676Y-100046428D01*
X133047676Y-100046428D02*
X133142914Y-100094047D01*
X133142914Y-100094047D02*
X133333390Y-100141666D01*
X133333390Y-100141666D02*
X133476247Y-100141666D01*
X133476247Y-100141666D02*
X133666723Y-100094047D01*
X133666723Y-100094047D02*
X133761961Y-100046428D01*
X133761961Y-100046428D02*
X133857200Y-99951190D01*
X133857200Y-99951190D02*
X133904819Y-99808333D01*
X133904819Y-99808333D02*
X133904819Y-99713095D01*
X133904819Y-99713095D02*
X133857200Y-99570238D01*
X133857200Y-99570238D02*
X133809580Y-99522619D01*
X133809580Y-99522619D02*
X133476247Y-99522619D01*
X133476247Y-99522619D02*
X133476247Y-99713095D01*
D12*
X176723409Y-74246993D02*
X176771028Y-74104136D01*
X176771028Y-74104136D02*
X176818647Y-74056517D01*
X176818647Y-74056517D02*
X176913885Y-74008898D01*
X176913885Y-74008898D02*
X177056742Y-74008898D01*
X177056742Y-74008898D02*
X177151980Y-74056517D01*
X177151980Y-74056517D02*
X177199600Y-74104136D01*
X177199600Y-74104136D02*
X177247219Y-74199374D01*
X177247219Y-74199374D02*
X177247219Y-74580326D01*
X177247219Y-74580326D02*
X176247219Y-74580326D01*
X176247219Y-74580326D02*
X176247219Y-74246993D01*
X176247219Y-74246993D02*
X176294838Y-74151755D01*
X176294838Y-74151755D02*
X176342457Y-74104136D01*
X176342457Y-74104136D02*
X176437695Y-74056517D01*
X176437695Y-74056517D02*
X176532933Y-74056517D01*
X176532933Y-74056517D02*
X176628171Y-74104136D01*
X176628171Y-74104136D02*
X176675790Y-74151755D01*
X176675790Y-74151755D02*
X176723409Y-74246993D01*
X176723409Y-74246993D02*
X176723409Y-74580326D01*
X176961504Y-73627945D02*
X176961504Y-73151755D01*
X177247219Y-73723183D02*
X176247219Y-73389850D01*
X176247219Y-73389850D02*
X177247219Y-73056517D01*
X176247219Y-72866040D02*
X176247219Y-72294612D01*
X177247219Y-72580326D02*
X176247219Y-72580326D01*
X176247219Y-72104135D02*
X176247219Y-71532707D01*
X177247219Y-71818421D02*
X176247219Y-71818421D01*
X177342457Y-71437469D02*
X177342457Y-70675564D01*
X177199600Y-70485087D02*
X177247219Y-70342230D01*
X177247219Y-70342230D02*
X177247219Y-70104135D01*
X177247219Y-70104135D02*
X177199600Y-70008897D01*
X177199600Y-70008897D02*
X177151980Y-69961278D01*
X177151980Y-69961278D02*
X177056742Y-69913659D01*
X177056742Y-69913659D02*
X176961504Y-69913659D01*
X176961504Y-69913659D02*
X176866266Y-69961278D01*
X176866266Y-69961278D02*
X176818647Y-70008897D01*
X176818647Y-70008897D02*
X176771028Y-70104135D01*
X176771028Y-70104135D02*
X176723409Y-70294611D01*
X176723409Y-70294611D02*
X176675790Y-70389849D01*
X176675790Y-70389849D02*
X176628171Y-70437468D01*
X176628171Y-70437468D02*
X176532933Y-70485087D01*
X176532933Y-70485087D02*
X176437695Y-70485087D01*
X176437695Y-70485087D02*
X176342457Y-70437468D01*
X176342457Y-70437468D02*
X176294838Y-70389849D01*
X176294838Y-70389849D02*
X176247219Y-70294611D01*
X176247219Y-70294611D02*
X176247219Y-70056516D01*
X176247219Y-70056516D02*
X176294838Y-69913659D01*
X177247219Y-69485087D02*
X176247219Y-69485087D01*
X176294838Y-68485088D02*
X176247219Y-68580326D01*
X176247219Y-68580326D02*
X176247219Y-68723183D01*
X176247219Y-68723183D02*
X176294838Y-68866040D01*
X176294838Y-68866040D02*
X176390076Y-68961278D01*
X176390076Y-68961278D02*
X176485314Y-69008897D01*
X176485314Y-69008897D02*
X176675790Y-69056516D01*
X176675790Y-69056516D02*
X176818647Y-69056516D01*
X176818647Y-69056516D02*
X177009123Y-69008897D01*
X177009123Y-69008897D02*
X177104361Y-68961278D01*
X177104361Y-68961278D02*
X177199600Y-68866040D01*
X177199600Y-68866040D02*
X177247219Y-68723183D01*
X177247219Y-68723183D02*
X177247219Y-68627945D01*
X177247219Y-68627945D02*
X177199600Y-68485088D01*
X177199600Y-68485088D02*
X177151980Y-68437469D01*
X177151980Y-68437469D02*
X176818647Y-68437469D01*
X176818647Y-68437469D02*
X176818647Y-68627945D01*
D10*
X140627438Y-99570238D02*
X140579819Y-99665476D01*
X140579819Y-99665476D02*
X140579819Y-99808333D01*
X140579819Y-99808333D02*
X140627438Y-99951190D01*
X140627438Y-99951190D02*
X140722676Y-100046428D01*
X140722676Y-100046428D02*
X140817914Y-100094047D01*
X140817914Y-100094047D02*
X141008390Y-100141666D01*
X141008390Y-100141666D02*
X141151247Y-100141666D01*
X141151247Y-100141666D02*
X141341723Y-100094047D01*
X141341723Y-100094047D02*
X141436961Y-100046428D01*
X141436961Y-100046428D02*
X141532200Y-99951190D01*
X141532200Y-99951190D02*
X141579819Y-99808333D01*
X141579819Y-99808333D02*
X141579819Y-99713095D01*
X141579819Y-99713095D02*
X141532200Y-99570238D01*
X141532200Y-99570238D02*
X141484580Y-99522619D01*
X141484580Y-99522619D02*
X141151247Y-99522619D01*
X141151247Y-99522619D02*
X141151247Y-99713095D01*
X138932200Y-102427380D02*
X138979819Y-102284523D01*
X138979819Y-102284523D02*
X138979819Y-102046428D01*
X138979819Y-102046428D02*
X138932200Y-101951190D01*
X138932200Y-101951190D02*
X138884580Y-101903571D01*
X138884580Y-101903571D02*
X138789342Y-101855952D01*
X138789342Y-101855952D02*
X138694104Y-101855952D01*
X138694104Y-101855952D02*
X138598866Y-101903571D01*
X138598866Y-101903571D02*
X138551247Y-101951190D01*
X138551247Y-101951190D02*
X138503628Y-102046428D01*
X138503628Y-102046428D02*
X138456009Y-102236904D01*
X138456009Y-102236904D02*
X138408390Y-102332142D01*
X138408390Y-102332142D02*
X138360771Y-102379761D01*
X138360771Y-102379761D02*
X138265533Y-102427380D01*
X138265533Y-102427380D02*
X138170295Y-102427380D01*
X138170295Y-102427380D02*
X138075057Y-102379761D01*
X138075057Y-102379761D02*
X138027438Y-102332142D01*
X138027438Y-102332142D02*
X137979819Y-102236904D01*
X137979819Y-102236904D02*
X137979819Y-101998809D01*
X137979819Y-101998809D02*
X138027438Y-101855952D01*
X138979819Y-101427380D02*
X138313152Y-101427380D01*
X137979819Y-101427380D02*
X138027438Y-101474999D01*
X138027438Y-101474999D02*
X138075057Y-101427380D01*
X138075057Y-101427380D02*
X138027438Y-101379761D01*
X138027438Y-101379761D02*
X137979819Y-101427380D01*
X137979819Y-101427380D02*
X138075057Y-101427380D01*
X138313152Y-100522619D02*
X139122676Y-100522619D01*
X139122676Y-100522619D02*
X139217914Y-100570238D01*
X139217914Y-100570238D02*
X139265533Y-100617857D01*
X139265533Y-100617857D02*
X139313152Y-100713095D01*
X139313152Y-100713095D02*
X139313152Y-100855952D01*
X139313152Y-100855952D02*
X139265533Y-100951190D01*
X138932200Y-100522619D02*
X138979819Y-100617857D01*
X138979819Y-100617857D02*
X138979819Y-100808333D01*
X138979819Y-100808333D02*
X138932200Y-100903571D01*
X138932200Y-100903571D02*
X138884580Y-100951190D01*
X138884580Y-100951190D02*
X138789342Y-100998809D01*
X138789342Y-100998809D02*
X138503628Y-100998809D01*
X138503628Y-100998809D02*
X138408390Y-100951190D01*
X138408390Y-100951190D02*
X138360771Y-100903571D01*
X138360771Y-100903571D02*
X138313152Y-100808333D01*
X138313152Y-100808333D02*
X138313152Y-100617857D01*
X138313152Y-100617857D02*
X138360771Y-100522619D01*
X138313152Y-99617857D02*
X138979819Y-99617857D01*
X137932200Y-99855952D02*
X138646485Y-100094047D01*
X138646485Y-100094047D02*
X138646485Y-99475000D01*
D11*
X154158482Y-51787519D02*
X154053720Y-51712757D01*
X154053720Y-51712757D02*
X153896577Y-51712757D01*
X153896577Y-51712757D02*
X153739434Y-51787519D01*
X153739434Y-51787519D02*
X153634672Y-51937043D01*
X153634672Y-51937043D02*
X153582291Y-52086567D01*
X153582291Y-52086567D02*
X153529910Y-52385615D01*
X153529910Y-52385615D02*
X153529910Y-52609900D01*
X153529910Y-52609900D02*
X153582291Y-52908948D01*
X153582291Y-52908948D02*
X153634672Y-53058472D01*
X153634672Y-53058472D02*
X153739434Y-53207996D01*
X153739434Y-53207996D02*
X153896577Y-53282757D01*
X153896577Y-53282757D02*
X154001339Y-53282757D01*
X154001339Y-53282757D02*
X154158482Y-53207996D01*
X154158482Y-53207996D02*
X154210863Y-53133234D01*
X154210863Y-53133234D02*
X154210863Y-52609900D01*
X154210863Y-52609900D02*
X154001339Y-52609900D01*
X153791815Y-54240369D02*
X153896577Y-54240369D01*
X153896577Y-54240369D02*
X154001339Y-54315131D01*
X154001339Y-54315131D02*
X154053720Y-54389893D01*
X154053720Y-54389893D02*
X154106101Y-54539417D01*
X154106101Y-54539417D02*
X154158482Y-54838465D01*
X154158482Y-54838465D02*
X154158482Y-55212274D01*
X154158482Y-55212274D02*
X154106101Y-55511322D01*
X154106101Y-55511322D02*
X154053720Y-55660846D01*
X154053720Y-55660846D02*
X154001339Y-55735608D01*
X154001339Y-55735608D02*
X153896577Y-55810369D01*
X153896577Y-55810369D02*
X153791815Y-55810369D01*
X153791815Y-55810369D02*
X153687053Y-55735608D01*
X153687053Y-55735608D02*
X153634672Y-55660846D01*
X153634672Y-55660846D02*
X153582291Y-55511322D01*
X153582291Y-55511322D02*
X153529910Y-55212274D01*
X153529910Y-55212274D02*
X153529910Y-54838465D01*
X153529910Y-54838465D02*
X153582291Y-54539417D01*
X153582291Y-54539417D02*
X153634672Y-54389893D01*
X153634672Y-54389893D02*
X153687053Y-54315131D01*
X153687053Y-54315131D02*
X153791815Y-54240369D01*
X154158482Y-58337981D02*
X153529910Y-58337981D01*
X153844196Y-58337981D02*
X153844196Y-56767981D01*
X153844196Y-56767981D02*
X153739434Y-56992267D01*
X153739434Y-56992267D02*
X153634672Y-57141791D01*
X153634672Y-57141791D02*
X153529910Y-57216553D01*
X153529910Y-59445117D02*
X153582291Y-59370355D01*
X153582291Y-59370355D02*
X153687053Y-59295593D01*
X153687053Y-59295593D02*
X153948958Y-59295593D01*
X153948958Y-59295593D02*
X154053720Y-59370355D01*
X154053720Y-59370355D02*
X154106101Y-59445117D01*
X154106101Y-59445117D02*
X154158482Y-59594641D01*
X154158482Y-59594641D02*
X154158482Y-59744165D01*
X154158482Y-59744165D02*
X154106101Y-59968451D01*
X154106101Y-59968451D02*
X153477529Y-60865593D01*
X153477529Y-60865593D02*
X154158482Y-60865593D01*
X153477529Y-61823205D02*
X154158482Y-61823205D01*
X154158482Y-61823205D02*
X153791815Y-62421301D01*
X153791815Y-62421301D02*
X153948958Y-62421301D01*
X153948958Y-62421301D02*
X154053720Y-62496063D01*
X154053720Y-62496063D02*
X154106101Y-62570824D01*
X154106101Y-62570824D02*
X154158482Y-62720348D01*
X154158482Y-62720348D02*
X154158482Y-63094158D01*
X154158482Y-63094158D02*
X154106101Y-63243682D01*
X154106101Y-63243682D02*
X154053720Y-63318444D01*
X154053720Y-63318444D02*
X153948958Y-63393205D01*
X153948958Y-63393205D02*
X153634672Y-63393205D01*
X153634672Y-63393205D02*
X153529910Y-63318444D01*
X153529910Y-63318444D02*
X153477529Y-63243682D01*
X154053720Y-64874151D02*
X154053720Y-65920817D01*
X153791815Y-64276056D02*
X153529910Y-65397484D01*
X153529910Y-65397484D02*
X154210863Y-65397484D01*
X154106101Y-66878429D02*
X153582291Y-66878429D01*
X153582291Y-66878429D02*
X153529910Y-67626048D01*
X153529910Y-67626048D02*
X153582291Y-67551287D01*
X153582291Y-67551287D02*
X153687053Y-67476525D01*
X153687053Y-67476525D02*
X153948958Y-67476525D01*
X153948958Y-67476525D02*
X154053720Y-67551287D01*
X154053720Y-67551287D02*
X154106101Y-67626048D01*
X154106101Y-67626048D02*
X154158482Y-67775572D01*
X154158482Y-67775572D02*
X154158482Y-68149382D01*
X154158482Y-68149382D02*
X154106101Y-68298906D01*
X154106101Y-68298906D02*
X154053720Y-68373668D01*
X154053720Y-68373668D02*
X153948958Y-68448429D01*
X153948958Y-68448429D02*
X153687053Y-68448429D01*
X153687053Y-68448429D02*
X153582291Y-68373668D01*
X153582291Y-68373668D02*
X153529910Y-68298906D01*
X154053720Y-69406041D02*
X153844196Y-69406041D01*
X153844196Y-69406041D02*
X153739434Y-69480803D01*
X153739434Y-69480803D02*
X153687053Y-69555565D01*
X153687053Y-69555565D02*
X153582291Y-69779851D01*
X153582291Y-69779851D02*
X153529910Y-70078899D01*
X153529910Y-70078899D02*
X153529910Y-70676994D01*
X153529910Y-70676994D02*
X153582291Y-70826518D01*
X153582291Y-70826518D02*
X153634672Y-70901280D01*
X153634672Y-70901280D02*
X153739434Y-70976041D01*
X153739434Y-70976041D02*
X153948958Y-70976041D01*
X153948958Y-70976041D02*
X154053720Y-70901280D01*
X154053720Y-70901280D02*
X154106101Y-70826518D01*
X154106101Y-70826518D02*
X154158482Y-70676994D01*
X154158482Y-70676994D02*
X154158482Y-70303184D01*
X154158482Y-70303184D02*
X154106101Y-70153660D01*
X154106101Y-70153660D02*
X154053720Y-70078899D01*
X154053720Y-70078899D02*
X153948958Y-70004137D01*
X153948958Y-70004137D02*
X153739434Y-70004137D01*
X153739434Y-70004137D02*
X153634672Y-70078899D01*
X153634672Y-70078899D02*
X153582291Y-70153660D01*
X153582291Y-70153660D02*
X153529910Y-70303184D01*
X153477529Y-71933653D02*
X154210863Y-71933653D01*
X154210863Y-71933653D02*
X153739434Y-73503653D01*
X153739434Y-75134123D02*
X153634672Y-75059361D01*
X153634672Y-75059361D02*
X153582291Y-74984599D01*
X153582291Y-74984599D02*
X153529910Y-74835075D01*
X153529910Y-74835075D02*
X153529910Y-74760313D01*
X153529910Y-74760313D02*
X153582291Y-74610789D01*
X153582291Y-74610789D02*
X153634672Y-74536027D01*
X153634672Y-74536027D02*
X153739434Y-74461265D01*
X153739434Y-74461265D02*
X153948958Y-74461265D01*
X153948958Y-74461265D02*
X154053720Y-74536027D01*
X154053720Y-74536027D02*
X154106101Y-74610789D01*
X154106101Y-74610789D02*
X154158482Y-74760313D01*
X154158482Y-74760313D02*
X154158482Y-74835075D01*
X154158482Y-74835075D02*
X154106101Y-74984599D01*
X154106101Y-74984599D02*
X154053720Y-75059361D01*
X154053720Y-75059361D02*
X153948958Y-75134123D01*
X153948958Y-75134123D02*
X153739434Y-75134123D01*
X153739434Y-75134123D02*
X153634672Y-75208884D01*
X153634672Y-75208884D02*
X153582291Y-75283646D01*
X153582291Y-75283646D02*
X153529910Y-75433170D01*
X153529910Y-75433170D02*
X153529910Y-75732218D01*
X153529910Y-75732218D02*
X153582291Y-75881742D01*
X153582291Y-75881742D02*
X153634672Y-75956504D01*
X153634672Y-75956504D02*
X153739434Y-76031265D01*
X153739434Y-76031265D02*
X153948958Y-76031265D01*
X153948958Y-76031265D02*
X154053720Y-75956504D01*
X154053720Y-75956504D02*
X154106101Y-75881742D01*
X154106101Y-75881742D02*
X154158482Y-75732218D01*
X154158482Y-75732218D02*
X154158482Y-75433170D01*
X154158482Y-75433170D02*
X154106101Y-75283646D01*
X154106101Y-75283646D02*
X154053720Y-75208884D01*
X154053720Y-75208884D02*
X153948958Y-75134123D01*
X153634672Y-78558877D02*
X153844196Y-78558877D01*
X153844196Y-78558877D02*
X153948958Y-78484116D01*
X153948958Y-78484116D02*
X154001339Y-78409354D01*
X154001339Y-78409354D02*
X154106101Y-78185068D01*
X154106101Y-78185068D02*
X154158482Y-77886020D01*
X154158482Y-77886020D02*
X154158482Y-77287925D01*
X154158482Y-77287925D02*
X154106101Y-77138401D01*
X154106101Y-77138401D02*
X154053720Y-77063639D01*
X154053720Y-77063639D02*
X153948958Y-76988877D01*
X153948958Y-76988877D02*
X153739434Y-76988877D01*
X153739434Y-76988877D02*
X153634672Y-77063639D01*
X153634672Y-77063639D02*
X153582291Y-77138401D01*
X153582291Y-77138401D02*
X153529910Y-77287925D01*
X153529910Y-77287925D02*
X153529910Y-77661735D01*
X153529910Y-77661735D02*
X153582291Y-77811258D01*
X153582291Y-77811258D02*
X153634672Y-77886020D01*
X153634672Y-77886020D02*
X153739434Y-77960782D01*
X153739434Y-77960782D02*
X153948958Y-77960782D01*
X153948958Y-77960782D02*
X154053720Y-77886020D01*
X154053720Y-77886020D02*
X154106101Y-77811258D01*
X154106101Y-77811258D02*
X154158482Y-77661735D01*
X154158482Y-81086489D02*
X153529910Y-81086489D01*
X153844196Y-81086489D02*
X153844196Y-79516489D01*
X153844196Y-79516489D02*
X153739434Y-79740775D01*
X153739434Y-79740775D02*
X153634672Y-79890299D01*
X153634672Y-79890299D02*
X153529910Y-79965061D01*
X154839434Y-79516489D02*
X154944196Y-79516489D01*
X154944196Y-79516489D02*
X155048958Y-79591251D01*
X155048958Y-79591251D02*
X155101339Y-79666013D01*
X155101339Y-79666013D02*
X155153720Y-79815537D01*
X155153720Y-79815537D02*
X155206101Y-80114585D01*
X155206101Y-80114585D02*
X155206101Y-80488394D01*
X155206101Y-80488394D02*
X155153720Y-80787442D01*
X155153720Y-80787442D02*
X155101339Y-80936966D01*
X155101339Y-80936966D02*
X155048958Y-81011728D01*
X155048958Y-81011728D02*
X154944196Y-81086489D01*
X154944196Y-81086489D02*
X154839434Y-81086489D01*
X154839434Y-81086489D02*
X154734672Y-81011728D01*
X154734672Y-81011728D02*
X154682291Y-80936966D01*
X154682291Y-80936966D02*
X154629910Y-80787442D01*
X154629910Y-80787442D02*
X154577529Y-80488394D01*
X154577529Y-80488394D02*
X154577529Y-80114585D01*
X154577529Y-80114585D02*
X154629910Y-79815537D01*
X154629910Y-79815537D02*
X154682291Y-79666013D01*
X154682291Y-79666013D02*
X154734672Y-79591251D01*
X154734672Y-79591251D02*
X154839434Y-79516489D01*
X154158482Y-83614101D02*
X153529910Y-83614101D01*
X153844196Y-83614101D02*
X153844196Y-82044101D01*
X153844196Y-82044101D02*
X153739434Y-82268387D01*
X153739434Y-82268387D02*
X153634672Y-82417911D01*
X153634672Y-82417911D02*
X153529910Y-82492673D01*
X155206101Y-83614101D02*
X154577529Y-83614101D01*
X154891815Y-83614101D02*
X154891815Y-82044101D01*
X154891815Y-82044101D02*
X154787053Y-82268387D01*
X154787053Y-82268387D02*
X154682291Y-82417911D01*
X154682291Y-82417911D02*
X154577529Y-82492673D01*
D10*
X123688095Y-54804819D02*
X123354762Y-54328628D01*
X123116667Y-54804819D02*
X123116667Y-53804819D01*
X123116667Y-53804819D02*
X123497619Y-53804819D01*
X123497619Y-53804819D02*
X123592857Y-53852438D01*
X123592857Y-53852438D02*
X123640476Y-53900057D01*
X123640476Y-53900057D02*
X123688095Y-53995295D01*
X123688095Y-53995295D02*
X123688095Y-54138152D01*
X123688095Y-54138152D02*
X123640476Y-54233390D01*
X123640476Y-54233390D02*
X123592857Y-54281009D01*
X123592857Y-54281009D02*
X123497619Y-54328628D01*
X123497619Y-54328628D02*
X123116667Y-54328628D01*
X124021429Y-53804819D02*
X124688095Y-54804819D01*
X124688095Y-53804819D02*
X124021429Y-54804819D01*
X125592857Y-54804819D02*
X125021429Y-54804819D01*
X125307143Y-54804819D02*
X125307143Y-53804819D01*
X125307143Y-53804819D02*
X125211905Y-53947676D01*
X125211905Y-53947676D02*
X125116667Y-54042914D01*
X125116667Y-54042914D02*
X125021429Y-54090533D01*
D14*
X136686265Y-73709416D02*
X136686265Y-72909416D01*
X137067217Y-73709416D02*
X137067217Y-72909416D01*
X137067217Y-72909416D02*
X137333883Y-73480844D01*
X137333883Y-73480844D02*
X137600550Y-72909416D01*
X137600550Y-72909416D02*
X137600550Y-73709416D01*
X137981503Y-72909416D02*
X137981503Y-73557035D01*
X137981503Y-73557035D02*
X138019598Y-73633225D01*
X138019598Y-73633225D02*
X138057693Y-73671321D01*
X138057693Y-73671321D02*
X138133884Y-73709416D01*
X138133884Y-73709416D02*
X138286265Y-73709416D01*
X138286265Y-73709416D02*
X138362455Y-73671321D01*
X138362455Y-73671321D02*
X138400550Y-73633225D01*
X138400550Y-73633225D02*
X138438646Y-73557035D01*
X138438646Y-73557035D02*
X138438646Y-72909416D01*
X138781502Y-72985606D02*
X138819598Y-72947511D01*
X138819598Y-72947511D02*
X138895788Y-72909416D01*
X138895788Y-72909416D02*
X139086264Y-72909416D01*
X139086264Y-72909416D02*
X139162455Y-72947511D01*
X139162455Y-72947511D02*
X139200550Y-72985606D01*
X139200550Y-72985606D02*
X139238645Y-73061797D01*
X139238645Y-73061797D02*
X139238645Y-73137987D01*
X139238645Y-73137987D02*
X139200550Y-73252273D01*
X139200550Y-73252273D02*
X138743407Y-73709416D01*
X138743407Y-73709416D02*
X139238645Y-73709416D01*
D10*
X118060714Y-56497438D02*
X117965476Y-56449819D01*
X117965476Y-56449819D02*
X117822619Y-56449819D01*
X117822619Y-56449819D02*
X117679762Y-56497438D01*
X117679762Y-56497438D02*
X117584524Y-56592676D01*
X117584524Y-56592676D02*
X117536905Y-56687914D01*
X117536905Y-56687914D02*
X117489286Y-56878390D01*
X117489286Y-56878390D02*
X117489286Y-57021247D01*
X117489286Y-57021247D02*
X117536905Y-57211723D01*
X117536905Y-57211723D02*
X117584524Y-57306961D01*
X117584524Y-57306961D02*
X117679762Y-57402200D01*
X117679762Y-57402200D02*
X117822619Y-57449819D01*
X117822619Y-57449819D02*
X117917857Y-57449819D01*
X117917857Y-57449819D02*
X118060714Y-57402200D01*
X118060714Y-57402200D02*
X118108333Y-57354580D01*
X118108333Y-57354580D02*
X118108333Y-57021247D01*
X118108333Y-57021247D02*
X117917857Y-57021247D01*
X133177438Y-51291666D02*
X133129819Y-51386904D01*
X133129819Y-51386904D02*
X133129819Y-51529761D01*
X133129819Y-51529761D02*
X133177438Y-51672618D01*
X133177438Y-51672618D02*
X133272676Y-51767856D01*
X133272676Y-51767856D02*
X133367914Y-51815475D01*
X133367914Y-51815475D02*
X133558390Y-51863094D01*
X133558390Y-51863094D02*
X133701247Y-51863094D01*
X133701247Y-51863094D02*
X133891723Y-51815475D01*
X133891723Y-51815475D02*
X133986961Y-51767856D01*
X133986961Y-51767856D02*
X134082200Y-51672618D01*
X134082200Y-51672618D02*
X134129819Y-51529761D01*
X134129819Y-51529761D02*
X134129819Y-51434523D01*
X134129819Y-51434523D02*
X134082200Y-51291666D01*
X134082200Y-51291666D02*
X134034580Y-51244047D01*
X134034580Y-51244047D02*
X133701247Y-51244047D01*
X133701247Y-51244047D02*
X133701247Y-51434523D01*
D13*
X157889684Y-49091054D02*
X158318256Y-50233911D01*
X158318256Y-50233911D02*
X158746827Y-49091054D01*
X158318256Y-48376768D02*
X158318256Y-47233911D01*
X158318256Y-46519625D02*
X158318256Y-45376768D01*
D12*
X177267219Y-67000326D02*
X176267219Y-67000326D01*
X177362457Y-66762232D02*
X177362457Y-66000327D01*
X177219600Y-65809850D02*
X177267219Y-65666993D01*
X177267219Y-65666993D02*
X177267219Y-65428898D01*
X177267219Y-65428898D02*
X177219600Y-65333660D01*
X177219600Y-65333660D02*
X177171980Y-65286041D01*
X177171980Y-65286041D02*
X177076742Y-65238422D01*
X177076742Y-65238422D02*
X176981504Y-65238422D01*
X176981504Y-65238422D02*
X176886266Y-65286041D01*
X176886266Y-65286041D02*
X176838647Y-65333660D01*
X176838647Y-65333660D02*
X176791028Y-65428898D01*
X176791028Y-65428898D02*
X176743409Y-65619374D01*
X176743409Y-65619374D02*
X176695790Y-65714612D01*
X176695790Y-65714612D02*
X176648171Y-65762231D01*
X176648171Y-65762231D02*
X176552933Y-65809850D01*
X176552933Y-65809850D02*
X176457695Y-65809850D01*
X176457695Y-65809850D02*
X176362457Y-65762231D01*
X176362457Y-65762231D02*
X176314838Y-65714612D01*
X176314838Y-65714612D02*
X176267219Y-65619374D01*
X176267219Y-65619374D02*
X176267219Y-65381279D01*
X176267219Y-65381279D02*
X176314838Y-65238422D01*
X177267219Y-64809850D02*
X176267219Y-64809850D01*
X176314838Y-63809851D02*
X176267219Y-63905089D01*
X176267219Y-63905089D02*
X176267219Y-64047946D01*
X176267219Y-64047946D02*
X176314838Y-64190803D01*
X176314838Y-64190803D02*
X176410076Y-64286041D01*
X176410076Y-64286041D02*
X176505314Y-64333660D01*
X176505314Y-64333660D02*
X176695790Y-64381279D01*
X176695790Y-64381279D02*
X176838647Y-64381279D01*
X176838647Y-64381279D02*
X177029123Y-64333660D01*
X177029123Y-64333660D02*
X177124361Y-64286041D01*
X177124361Y-64286041D02*
X177219600Y-64190803D01*
X177219600Y-64190803D02*
X177267219Y-64047946D01*
X177267219Y-64047946D02*
X177267219Y-63952708D01*
X177267219Y-63952708D02*
X177219600Y-63809851D01*
X177219600Y-63809851D02*
X177171980Y-63762232D01*
X177171980Y-63762232D02*
X176838647Y-63762232D01*
X176838647Y-63762232D02*
X176838647Y-63952708D01*
D10*
X146707200Y-51863094D02*
X146754819Y-51720237D01*
X146754819Y-51720237D02*
X146754819Y-51482142D01*
X146754819Y-51482142D02*
X146707200Y-51386904D01*
X146707200Y-51386904D02*
X146659580Y-51339285D01*
X146659580Y-51339285D02*
X146564342Y-51291666D01*
X146564342Y-51291666D02*
X146469104Y-51291666D01*
X146469104Y-51291666D02*
X146373866Y-51339285D01*
X146373866Y-51339285D02*
X146326247Y-51386904D01*
X146326247Y-51386904D02*
X146278628Y-51482142D01*
X146278628Y-51482142D02*
X146231009Y-51672618D01*
X146231009Y-51672618D02*
X146183390Y-51767856D01*
X146183390Y-51767856D02*
X146135771Y-51815475D01*
X146135771Y-51815475D02*
X146040533Y-51863094D01*
X146040533Y-51863094D02*
X145945295Y-51863094D01*
X145945295Y-51863094D02*
X145850057Y-51815475D01*
X145850057Y-51815475D02*
X145802438Y-51767856D01*
X145802438Y-51767856D02*
X145754819Y-51672618D01*
X145754819Y-51672618D02*
X145754819Y-51434523D01*
X145754819Y-51434523D02*
X145802438Y-51291666D01*
X146754819Y-50863094D02*
X146088152Y-50863094D01*
X145754819Y-50863094D02*
X145802438Y-50910713D01*
X145802438Y-50910713D02*
X145850057Y-50863094D01*
X145850057Y-50863094D02*
X145802438Y-50815475D01*
X145802438Y-50815475D02*
X145754819Y-50863094D01*
X145754819Y-50863094D02*
X145850057Y-50863094D01*
X146088152Y-49958333D02*
X146897676Y-49958333D01*
X146897676Y-49958333D02*
X146992914Y-50005952D01*
X146992914Y-50005952D02*
X147040533Y-50053571D01*
X147040533Y-50053571D02*
X147088152Y-50148809D01*
X147088152Y-50148809D02*
X147088152Y-50291666D01*
X147088152Y-50291666D02*
X147040533Y-50386904D01*
X146707200Y-49958333D02*
X146754819Y-50053571D01*
X146754819Y-50053571D02*
X146754819Y-50244047D01*
X146754819Y-50244047D02*
X146707200Y-50339285D01*
X146707200Y-50339285D02*
X146659580Y-50386904D01*
X146659580Y-50386904D02*
X146564342Y-50434523D01*
X146564342Y-50434523D02*
X146278628Y-50434523D01*
X146278628Y-50434523D02*
X146183390Y-50386904D01*
X146183390Y-50386904D02*
X146135771Y-50339285D01*
X146135771Y-50339285D02*
X146088152Y-50244047D01*
X146088152Y-50244047D02*
X146088152Y-50053571D01*
X146088152Y-50053571D02*
X146135771Y-49958333D01*
X145850057Y-49529761D02*
X145802438Y-49482142D01*
X145802438Y-49482142D02*
X145754819Y-49386904D01*
X145754819Y-49386904D02*
X145754819Y-49148809D01*
X145754819Y-49148809D02*
X145802438Y-49053571D01*
X145802438Y-49053571D02*
X145850057Y-49005952D01*
X145850057Y-49005952D02*
X145945295Y-48958333D01*
X145945295Y-48958333D02*
X146040533Y-48958333D01*
X146040533Y-48958333D02*
X146183390Y-49005952D01*
X146183390Y-49005952D02*
X146754819Y-49577380D01*
X146754819Y-49577380D02*
X146754819Y-48958333D01*
X159295075Y-49098560D02*
X160104598Y-49098560D01*
X160104598Y-49098560D02*
X160199836Y-49050941D01*
X160199836Y-49050941D02*
X160247456Y-49003322D01*
X160247456Y-49003322D02*
X160295075Y-48908084D01*
X160295075Y-48908084D02*
X160295075Y-48717608D01*
X160295075Y-48717608D02*
X160247456Y-48622370D01*
X160247456Y-48622370D02*
X160199836Y-48574751D01*
X160199836Y-48574751D02*
X160104598Y-48527132D01*
X160104598Y-48527132D02*
X159295075Y-48527132D01*
X160247456Y-48098560D02*
X160295075Y-47955703D01*
X160295075Y-47955703D02*
X160295075Y-47717608D01*
X160295075Y-47717608D02*
X160247456Y-47622370D01*
X160247456Y-47622370D02*
X160199836Y-47574751D01*
X160199836Y-47574751D02*
X160104598Y-47527132D01*
X160104598Y-47527132D02*
X160009360Y-47527132D01*
X160009360Y-47527132D02*
X159914122Y-47574751D01*
X159914122Y-47574751D02*
X159866503Y-47622370D01*
X159866503Y-47622370D02*
X159818884Y-47717608D01*
X159818884Y-47717608D02*
X159771265Y-47908084D01*
X159771265Y-47908084D02*
X159723646Y-48003322D01*
X159723646Y-48003322D02*
X159676027Y-48050941D01*
X159676027Y-48050941D02*
X159580789Y-48098560D01*
X159580789Y-48098560D02*
X159485551Y-48098560D01*
X159485551Y-48098560D02*
X159390313Y-48050941D01*
X159390313Y-48050941D02*
X159342694Y-48003322D01*
X159342694Y-48003322D02*
X159295075Y-47908084D01*
X159295075Y-47908084D02*
X159295075Y-47669989D01*
X159295075Y-47669989D02*
X159342694Y-47527132D01*
X159771265Y-46765227D02*
X159818884Y-46622370D01*
X159818884Y-46622370D02*
X159866503Y-46574751D01*
X159866503Y-46574751D02*
X159961741Y-46527132D01*
X159961741Y-46527132D02*
X160104598Y-46527132D01*
X160104598Y-46527132D02*
X160199836Y-46574751D01*
X160199836Y-46574751D02*
X160247456Y-46622370D01*
X160247456Y-46622370D02*
X160295075Y-46717608D01*
X160295075Y-46717608D02*
X160295075Y-47098560D01*
X160295075Y-47098560D02*
X159295075Y-47098560D01*
X159295075Y-47098560D02*
X159295075Y-46765227D01*
X159295075Y-46765227D02*
X159342694Y-46669989D01*
X159342694Y-46669989D02*
X159390313Y-46622370D01*
X159390313Y-46622370D02*
X159485551Y-46574751D01*
X159485551Y-46574751D02*
X159580789Y-46574751D01*
X159580789Y-46574751D02*
X159676027Y-46622370D01*
X159676027Y-46622370D02*
X159723646Y-46669989D01*
X159723646Y-46669989D02*
X159771265Y-46765227D01*
X159771265Y-46765227D02*
X159771265Y-47098560D01*
X139007200Y-51863094D02*
X139054819Y-51720237D01*
X139054819Y-51720237D02*
X139054819Y-51482142D01*
X139054819Y-51482142D02*
X139007200Y-51386904D01*
X139007200Y-51386904D02*
X138959580Y-51339285D01*
X138959580Y-51339285D02*
X138864342Y-51291666D01*
X138864342Y-51291666D02*
X138769104Y-51291666D01*
X138769104Y-51291666D02*
X138673866Y-51339285D01*
X138673866Y-51339285D02*
X138626247Y-51386904D01*
X138626247Y-51386904D02*
X138578628Y-51482142D01*
X138578628Y-51482142D02*
X138531009Y-51672618D01*
X138531009Y-51672618D02*
X138483390Y-51767856D01*
X138483390Y-51767856D02*
X138435771Y-51815475D01*
X138435771Y-51815475D02*
X138340533Y-51863094D01*
X138340533Y-51863094D02*
X138245295Y-51863094D01*
X138245295Y-51863094D02*
X138150057Y-51815475D01*
X138150057Y-51815475D02*
X138102438Y-51767856D01*
X138102438Y-51767856D02*
X138054819Y-51672618D01*
X138054819Y-51672618D02*
X138054819Y-51434523D01*
X138054819Y-51434523D02*
X138102438Y-51291666D01*
X139054819Y-50863094D02*
X138388152Y-50863094D01*
X138054819Y-50863094D02*
X138102438Y-50910713D01*
X138102438Y-50910713D02*
X138150057Y-50863094D01*
X138150057Y-50863094D02*
X138102438Y-50815475D01*
X138102438Y-50815475D02*
X138054819Y-50863094D01*
X138054819Y-50863094D02*
X138150057Y-50863094D01*
X138388152Y-49958333D02*
X139197676Y-49958333D01*
X139197676Y-49958333D02*
X139292914Y-50005952D01*
X139292914Y-50005952D02*
X139340533Y-50053571D01*
X139340533Y-50053571D02*
X139388152Y-50148809D01*
X139388152Y-50148809D02*
X139388152Y-50291666D01*
X139388152Y-50291666D02*
X139340533Y-50386904D01*
X139007200Y-49958333D02*
X139054819Y-50053571D01*
X139054819Y-50053571D02*
X139054819Y-50244047D01*
X139054819Y-50244047D02*
X139007200Y-50339285D01*
X139007200Y-50339285D02*
X138959580Y-50386904D01*
X138959580Y-50386904D02*
X138864342Y-50434523D01*
X138864342Y-50434523D02*
X138578628Y-50434523D01*
X138578628Y-50434523D02*
X138483390Y-50386904D01*
X138483390Y-50386904D02*
X138435771Y-50339285D01*
X138435771Y-50339285D02*
X138388152Y-50244047D01*
X138388152Y-50244047D02*
X138388152Y-50053571D01*
X138388152Y-50053571D02*
X138435771Y-49958333D01*
X139054819Y-48958333D02*
X139054819Y-49529761D01*
X139054819Y-49244047D02*
X138054819Y-49244047D01*
X138054819Y-49244047D02*
X138197676Y-49339285D01*
X138197676Y-49339285D02*
X138292914Y-49434523D01*
X138292914Y-49434523D02*
X138340533Y-49529761D01*
D14*
X146454895Y-76959734D02*
X145654895Y-76959734D01*
X146454895Y-76578782D02*
X145654895Y-76578782D01*
X145654895Y-76578782D02*
X146226323Y-76312116D01*
X146226323Y-76312116D02*
X145654895Y-76045449D01*
X145654895Y-76045449D02*
X146454895Y-76045449D01*
X145654895Y-75664496D02*
X146302514Y-75664496D01*
X146302514Y-75664496D02*
X146378704Y-75626401D01*
X146378704Y-75626401D02*
X146416800Y-75588306D01*
X146416800Y-75588306D02*
X146454895Y-75512115D01*
X146454895Y-75512115D02*
X146454895Y-75359734D01*
X146454895Y-75359734D02*
X146416800Y-75283544D01*
X146416800Y-75283544D02*
X146378704Y-75245449D01*
X146378704Y-75245449D02*
X146302514Y-75207353D01*
X146302514Y-75207353D02*
X145654895Y-75207353D01*
X146454895Y-74407354D02*
X146454895Y-74864497D01*
X146454895Y-74635925D02*
X145654895Y-74635925D01*
X145654895Y-74635925D02*
X145769180Y-74712116D01*
X145769180Y-74712116D02*
X145845371Y-74788306D01*
X145845371Y-74788306D02*
X145883466Y-74864497D01*
D12*
X174890326Y-38763733D02*
X174128422Y-38763733D01*
X174509374Y-38382780D02*
X174509374Y-39144685D01*
X173176041Y-39382780D02*
X173652231Y-39382780D01*
X173652231Y-39382780D02*
X173699850Y-38906590D01*
X173699850Y-38906590D02*
X173652231Y-38954209D01*
X173652231Y-38954209D02*
X173556993Y-39001828D01*
X173556993Y-39001828D02*
X173318898Y-39001828D01*
X173318898Y-39001828D02*
X173223660Y-38954209D01*
X173223660Y-38954209D02*
X173176041Y-38906590D01*
X173176041Y-38906590D02*
X173128422Y-38811352D01*
X173128422Y-38811352D02*
X173128422Y-38573257D01*
X173128422Y-38573257D02*
X173176041Y-38478019D01*
X173176041Y-38478019D02*
X173223660Y-38430400D01*
X173223660Y-38430400D02*
X173318898Y-38382780D01*
X173318898Y-38382780D02*
X173556993Y-38382780D01*
X173556993Y-38382780D02*
X173652231Y-38430400D01*
X173652231Y-38430400D02*
X173699850Y-38478019D01*
X172842707Y-39382780D02*
X172509374Y-38382780D01*
X172509374Y-38382780D02*
X172176041Y-39382780D01*
D10*
X135963866Y-104798475D02*
X135963866Y-104036571D01*
X136344819Y-104417523D02*
X135582914Y-104417523D01*
X135344819Y-103084190D02*
X135344819Y-103560380D01*
X135344819Y-103560380D02*
X135821009Y-103607999D01*
X135821009Y-103607999D02*
X135773390Y-103560380D01*
X135773390Y-103560380D02*
X135725771Y-103465142D01*
X135725771Y-103465142D02*
X135725771Y-103227047D01*
X135725771Y-103227047D02*
X135773390Y-103131809D01*
X135773390Y-103131809D02*
X135821009Y-103084190D01*
X135821009Y-103084190D02*
X135916247Y-103036571D01*
X135916247Y-103036571D02*
X136154342Y-103036571D01*
X136154342Y-103036571D02*
X136249580Y-103084190D01*
X136249580Y-103084190D02*
X136297200Y-103131809D01*
X136297200Y-103131809D02*
X136344819Y-103227047D01*
X136344819Y-103227047D02*
X136344819Y-103465142D01*
X136344819Y-103465142D02*
X136297200Y-103560380D01*
X136297200Y-103560380D02*
X136249580Y-103607999D01*
X135344819Y-102750856D02*
X136344819Y-102417523D01*
X136344819Y-102417523D02*
X135344819Y-102084190D01*
X136440057Y-101988952D02*
X136440057Y-101227047D01*
X136344819Y-100988951D02*
X135344819Y-100988951D01*
X135344819Y-100988951D02*
X136344819Y-100417523D01*
X136344819Y-100417523D02*
X135344819Y-100417523D01*
X136249580Y-99369904D02*
X136297200Y-99417523D01*
X136297200Y-99417523D02*
X136344819Y-99560380D01*
X136344819Y-99560380D02*
X136344819Y-99655618D01*
X136344819Y-99655618D02*
X136297200Y-99798475D01*
X136297200Y-99798475D02*
X136201961Y-99893713D01*
X136201961Y-99893713D02*
X136106723Y-99941332D01*
X136106723Y-99941332D02*
X135916247Y-99988951D01*
X135916247Y-99988951D02*
X135773390Y-99988951D01*
X135773390Y-99988951D02*
X135582914Y-99941332D01*
X135582914Y-99941332D02*
X135487676Y-99893713D01*
X135487676Y-99893713D02*
X135392438Y-99798475D01*
X135392438Y-99798475D02*
X135344819Y-99655618D01*
X135344819Y-99655618D02*
X135344819Y-99560380D01*
X135344819Y-99560380D02*
X135392438Y-99417523D01*
X135392438Y-99417523D02*
X135440057Y-99369904D01*
X140777438Y-51291666D02*
X140729819Y-51386904D01*
X140729819Y-51386904D02*
X140729819Y-51529761D01*
X140729819Y-51529761D02*
X140777438Y-51672618D01*
X140777438Y-51672618D02*
X140872676Y-51767856D01*
X140872676Y-51767856D02*
X140967914Y-51815475D01*
X140967914Y-51815475D02*
X141158390Y-51863094D01*
X141158390Y-51863094D02*
X141301247Y-51863094D01*
X141301247Y-51863094D02*
X141491723Y-51815475D01*
X141491723Y-51815475D02*
X141586961Y-51767856D01*
X141586961Y-51767856D02*
X141682200Y-51672618D01*
X141682200Y-51672618D02*
X141729819Y-51529761D01*
X141729819Y-51529761D02*
X141729819Y-51434523D01*
X141729819Y-51434523D02*
X141682200Y-51291666D01*
X141682200Y-51291666D02*
X141634580Y-51244047D01*
X141634580Y-51244047D02*
X141301247Y-51244047D01*
X141301247Y-51244047D02*
X141301247Y-51434523D01*
X143748866Y-104951190D02*
X143748866Y-104189286D01*
X144129819Y-104570238D02*
X143367914Y-104570238D01*
X143129819Y-103236905D02*
X143129819Y-103713095D01*
X143129819Y-103713095D02*
X143606009Y-103760714D01*
X143606009Y-103760714D02*
X143558390Y-103713095D01*
X143558390Y-103713095D02*
X143510771Y-103617857D01*
X143510771Y-103617857D02*
X143510771Y-103379762D01*
X143510771Y-103379762D02*
X143558390Y-103284524D01*
X143558390Y-103284524D02*
X143606009Y-103236905D01*
X143606009Y-103236905D02*
X143701247Y-103189286D01*
X143701247Y-103189286D02*
X143939342Y-103189286D01*
X143939342Y-103189286D02*
X144034580Y-103236905D01*
X144034580Y-103236905D02*
X144082200Y-103284524D01*
X144082200Y-103284524D02*
X144129819Y-103379762D01*
X144129819Y-103379762D02*
X144129819Y-103617857D01*
X144129819Y-103617857D02*
X144082200Y-103713095D01*
X144082200Y-103713095D02*
X144034580Y-103760714D01*
X143129819Y-102903571D02*
X144129819Y-102570238D01*
X144129819Y-102570238D02*
X143129819Y-102236905D01*
X144225057Y-102141667D02*
X144225057Y-101379762D01*
X144129819Y-101141666D02*
X143129819Y-101141666D01*
X143129819Y-101141666D02*
X144129819Y-100570238D01*
X144129819Y-100570238D02*
X143129819Y-100570238D01*
X144034580Y-99522619D02*
X144082200Y-99570238D01*
X144082200Y-99570238D02*
X144129819Y-99713095D01*
X144129819Y-99713095D02*
X144129819Y-99808333D01*
X144129819Y-99808333D02*
X144082200Y-99951190D01*
X144082200Y-99951190D02*
X143986961Y-100046428D01*
X143986961Y-100046428D02*
X143891723Y-100094047D01*
X143891723Y-100094047D02*
X143701247Y-100141666D01*
X143701247Y-100141666D02*
X143558390Y-100141666D01*
X143558390Y-100141666D02*
X143367914Y-100094047D01*
X143367914Y-100094047D02*
X143272676Y-100046428D01*
X143272676Y-100046428D02*
X143177438Y-99951190D01*
X143177438Y-99951190D02*
X143129819Y-99808333D01*
X143129819Y-99808333D02*
X143129819Y-99713095D01*
X143129819Y-99713095D02*
X143177438Y-99570238D01*
X143177438Y-99570238D02*
X143225057Y-99522619D01*
X125545238Y-51477438D02*
X125450000Y-51429819D01*
X125450000Y-51429819D02*
X125307143Y-51429819D01*
X125307143Y-51429819D02*
X125164286Y-51477438D01*
X125164286Y-51477438D02*
X125069048Y-51572676D01*
X125069048Y-51572676D02*
X125021429Y-51667914D01*
X125021429Y-51667914D02*
X124973810Y-51858390D01*
X124973810Y-51858390D02*
X124973810Y-52001247D01*
X124973810Y-52001247D02*
X125021429Y-52191723D01*
X125021429Y-52191723D02*
X125069048Y-52286961D01*
X125069048Y-52286961D02*
X125164286Y-52382200D01*
X125164286Y-52382200D02*
X125307143Y-52429819D01*
X125307143Y-52429819D02*
X125402381Y-52429819D01*
X125402381Y-52429819D02*
X125545238Y-52382200D01*
X125545238Y-52382200D02*
X125592857Y-52334580D01*
X125592857Y-52334580D02*
X125592857Y-52001247D01*
X125592857Y-52001247D02*
X125402381Y-52001247D01*
D12*
X134930189Y-94844980D02*
X134882570Y-94892600D01*
X134882570Y-94892600D02*
X134739713Y-94940219D01*
X134739713Y-94940219D02*
X134644475Y-94940219D01*
X134644475Y-94940219D02*
X134501618Y-94892600D01*
X134501618Y-94892600D02*
X134406380Y-94797361D01*
X134406380Y-94797361D02*
X134358761Y-94702123D01*
X134358761Y-94702123D02*
X134311142Y-94511647D01*
X134311142Y-94511647D02*
X134311142Y-94368790D01*
X134311142Y-94368790D02*
X134358761Y-94178314D01*
X134358761Y-94178314D02*
X134406380Y-94083076D01*
X134406380Y-94083076D02*
X134501618Y-93987838D01*
X134501618Y-93987838D02*
X134644475Y-93940219D01*
X134644475Y-93940219D02*
X134739713Y-93940219D01*
X134739713Y-93940219D02*
X134882570Y-93987838D01*
X134882570Y-93987838D02*
X134930189Y-94035457D01*
X135501618Y-94940219D02*
X135406380Y-94892600D01*
X135406380Y-94892600D02*
X135358761Y-94844980D01*
X135358761Y-94844980D02*
X135311142Y-94749742D01*
X135311142Y-94749742D02*
X135311142Y-94464028D01*
X135311142Y-94464028D02*
X135358761Y-94368790D01*
X135358761Y-94368790D02*
X135406380Y-94321171D01*
X135406380Y-94321171D02*
X135501618Y-94273552D01*
X135501618Y-94273552D02*
X135644475Y-94273552D01*
X135644475Y-94273552D02*
X135739713Y-94321171D01*
X135739713Y-94321171D02*
X135787332Y-94368790D01*
X135787332Y-94368790D02*
X135834951Y-94464028D01*
X135834951Y-94464028D02*
X135834951Y-94749742D01*
X135834951Y-94749742D02*
X135787332Y-94844980D01*
X135787332Y-94844980D02*
X135739713Y-94892600D01*
X135739713Y-94892600D02*
X135644475Y-94940219D01*
X135644475Y-94940219D02*
X135501618Y-94940219D01*
X136263523Y-94273552D02*
X136263523Y-94940219D01*
X136263523Y-94368790D02*
X136311142Y-94321171D01*
X136311142Y-94321171D02*
X136406380Y-94273552D01*
X136406380Y-94273552D02*
X136549237Y-94273552D01*
X136549237Y-94273552D02*
X136644475Y-94321171D01*
X136644475Y-94321171D02*
X136692094Y-94416409D01*
X136692094Y-94416409D02*
X136692094Y-94940219D01*
X137025428Y-94273552D02*
X137406380Y-94273552D01*
X137168285Y-93940219D02*
X137168285Y-94797361D01*
X137168285Y-94797361D02*
X137215904Y-94892600D01*
X137215904Y-94892600D02*
X137311142Y-94940219D01*
X137311142Y-94940219D02*
X137406380Y-94940219D01*
X137739714Y-94940219D02*
X137739714Y-94273552D01*
X137739714Y-94464028D02*
X137787333Y-94368790D01*
X137787333Y-94368790D02*
X137834952Y-94321171D01*
X137834952Y-94321171D02*
X137930190Y-94273552D01*
X137930190Y-94273552D02*
X138025428Y-94273552D01*
X138501619Y-94940219D02*
X138406381Y-94892600D01*
X138406381Y-94892600D02*
X138358762Y-94844980D01*
X138358762Y-94844980D02*
X138311143Y-94749742D01*
X138311143Y-94749742D02*
X138311143Y-94464028D01*
X138311143Y-94464028D02*
X138358762Y-94368790D01*
X138358762Y-94368790D02*
X138406381Y-94321171D01*
X138406381Y-94321171D02*
X138501619Y-94273552D01*
X138501619Y-94273552D02*
X138644476Y-94273552D01*
X138644476Y-94273552D02*
X138739714Y-94321171D01*
X138739714Y-94321171D02*
X138787333Y-94368790D01*
X138787333Y-94368790D02*
X138834952Y-94464028D01*
X138834952Y-94464028D02*
X138834952Y-94749742D01*
X138834952Y-94749742D02*
X138787333Y-94844980D01*
X138787333Y-94844980D02*
X138739714Y-94892600D01*
X138739714Y-94892600D02*
X138644476Y-94940219D01*
X138644476Y-94940219D02*
X138501619Y-94940219D01*
X139406381Y-94940219D02*
X139311143Y-94892600D01*
X139311143Y-94892600D02*
X139263524Y-94797361D01*
X139263524Y-94797361D02*
X139263524Y-93940219D01*
X140501620Y-94892600D02*
X140644477Y-94940219D01*
X140644477Y-94940219D02*
X140882572Y-94940219D01*
X140882572Y-94940219D02*
X140977810Y-94892600D01*
X140977810Y-94892600D02*
X141025429Y-94844980D01*
X141025429Y-94844980D02*
X141073048Y-94749742D01*
X141073048Y-94749742D02*
X141073048Y-94654504D01*
X141073048Y-94654504D02*
X141025429Y-94559266D01*
X141025429Y-94559266D02*
X140977810Y-94511647D01*
X140977810Y-94511647D02*
X140882572Y-94464028D01*
X140882572Y-94464028D02*
X140692096Y-94416409D01*
X140692096Y-94416409D02*
X140596858Y-94368790D01*
X140596858Y-94368790D02*
X140549239Y-94321171D01*
X140549239Y-94321171D02*
X140501620Y-94225933D01*
X140501620Y-94225933D02*
X140501620Y-94130695D01*
X140501620Y-94130695D02*
X140549239Y-94035457D01*
X140549239Y-94035457D02*
X140596858Y-93987838D01*
X140596858Y-93987838D02*
X140692096Y-93940219D01*
X140692096Y-93940219D02*
X140930191Y-93940219D01*
X140930191Y-93940219D02*
X141073048Y-93987838D01*
X141501620Y-94940219D02*
X141501620Y-94273552D01*
X141501620Y-93940219D02*
X141454001Y-93987838D01*
X141454001Y-93987838D02*
X141501620Y-94035457D01*
X141501620Y-94035457D02*
X141549239Y-93987838D01*
X141549239Y-93987838D02*
X141501620Y-93940219D01*
X141501620Y-93940219D02*
X141501620Y-94035457D01*
X142406381Y-94273552D02*
X142406381Y-95083076D01*
X142406381Y-95083076D02*
X142358762Y-95178314D01*
X142358762Y-95178314D02*
X142311143Y-95225933D01*
X142311143Y-95225933D02*
X142215905Y-95273552D01*
X142215905Y-95273552D02*
X142073048Y-95273552D01*
X142073048Y-95273552D02*
X141977810Y-95225933D01*
X142406381Y-94892600D02*
X142311143Y-94940219D01*
X142311143Y-94940219D02*
X142120667Y-94940219D01*
X142120667Y-94940219D02*
X142025429Y-94892600D01*
X142025429Y-94892600D02*
X141977810Y-94844980D01*
X141977810Y-94844980D02*
X141930191Y-94749742D01*
X141930191Y-94749742D02*
X141930191Y-94464028D01*
X141930191Y-94464028D02*
X141977810Y-94368790D01*
X141977810Y-94368790D02*
X142025429Y-94321171D01*
X142025429Y-94321171D02*
X142120667Y-94273552D01*
X142120667Y-94273552D02*
X142311143Y-94273552D01*
X142311143Y-94273552D02*
X142406381Y-94321171D01*
X142882572Y-94273552D02*
X142882572Y-94940219D01*
X142882572Y-94368790D02*
X142930191Y-94321171D01*
X142930191Y-94321171D02*
X143025429Y-94273552D01*
X143025429Y-94273552D02*
X143168286Y-94273552D01*
X143168286Y-94273552D02*
X143263524Y-94321171D01*
X143263524Y-94321171D02*
X143311143Y-94416409D01*
X143311143Y-94416409D02*
X143311143Y-94940219D01*
X144215905Y-94940219D02*
X144215905Y-94416409D01*
X144215905Y-94416409D02*
X144168286Y-94321171D01*
X144168286Y-94321171D02*
X144073048Y-94273552D01*
X144073048Y-94273552D02*
X143882572Y-94273552D01*
X143882572Y-94273552D02*
X143787334Y-94321171D01*
X144215905Y-94892600D02*
X144120667Y-94940219D01*
X144120667Y-94940219D02*
X143882572Y-94940219D01*
X143882572Y-94940219D02*
X143787334Y-94892600D01*
X143787334Y-94892600D02*
X143739715Y-94797361D01*
X143739715Y-94797361D02*
X143739715Y-94702123D01*
X143739715Y-94702123D02*
X143787334Y-94606885D01*
X143787334Y-94606885D02*
X143882572Y-94559266D01*
X143882572Y-94559266D02*
X144120667Y-94559266D01*
X144120667Y-94559266D02*
X144215905Y-94511647D01*
X144834953Y-94940219D02*
X144739715Y-94892600D01*
X144739715Y-94892600D02*
X144692096Y-94797361D01*
X144692096Y-94797361D02*
X144692096Y-93940219D01*
X145168287Y-94892600D02*
X145263525Y-94940219D01*
X145263525Y-94940219D02*
X145454001Y-94940219D01*
X145454001Y-94940219D02*
X145549239Y-94892600D01*
X145549239Y-94892600D02*
X145596858Y-94797361D01*
X145596858Y-94797361D02*
X145596858Y-94749742D01*
X145596858Y-94749742D02*
X145549239Y-94654504D01*
X145549239Y-94654504D02*
X145454001Y-94606885D01*
X145454001Y-94606885D02*
X145311144Y-94606885D01*
X145311144Y-94606885D02*
X145215906Y-94559266D01*
X145215906Y-94559266D02*
X145168287Y-94464028D01*
X145168287Y-94464028D02*
X145168287Y-94416409D01*
X145168287Y-94416409D02*
X145215906Y-94321171D01*
X145215906Y-94321171D02*
X145311144Y-94273552D01*
X145311144Y-94273552D02*
X145454001Y-94273552D01*
X145454001Y-94273552D02*
X145549239Y-94321171D01*
X168356517Y-39335161D02*
X168451755Y-39382780D01*
X168451755Y-39382780D02*
X168594612Y-39382780D01*
X168594612Y-39382780D02*
X168737469Y-39335161D01*
X168737469Y-39335161D02*
X168832707Y-39239923D01*
X168832707Y-39239923D02*
X168880326Y-39144685D01*
X168880326Y-39144685D02*
X168927945Y-38954209D01*
X168927945Y-38954209D02*
X168927945Y-38811352D01*
X168927945Y-38811352D02*
X168880326Y-38620876D01*
X168880326Y-38620876D02*
X168832707Y-38525638D01*
X168832707Y-38525638D02*
X168737469Y-38430400D01*
X168737469Y-38430400D02*
X168594612Y-38382780D01*
X168594612Y-38382780D02*
X168499374Y-38382780D01*
X168499374Y-38382780D02*
X168356517Y-38430400D01*
X168356517Y-38430400D02*
X168308898Y-38478019D01*
X168308898Y-38478019D02*
X168308898Y-38811352D01*
X168308898Y-38811352D02*
X168499374Y-38811352D01*
X167880326Y-38382780D02*
X167880326Y-39382780D01*
X167880326Y-39382780D02*
X167308898Y-38382780D01*
X167308898Y-38382780D02*
X167308898Y-39382780D01*
X166832707Y-38382780D02*
X166832707Y-39382780D01*
X166832707Y-39382780D02*
X166594612Y-39382780D01*
X166594612Y-39382780D02*
X166451755Y-39335161D01*
X166451755Y-39335161D02*
X166356517Y-39239923D01*
X166356517Y-39239923D02*
X166308898Y-39144685D01*
X166308898Y-39144685D02*
X166261279Y-38954209D01*
X166261279Y-38954209D02*
X166261279Y-38811352D01*
X166261279Y-38811352D02*
X166308898Y-38620876D01*
X166308898Y-38620876D02*
X166356517Y-38525638D01*
X166356517Y-38525638D02*
X166451755Y-38430400D01*
X166451755Y-38430400D02*
X166594612Y-38382780D01*
X166594612Y-38382780D02*
X166832707Y-38382780D01*
D10*
X146657200Y-102427380D02*
X146704819Y-102284523D01*
X146704819Y-102284523D02*
X146704819Y-102046428D01*
X146704819Y-102046428D02*
X146657200Y-101951190D01*
X146657200Y-101951190D02*
X146609580Y-101903571D01*
X146609580Y-101903571D02*
X146514342Y-101855952D01*
X146514342Y-101855952D02*
X146419104Y-101855952D01*
X146419104Y-101855952D02*
X146323866Y-101903571D01*
X146323866Y-101903571D02*
X146276247Y-101951190D01*
X146276247Y-101951190D02*
X146228628Y-102046428D01*
X146228628Y-102046428D02*
X146181009Y-102236904D01*
X146181009Y-102236904D02*
X146133390Y-102332142D01*
X146133390Y-102332142D02*
X146085771Y-102379761D01*
X146085771Y-102379761D02*
X145990533Y-102427380D01*
X145990533Y-102427380D02*
X145895295Y-102427380D01*
X145895295Y-102427380D02*
X145800057Y-102379761D01*
X145800057Y-102379761D02*
X145752438Y-102332142D01*
X145752438Y-102332142D02*
X145704819Y-102236904D01*
X145704819Y-102236904D02*
X145704819Y-101998809D01*
X145704819Y-101998809D02*
X145752438Y-101855952D01*
X146704819Y-101427380D02*
X146038152Y-101427380D01*
X145704819Y-101427380D02*
X145752438Y-101474999D01*
X145752438Y-101474999D02*
X145800057Y-101427380D01*
X145800057Y-101427380D02*
X145752438Y-101379761D01*
X145752438Y-101379761D02*
X145704819Y-101427380D01*
X145704819Y-101427380D02*
X145800057Y-101427380D01*
X146038152Y-100522619D02*
X146847676Y-100522619D01*
X146847676Y-100522619D02*
X146942914Y-100570238D01*
X146942914Y-100570238D02*
X146990533Y-100617857D01*
X146990533Y-100617857D02*
X147038152Y-100713095D01*
X147038152Y-100713095D02*
X147038152Y-100855952D01*
X147038152Y-100855952D02*
X146990533Y-100951190D01*
X146657200Y-100522619D02*
X146704819Y-100617857D01*
X146704819Y-100617857D02*
X146704819Y-100808333D01*
X146704819Y-100808333D02*
X146657200Y-100903571D01*
X146657200Y-100903571D02*
X146609580Y-100951190D01*
X146609580Y-100951190D02*
X146514342Y-100998809D01*
X146514342Y-100998809D02*
X146228628Y-100998809D01*
X146228628Y-100998809D02*
X146133390Y-100951190D01*
X146133390Y-100951190D02*
X146085771Y-100903571D01*
X146085771Y-100903571D02*
X146038152Y-100808333D01*
X146038152Y-100808333D02*
X146038152Y-100617857D01*
X146038152Y-100617857D02*
X146085771Y-100522619D01*
X145704819Y-100141666D02*
X145704819Y-99522619D01*
X145704819Y-99522619D02*
X146085771Y-99855952D01*
X146085771Y-99855952D02*
X146085771Y-99713095D01*
X146085771Y-99713095D02*
X146133390Y-99617857D01*
X146133390Y-99617857D02*
X146181009Y-99570238D01*
X146181009Y-99570238D02*
X146276247Y-99522619D01*
X146276247Y-99522619D02*
X146514342Y-99522619D01*
X146514342Y-99522619D02*
X146609580Y-99570238D01*
X146609580Y-99570238D02*
X146657200Y-99617857D01*
X146657200Y-99617857D02*
X146704819Y-99713095D01*
X146704819Y-99713095D02*
X146704819Y-99998809D01*
X146704819Y-99998809D02*
X146657200Y-100094047D01*
X146657200Y-100094047D02*
X146609580Y-100141666D01*
X115489286Y-54348866D02*
X116251191Y-54348866D01*
X115870238Y-54729819D02*
X115870238Y-53967914D01*
X117203571Y-53729819D02*
X116727381Y-53729819D01*
X116727381Y-53729819D02*
X116679762Y-54206009D01*
X116679762Y-54206009D02*
X116727381Y-54158390D01*
X116727381Y-54158390D02*
X116822619Y-54110771D01*
X116822619Y-54110771D02*
X117060714Y-54110771D01*
X117060714Y-54110771D02*
X117155952Y-54158390D01*
X117155952Y-54158390D02*
X117203571Y-54206009D01*
X117203571Y-54206009D02*
X117251190Y-54301247D01*
X117251190Y-54301247D02*
X117251190Y-54539342D01*
X117251190Y-54539342D02*
X117203571Y-54634580D01*
X117203571Y-54634580D02*
X117155952Y-54682200D01*
X117155952Y-54682200D02*
X117060714Y-54729819D01*
X117060714Y-54729819D02*
X116822619Y-54729819D01*
X116822619Y-54729819D02*
X116727381Y-54682200D01*
X116727381Y-54682200D02*
X116679762Y-54634580D01*
X117536905Y-53729819D02*
X117870238Y-54729819D01*
X117870238Y-54729819D02*
X118203571Y-53729819D01*
X123211905Y-56404819D02*
X123783333Y-56404819D01*
X123497619Y-57404819D02*
X123497619Y-56404819D01*
X124021429Y-56404819D02*
X124688095Y-57404819D01*
X124688095Y-56404819D02*
X124021429Y-57404819D01*
X125592857Y-57404819D02*
X125021429Y-57404819D01*
X125307143Y-57404819D02*
X125307143Y-56404819D01*
X125307143Y-56404819D02*
X125211905Y-56547676D01*
X125211905Y-56547676D02*
X125116667Y-56642914D01*
X125116667Y-56642914D02*
X125021429Y-56690533D01*
X109389284Y-40154608D02*
X109341665Y-40202228D01*
X109341665Y-40202228D02*
X109198808Y-40249847D01*
X109198808Y-40249847D02*
X109103570Y-40249847D01*
X109103570Y-40249847D02*
X108960713Y-40202228D01*
X108960713Y-40202228D02*
X108865475Y-40106989D01*
X108865475Y-40106989D02*
X108817856Y-40011751D01*
X108817856Y-40011751D02*
X108770237Y-39821275D01*
X108770237Y-39821275D02*
X108770237Y-39678418D01*
X108770237Y-39678418D02*
X108817856Y-39487942D01*
X108817856Y-39487942D02*
X108865475Y-39392704D01*
X108865475Y-39392704D02*
X108960713Y-39297466D01*
X108960713Y-39297466D02*
X109103570Y-39249847D01*
X109103570Y-39249847D02*
X109198808Y-39249847D01*
X109198808Y-39249847D02*
X109341665Y-39297466D01*
X109341665Y-39297466D02*
X109389284Y-39345085D01*
X109960713Y-40249847D02*
X109865475Y-40202228D01*
X109865475Y-40202228D02*
X109817856Y-40154608D01*
X109817856Y-40154608D02*
X109770237Y-40059370D01*
X109770237Y-40059370D02*
X109770237Y-39773656D01*
X109770237Y-39773656D02*
X109817856Y-39678418D01*
X109817856Y-39678418D02*
X109865475Y-39630799D01*
X109865475Y-39630799D02*
X109960713Y-39583180D01*
X109960713Y-39583180D02*
X110103570Y-39583180D01*
X110103570Y-39583180D02*
X110198808Y-39630799D01*
X110198808Y-39630799D02*
X110246427Y-39678418D01*
X110246427Y-39678418D02*
X110294046Y-39773656D01*
X110294046Y-39773656D02*
X110294046Y-40059370D01*
X110294046Y-40059370D02*
X110246427Y-40154608D01*
X110246427Y-40154608D02*
X110198808Y-40202228D01*
X110198808Y-40202228D02*
X110103570Y-40249847D01*
X110103570Y-40249847D02*
X109960713Y-40249847D01*
X110722618Y-39583180D02*
X110722618Y-40249847D01*
X110722618Y-39678418D02*
X110770237Y-39630799D01*
X110770237Y-39630799D02*
X110865475Y-39583180D01*
X110865475Y-39583180D02*
X111008332Y-39583180D01*
X111008332Y-39583180D02*
X111103570Y-39630799D01*
X111103570Y-39630799D02*
X111151189Y-39726037D01*
X111151189Y-39726037D02*
X111151189Y-40249847D01*
X111484523Y-39583180D02*
X111865475Y-39583180D01*
X111627380Y-39249847D02*
X111627380Y-40106989D01*
X111627380Y-40106989D02*
X111674999Y-40202228D01*
X111674999Y-40202228D02*
X111770237Y-40249847D01*
X111770237Y-40249847D02*
X111865475Y-40249847D01*
X112198809Y-40249847D02*
X112198809Y-39583180D01*
X112198809Y-39773656D02*
X112246428Y-39678418D01*
X112246428Y-39678418D02*
X112294047Y-39630799D01*
X112294047Y-39630799D02*
X112389285Y-39583180D01*
X112389285Y-39583180D02*
X112484523Y-39583180D01*
X112960714Y-40249847D02*
X112865476Y-40202228D01*
X112865476Y-40202228D02*
X112817857Y-40154608D01*
X112817857Y-40154608D02*
X112770238Y-40059370D01*
X112770238Y-40059370D02*
X112770238Y-39773656D01*
X112770238Y-39773656D02*
X112817857Y-39678418D01*
X112817857Y-39678418D02*
X112865476Y-39630799D01*
X112865476Y-39630799D02*
X112960714Y-39583180D01*
X112960714Y-39583180D02*
X113103571Y-39583180D01*
X113103571Y-39583180D02*
X113198809Y-39630799D01*
X113198809Y-39630799D02*
X113246428Y-39678418D01*
X113246428Y-39678418D02*
X113294047Y-39773656D01*
X113294047Y-39773656D02*
X113294047Y-40059370D01*
X113294047Y-40059370D02*
X113246428Y-40154608D01*
X113246428Y-40154608D02*
X113198809Y-40202228D01*
X113198809Y-40202228D02*
X113103571Y-40249847D01*
X113103571Y-40249847D02*
X112960714Y-40249847D01*
X113865476Y-40249847D02*
X113770238Y-40202228D01*
X113770238Y-40202228D02*
X113722619Y-40106989D01*
X113722619Y-40106989D02*
X113722619Y-39249847D01*
X115008334Y-40249847D02*
X115008334Y-39249847D01*
X115008334Y-39249847D02*
X115246429Y-39249847D01*
X115246429Y-39249847D02*
X115389286Y-39297466D01*
X115389286Y-39297466D02*
X115484524Y-39392704D01*
X115484524Y-39392704D02*
X115532143Y-39487942D01*
X115532143Y-39487942D02*
X115579762Y-39678418D01*
X115579762Y-39678418D02*
X115579762Y-39821275D01*
X115579762Y-39821275D02*
X115532143Y-40011751D01*
X115532143Y-40011751D02*
X115484524Y-40106989D01*
X115484524Y-40106989D02*
X115389286Y-40202228D01*
X115389286Y-40202228D02*
X115246429Y-40249847D01*
X115246429Y-40249847D02*
X115008334Y-40249847D01*
X116008334Y-40249847D02*
X116008334Y-39583180D01*
X116008334Y-39773656D02*
X116055953Y-39678418D01*
X116055953Y-39678418D02*
X116103572Y-39630799D01*
X116103572Y-39630799D02*
X116198810Y-39583180D01*
X116198810Y-39583180D02*
X116294048Y-39583180D01*
X116770239Y-40249847D02*
X116675001Y-40202228D01*
X116675001Y-40202228D02*
X116627382Y-40154608D01*
X116627382Y-40154608D02*
X116579763Y-40059370D01*
X116579763Y-40059370D02*
X116579763Y-39773656D01*
X116579763Y-39773656D02*
X116627382Y-39678418D01*
X116627382Y-39678418D02*
X116675001Y-39630799D01*
X116675001Y-39630799D02*
X116770239Y-39583180D01*
X116770239Y-39583180D02*
X116913096Y-39583180D01*
X116913096Y-39583180D02*
X117008334Y-39630799D01*
X117008334Y-39630799D02*
X117055953Y-39678418D01*
X117055953Y-39678418D02*
X117103572Y-39773656D01*
X117103572Y-39773656D02*
X117103572Y-40059370D01*
X117103572Y-40059370D02*
X117055953Y-40154608D01*
X117055953Y-40154608D02*
X117008334Y-40202228D01*
X117008334Y-40202228D02*
X116913096Y-40249847D01*
X116913096Y-40249847D02*
X116770239Y-40249847D01*
X117532144Y-39583180D02*
X117532144Y-40249847D01*
X117532144Y-39678418D02*
X117579763Y-39630799D01*
X117579763Y-39630799D02*
X117675001Y-39583180D01*
X117675001Y-39583180D02*
X117817858Y-39583180D01*
X117817858Y-39583180D02*
X117913096Y-39630799D01*
X117913096Y-39630799D02*
X117960715Y-39726037D01*
X117960715Y-39726037D02*
X117960715Y-40249847D01*
X119055954Y-39249847D02*
X119389287Y-40249847D01*
X119389287Y-40249847D02*
X119722620Y-39249847D01*
X120532144Y-39249847D02*
X120055954Y-39249847D01*
X120055954Y-39249847D02*
X120008335Y-39726037D01*
X120008335Y-39726037D02*
X120055954Y-39678418D01*
X120055954Y-39678418D02*
X120151192Y-39630799D01*
X120151192Y-39630799D02*
X120389287Y-39630799D01*
X120389287Y-39630799D02*
X120484525Y-39678418D01*
X120484525Y-39678418D02*
X120532144Y-39726037D01*
X120532144Y-39726037D02*
X120579763Y-39821275D01*
X120579763Y-39821275D02*
X120579763Y-40059370D01*
X120579763Y-40059370D02*
X120532144Y-40154608D01*
X120532144Y-40154608D02*
X120484525Y-40202228D01*
X120484525Y-40202228D02*
X120389287Y-40249847D01*
X120389287Y-40249847D02*
X120151192Y-40249847D01*
X120151192Y-40249847D02*
X120055954Y-40202228D01*
X120055954Y-40202228D02*
X120008335Y-40154608D01*
X107270236Y-41764552D02*
X107222617Y-41812172D01*
X107222617Y-41812172D02*
X107079760Y-41859791D01*
X107079760Y-41859791D02*
X106984522Y-41859791D01*
X106984522Y-41859791D02*
X106841665Y-41812172D01*
X106841665Y-41812172D02*
X106746427Y-41716933D01*
X106746427Y-41716933D02*
X106698808Y-41621695D01*
X106698808Y-41621695D02*
X106651189Y-41431219D01*
X106651189Y-41431219D02*
X106651189Y-41288362D01*
X106651189Y-41288362D02*
X106698808Y-41097886D01*
X106698808Y-41097886D02*
X106746427Y-41002648D01*
X106746427Y-41002648D02*
X106841665Y-40907410D01*
X106841665Y-40907410D02*
X106984522Y-40859791D01*
X106984522Y-40859791D02*
X107079760Y-40859791D01*
X107079760Y-40859791D02*
X107222617Y-40907410D01*
X107222617Y-40907410D02*
X107270236Y-40955029D01*
X107698808Y-41859791D02*
X107698808Y-41193124D01*
X107698808Y-41383600D02*
X107746427Y-41288362D01*
X107746427Y-41288362D02*
X107794046Y-41240743D01*
X107794046Y-41240743D02*
X107889284Y-41193124D01*
X107889284Y-41193124D02*
X107984522Y-41193124D01*
X108317856Y-41859791D02*
X108317856Y-41193124D01*
X108317856Y-40859791D02*
X108270237Y-40907410D01*
X108270237Y-40907410D02*
X108317856Y-40955029D01*
X108317856Y-40955029D02*
X108365475Y-40907410D01*
X108365475Y-40907410D02*
X108317856Y-40859791D01*
X108317856Y-40859791D02*
X108317856Y-40955029D01*
X108746427Y-41812172D02*
X108841665Y-41859791D01*
X108841665Y-41859791D02*
X109032141Y-41859791D01*
X109032141Y-41859791D02*
X109127379Y-41812172D01*
X109127379Y-41812172D02*
X109174998Y-41716933D01*
X109174998Y-41716933D02*
X109174998Y-41669314D01*
X109174998Y-41669314D02*
X109127379Y-41574076D01*
X109127379Y-41574076D02*
X109032141Y-41526457D01*
X109032141Y-41526457D02*
X108889284Y-41526457D01*
X108889284Y-41526457D02*
X108794046Y-41478838D01*
X108794046Y-41478838D02*
X108746427Y-41383600D01*
X108746427Y-41383600D02*
X108746427Y-41335981D01*
X108746427Y-41335981D02*
X108794046Y-41240743D01*
X108794046Y-41240743D02*
X108889284Y-41193124D01*
X108889284Y-41193124D02*
X109032141Y-41193124D01*
X109032141Y-41193124D02*
X109127379Y-41240743D01*
X109460713Y-41193124D02*
X109841665Y-41193124D01*
X109603570Y-40859791D02*
X109603570Y-41716933D01*
X109603570Y-41716933D02*
X109651189Y-41812172D01*
X109651189Y-41812172D02*
X109746427Y-41859791D01*
X109746427Y-41859791D02*
X109841665Y-41859791D01*
X110174999Y-41859791D02*
X110174999Y-41193124D01*
X110174999Y-40859791D02*
X110127380Y-40907410D01*
X110127380Y-40907410D02*
X110174999Y-40955029D01*
X110174999Y-40955029D02*
X110222618Y-40907410D01*
X110222618Y-40907410D02*
X110174999Y-40859791D01*
X110174999Y-40859791D02*
X110174999Y-40955029D01*
X111079760Y-41859791D02*
X111079760Y-41335981D01*
X111079760Y-41335981D02*
X111032141Y-41240743D01*
X111032141Y-41240743D02*
X110936903Y-41193124D01*
X110936903Y-41193124D02*
X110746427Y-41193124D01*
X110746427Y-41193124D02*
X110651189Y-41240743D01*
X111079760Y-41812172D02*
X110984522Y-41859791D01*
X110984522Y-41859791D02*
X110746427Y-41859791D01*
X110746427Y-41859791D02*
X110651189Y-41812172D01*
X110651189Y-41812172D02*
X110603570Y-41716933D01*
X110603570Y-41716933D02*
X110603570Y-41621695D01*
X110603570Y-41621695D02*
X110651189Y-41526457D01*
X110651189Y-41526457D02*
X110746427Y-41478838D01*
X110746427Y-41478838D02*
X110984522Y-41478838D01*
X110984522Y-41478838D02*
X111079760Y-41431219D01*
X111555951Y-41193124D02*
X111555951Y-41859791D01*
X111555951Y-41288362D02*
X111603570Y-41240743D01*
X111603570Y-41240743D02*
X111698808Y-41193124D01*
X111698808Y-41193124D02*
X111841665Y-41193124D01*
X111841665Y-41193124D02*
X111936903Y-41240743D01*
X111936903Y-41240743D02*
X111984522Y-41335981D01*
X111984522Y-41335981D02*
X111984522Y-41859791D01*
X113794046Y-41764552D02*
X113746427Y-41812172D01*
X113746427Y-41812172D02*
X113603570Y-41859791D01*
X113603570Y-41859791D02*
X113508332Y-41859791D01*
X113508332Y-41859791D02*
X113365475Y-41812172D01*
X113365475Y-41812172D02*
X113270237Y-41716933D01*
X113270237Y-41716933D02*
X113222618Y-41621695D01*
X113222618Y-41621695D02*
X113174999Y-41431219D01*
X113174999Y-41431219D02*
X113174999Y-41288362D01*
X113174999Y-41288362D02*
X113222618Y-41097886D01*
X113222618Y-41097886D02*
X113270237Y-41002648D01*
X113270237Y-41002648D02*
X113365475Y-40907410D01*
X113365475Y-40907410D02*
X113508332Y-40859791D01*
X113508332Y-40859791D02*
X113603570Y-40859791D01*
X113603570Y-40859791D02*
X113746427Y-40907410D01*
X113746427Y-40907410D02*
X113794046Y-40955029D01*
X114651189Y-41859791D02*
X114651189Y-41335981D01*
X114651189Y-41335981D02*
X114603570Y-41240743D01*
X114603570Y-41240743D02*
X114508332Y-41193124D01*
X114508332Y-41193124D02*
X114317856Y-41193124D01*
X114317856Y-41193124D02*
X114222618Y-41240743D01*
X114651189Y-41812172D02*
X114555951Y-41859791D01*
X114555951Y-41859791D02*
X114317856Y-41859791D01*
X114317856Y-41859791D02*
X114222618Y-41812172D01*
X114222618Y-41812172D02*
X114174999Y-41716933D01*
X114174999Y-41716933D02*
X114174999Y-41621695D01*
X114174999Y-41621695D02*
X114222618Y-41526457D01*
X114222618Y-41526457D02*
X114317856Y-41478838D01*
X114317856Y-41478838D02*
X114555951Y-41478838D01*
X114555951Y-41478838D02*
X114651189Y-41431219D01*
X115079761Y-41812172D02*
X115174999Y-41859791D01*
X115174999Y-41859791D02*
X115365475Y-41859791D01*
X115365475Y-41859791D02*
X115460713Y-41812172D01*
X115460713Y-41812172D02*
X115508332Y-41716933D01*
X115508332Y-41716933D02*
X115508332Y-41669314D01*
X115508332Y-41669314D02*
X115460713Y-41574076D01*
X115460713Y-41574076D02*
X115365475Y-41526457D01*
X115365475Y-41526457D02*
X115222618Y-41526457D01*
X115222618Y-41526457D02*
X115127380Y-41478838D01*
X115127380Y-41478838D02*
X115079761Y-41383600D01*
X115079761Y-41383600D02*
X115079761Y-41335981D01*
X115079761Y-41335981D02*
X115127380Y-41240743D01*
X115127380Y-41240743D02*
X115222618Y-41193124D01*
X115222618Y-41193124D02*
X115365475Y-41193124D01*
X115365475Y-41193124D02*
X115460713Y-41240743D01*
X115794047Y-41193124D02*
X116174999Y-41193124D01*
X115936904Y-40859791D02*
X115936904Y-41716933D01*
X115936904Y-41716933D02*
X115984523Y-41812172D01*
X115984523Y-41812172D02*
X116079761Y-41859791D01*
X116079761Y-41859791D02*
X116174999Y-41859791D01*
X116508333Y-41859791D02*
X116508333Y-41193124D01*
X116508333Y-41383600D02*
X116555952Y-41288362D01*
X116555952Y-41288362D02*
X116603571Y-41240743D01*
X116603571Y-41240743D02*
X116698809Y-41193124D01*
X116698809Y-41193124D02*
X116794047Y-41193124D01*
X117270238Y-41859791D02*
X117175000Y-41812172D01*
X117175000Y-41812172D02*
X117127381Y-41764552D01*
X117127381Y-41764552D02*
X117079762Y-41669314D01*
X117079762Y-41669314D02*
X117079762Y-41383600D01*
X117079762Y-41383600D02*
X117127381Y-41288362D01*
X117127381Y-41288362D02*
X117175000Y-41240743D01*
X117175000Y-41240743D02*
X117270238Y-41193124D01*
X117270238Y-41193124D02*
X117413095Y-41193124D01*
X117413095Y-41193124D02*
X117508333Y-41240743D01*
X117508333Y-41240743D02*
X117555952Y-41288362D01*
X117555952Y-41288362D02*
X117603571Y-41383600D01*
X117603571Y-41383600D02*
X117603571Y-41669314D01*
X117603571Y-41669314D02*
X117555952Y-41764552D01*
X117555952Y-41764552D02*
X117508333Y-41812172D01*
X117508333Y-41812172D02*
X117413095Y-41859791D01*
X117413095Y-41859791D02*
X117270238Y-41859791D01*
X119270238Y-41859791D02*
X118794048Y-41859791D01*
X118794048Y-41859791D02*
X118794048Y-40859791D01*
X120032143Y-41859791D02*
X120032143Y-41335981D01*
X120032143Y-41335981D02*
X119984524Y-41240743D01*
X119984524Y-41240743D02*
X119889286Y-41193124D01*
X119889286Y-41193124D02*
X119698810Y-41193124D01*
X119698810Y-41193124D02*
X119603572Y-41240743D01*
X120032143Y-41812172D02*
X119936905Y-41859791D01*
X119936905Y-41859791D02*
X119698810Y-41859791D01*
X119698810Y-41859791D02*
X119603572Y-41812172D01*
X119603572Y-41812172D02*
X119555953Y-41716933D01*
X119555953Y-41716933D02*
X119555953Y-41621695D01*
X119555953Y-41621695D02*
X119603572Y-41526457D01*
X119603572Y-41526457D02*
X119698810Y-41478838D01*
X119698810Y-41478838D02*
X119936905Y-41478838D01*
X119936905Y-41478838D02*
X120032143Y-41431219D01*
X120936905Y-41193124D02*
X120936905Y-42002648D01*
X120936905Y-42002648D02*
X120889286Y-42097886D01*
X120889286Y-42097886D02*
X120841667Y-42145505D01*
X120841667Y-42145505D02*
X120746429Y-42193124D01*
X120746429Y-42193124D02*
X120603572Y-42193124D01*
X120603572Y-42193124D02*
X120508334Y-42145505D01*
X120936905Y-41812172D02*
X120841667Y-41859791D01*
X120841667Y-41859791D02*
X120651191Y-41859791D01*
X120651191Y-41859791D02*
X120555953Y-41812172D01*
X120555953Y-41812172D02*
X120508334Y-41764552D01*
X120508334Y-41764552D02*
X120460715Y-41669314D01*
X120460715Y-41669314D02*
X120460715Y-41383600D01*
X120460715Y-41383600D02*
X120508334Y-41288362D01*
X120508334Y-41288362D02*
X120555953Y-41240743D01*
X120555953Y-41240743D02*
X120651191Y-41193124D01*
X120651191Y-41193124D02*
X120841667Y-41193124D01*
X120841667Y-41193124D02*
X120936905Y-41240743D01*
X121555953Y-41859791D02*
X121460715Y-41812172D01*
X121460715Y-41812172D02*
X121413096Y-41764552D01*
X121413096Y-41764552D02*
X121365477Y-41669314D01*
X121365477Y-41669314D02*
X121365477Y-41383600D01*
X121365477Y-41383600D02*
X121413096Y-41288362D01*
X121413096Y-41288362D02*
X121460715Y-41240743D01*
X121460715Y-41240743D02*
X121555953Y-41193124D01*
X121555953Y-41193124D02*
X121698810Y-41193124D01*
X121698810Y-41193124D02*
X121794048Y-41240743D01*
X121794048Y-41240743D02*
X121841667Y-41288362D01*
X121841667Y-41288362D02*
X121889286Y-41383600D01*
X121889286Y-41383600D02*
X121889286Y-41669314D01*
X121889286Y-41669314D02*
X121841667Y-41764552D01*
X121841667Y-41764552D02*
X121794048Y-41812172D01*
X121794048Y-41812172D02*
X121698810Y-41859791D01*
X121698810Y-41859791D02*
X121555953Y-41859791D01*
X122270239Y-41812172D02*
X122365477Y-41859791D01*
X122365477Y-41859791D02*
X122555953Y-41859791D01*
X122555953Y-41859791D02*
X122651191Y-41812172D01*
X122651191Y-41812172D02*
X122698810Y-41716933D01*
X122698810Y-41716933D02*
X122698810Y-41669314D01*
X122698810Y-41669314D02*
X122651191Y-41574076D01*
X122651191Y-41574076D02*
X122555953Y-41526457D01*
X122555953Y-41526457D02*
X122413096Y-41526457D01*
X122413096Y-41526457D02*
X122317858Y-41478838D01*
X122317858Y-41478838D02*
X122270239Y-41383600D01*
X122270239Y-41383600D02*
X122270239Y-41335981D01*
X122270239Y-41335981D02*
X122317858Y-41240743D01*
X122317858Y-41240743D02*
X122413096Y-41193124D01*
X122413096Y-41193124D02*
X122555953Y-41193124D01*
X122555953Y-41193124D02*
X122651191Y-41240743D01*
X116155953Y-51922200D02*
X116298810Y-51969819D01*
X116298810Y-51969819D02*
X116536905Y-51969819D01*
X116536905Y-51969819D02*
X116632143Y-51922200D01*
X116632143Y-51922200D02*
X116679762Y-51874580D01*
X116679762Y-51874580D02*
X116727381Y-51779342D01*
X116727381Y-51779342D02*
X116727381Y-51684104D01*
X116727381Y-51684104D02*
X116679762Y-51588866D01*
X116679762Y-51588866D02*
X116632143Y-51541247D01*
X116632143Y-51541247D02*
X116536905Y-51493628D01*
X116536905Y-51493628D02*
X116346429Y-51446009D01*
X116346429Y-51446009D02*
X116251191Y-51398390D01*
X116251191Y-51398390D02*
X116203572Y-51350771D01*
X116203572Y-51350771D02*
X116155953Y-51255533D01*
X116155953Y-51255533D02*
X116155953Y-51160295D01*
X116155953Y-51160295D02*
X116203572Y-51065057D01*
X116203572Y-51065057D02*
X116251191Y-51017438D01*
X116251191Y-51017438D02*
X116346429Y-50969819D01*
X116346429Y-50969819D02*
X116584524Y-50969819D01*
X116584524Y-50969819D02*
X116727381Y-51017438D01*
X117155953Y-51969819D02*
X117155953Y-51303152D01*
X117155953Y-50969819D02*
X117108334Y-51017438D01*
X117108334Y-51017438D02*
X117155953Y-51065057D01*
X117155953Y-51065057D02*
X117203572Y-51017438D01*
X117203572Y-51017438D02*
X117155953Y-50969819D01*
X117155953Y-50969819D02*
X117155953Y-51065057D01*
X118060714Y-51303152D02*
X118060714Y-52112676D01*
X118060714Y-52112676D02*
X118013095Y-52207914D01*
X118013095Y-52207914D02*
X117965476Y-52255533D01*
X117965476Y-52255533D02*
X117870238Y-52303152D01*
X117870238Y-52303152D02*
X117727381Y-52303152D01*
X117727381Y-52303152D02*
X117632143Y-52255533D01*
X118060714Y-51922200D02*
X117965476Y-51969819D01*
X117965476Y-51969819D02*
X117775000Y-51969819D01*
X117775000Y-51969819D02*
X117679762Y-51922200D01*
X117679762Y-51922200D02*
X117632143Y-51874580D01*
X117632143Y-51874580D02*
X117584524Y-51779342D01*
X117584524Y-51779342D02*
X117584524Y-51493628D01*
X117584524Y-51493628D02*
X117632143Y-51398390D01*
X117632143Y-51398390D02*
X117679762Y-51350771D01*
X117679762Y-51350771D02*
X117775000Y-51303152D01*
X117775000Y-51303152D02*
X117965476Y-51303152D01*
X117965476Y-51303152D02*
X118060714Y-51350771D01*
X169889580Y-62496666D02*
X169937200Y-62544285D01*
X169937200Y-62544285D02*
X169984819Y-62687142D01*
X169984819Y-62687142D02*
X169984819Y-62782380D01*
X169984819Y-62782380D02*
X169937200Y-62925237D01*
X169937200Y-62925237D02*
X169841961Y-63020475D01*
X169841961Y-63020475D02*
X169746723Y-63068094D01*
X169746723Y-63068094D02*
X169556247Y-63115713D01*
X169556247Y-63115713D02*
X169413390Y-63115713D01*
X169413390Y-63115713D02*
X169222914Y-63068094D01*
X169222914Y-63068094D02*
X169127676Y-63020475D01*
X169127676Y-63020475D02*
X169032438Y-62925237D01*
X169032438Y-62925237D02*
X168984819Y-62782380D01*
X168984819Y-62782380D02*
X168984819Y-62687142D01*
X168984819Y-62687142D02*
X169032438Y-62544285D01*
X169032438Y-62544285D02*
X169080057Y-62496666D01*
X169984819Y-61544285D02*
X169984819Y-62115713D01*
X169984819Y-61829999D02*
X168984819Y-61829999D01*
X168984819Y-61829999D02*
X169127676Y-61925237D01*
X169127676Y-61925237D02*
X169222914Y-62020475D01*
X169222914Y-62020475D02*
X169270533Y-62115713D01*
X136738009Y-78449104D02*
X137214199Y-78449104D01*
X136642771Y-78734819D02*
X136976104Y-77734819D01*
X136976104Y-77734819D02*
X137309437Y-78734819D01*
X138214199Y-78639580D02*
X138166580Y-78687200D01*
X138166580Y-78687200D02*
X138023723Y-78734819D01*
X138023723Y-78734819D02*
X137928485Y-78734819D01*
X137928485Y-78734819D02*
X137785628Y-78687200D01*
X137785628Y-78687200D02*
X137690390Y-78591961D01*
X137690390Y-78591961D02*
X137642771Y-78496723D01*
X137642771Y-78496723D02*
X137595152Y-78306247D01*
X137595152Y-78306247D02*
X137595152Y-78163390D01*
X137595152Y-78163390D02*
X137642771Y-77972914D01*
X137642771Y-77972914D02*
X137690390Y-77877676D01*
X137690390Y-77877676D02*
X137785628Y-77782438D01*
X137785628Y-77782438D02*
X137928485Y-77734819D01*
X137928485Y-77734819D02*
X138023723Y-77734819D01*
X138023723Y-77734819D02*
X138166580Y-77782438D01*
X138166580Y-77782438D02*
X138214199Y-77830057D01*
X139166580Y-78734819D02*
X138595152Y-78734819D01*
X138880866Y-78734819D02*
X138880866Y-77734819D01*
X138880866Y-77734819D02*
X138785628Y-77877676D01*
X138785628Y-77877676D02*
X138690390Y-77972914D01*
X138690390Y-77972914D02*
X138595152Y-78020533D01*
X162686666Y-43504819D02*
X162686666Y-44219104D01*
X162686666Y-44219104D02*
X162639047Y-44361961D01*
X162639047Y-44361961D02*
X162543809Y-44457200D01*
X162543809Y-44457200D02*
X162400952Y-44504819D01*
X162400952Y-44504819D02*
X162305714Y-44504819D01*
X163591428Y-43504819D02*
X163400952Y-43504819D01*
X163400952Y-43504819D02*
X163305714Y-43552438D01*
X163305714Y-43552438D02*
X163258095Y-43600057D01*
X163258095Y-43600057D02*
X163162857Y-43742914D01*
X163162857Y-43742914D02*
X163115238Y-43933390D01*
X163115238Y-43933390D02*
X163115238Y-44314342D01*
X163115238Y-44314342D02*
X163162857Y-44409580D01*
X163162857Y-44409580D02*
X163210476Y-44457200D01*
X163210476Y-44457200D02*
X163305714Y-44504819D01*
X163305714Y-44504819D02*
X163496190Y-44504819D01*
X163496190Y-44504819D02*
X163591428Y-44457200D01*
X163591428Y-44457200D02*
X163639047Y-44409580D01*
X163639047Y-44409580D02*
X163686666Y-44314342D01*
X163686666Y-44314342D02*
X163686666Y-44076247D01*
X163686666Y-44076247D02*
X163639047Y-43981009D01*
X163639047Y-43981009D02*
X163591428Y-43933390D01*
X163591428Y-43933390D02*
X163496190Y-43885771D01*
X163496190Y-43885771D02*
X163305714Y-43885771D01*
X163305714Y-43885771D02*
X163210476Y-43933390D01*
X163210476Y-43933390D02*
X163162857Y-43981009D01*
X163162857Y-43981009D02*
X163115238Y-44076247D01*
X143376889Y-82439580D02*
X143329270Y-82487200D01*
X143329270Y-82487200D02*
X143186413Y-82534819D01*
X143186413Y-82534819D02*
X143091175Y-82534819D01*
X143091175Y-82534819D02*
X142948318Y-82487200D01*
X142948318Y-82487200D02*
X142853080Y-82391961D01*
X142853080Y-82391961D02*
X142805461Y-82296723D01*
X142805461Y-82296723D02*
X142757842Y-82106247D01*
X142757842Y-82106247D02*
X142757842Y-81963390D01*
X142757842Y-81963390D02*
X142805461Y-81772914D01*
X142805461Y-81772914D02*
X142853080Y-81677676D01*
X142853080Y-81677676D02*
X142948318Y-81582438D01*
X142948318Y-81582438D02*
X143091175Y-81534819D01*
X143091175Y-81534819D02*
X143186413Y-81534819D01*
X143186413Y-81534819D02*
X143329270Y-81582438D01*
X143329270Y-81582438D02*
X143376889Y-81630057D01*
X143710223Y-81534819D02*
X144376889Y-81534819D01*
X144376889Y-81534819D02*
X143948318Y-82534819D01*
X140135875Y-76574425D02*
X140945398Y-76574425D01*
X140945398Y-76574425D02*
X141040636Y-76526806D01*
X141040636Y-76526806D02*
X141088256Y-76479187D01*
X141088256Y-76479187D02*
X141135875Y-76383949D01*
X141135875Y-76383949D02*
X141135875Y-76193473D01*
X141135875Y-76193473D02*
X141088256Y-76098235D01*
X141088256Y-76098235D02*
X141040636Y-76050616D01*
X141040636Y-76050616D02*
X140945398Y-76002997D01*
X140945398Y-76002997D02*
X140135875Y-76002997D01*
X140231113Y-75574425D02*
X140183494Y-75526806D01*
X140183494Y-75526806D02*
X140135875Y-75431568D01*
X140135875Y-75431568D02*
X140135875Y-75193473D01*
X140135875Y-75193473D02*
X140183494Y-75098235D01*
X140183494Y-75098235D02*
X140231113Y-75050616D01*
X140231113Y-75050616D02*
X140326351Y-75002997D01*
X140326351Y-75002997D02*
X140421589Y-75002997D01*
X140421589Y-75002997D02*
X140564446Y-75050616D01*
X140564446Y-75050616D02*
X141135875Y-75622044D01*
X141135875Y-75622044D02*
X141135875Y-75002997D01*
X166831922Y-49300159D02*
X166831922Y-50014444D01*
X166831922Y-50014444D02*
X166784303Y-50157301D01*
X166784303Y-50157301D02*
X166689065Y-50252540D01*
X166689065Y-50252540D02*
X166546208Y-50300159D01*
X166546208Y-50300159D02*
X166450970Y-50300159D01*
X167260494Y-49395397D02*
X167308113Y-49347778D01*
X167308113Y-49347778D02*
X167403351Y-49300159D01*
X167403351Y-49300159D02*
X167641446Y-49300159D01*
X167641446Y-49300159D02*
X167736684Y-49347778D01*
X167736684Y-49347778D02*
X167784303Y-49395397D01*
X167784303Y-49395397D02*
X167831922Y-49490635D01*
X167831922Y-49490635D02*
X167831922Y-49585873D01*
X167831922Y-49585873D02*
X167784303Y-49728730D01*
X167784303Y-49728730D02*
X167212875Y-50300159D01*
X167212875Y-50300159D02*
X167831922Y-50300159D01*
X137277142Y-82439580D02*
X137229523Y-82487200D01*
X137229523Y-82487200D02*
X137086666Y-82534819D01*
X137086666Y-82534819D02*
X136991428Y-82534819D01*
X136991428Y-82534819D02*
X136848571Y-82487200D01*
X136848571Y-82487200D02*
X136753333Y-82391961D01*
X136753333Y-82391961D02*
X136705714Y-82296723D01*
X136705714Y-82296723D02*
X136658095Y-82106247D01*
X136658095Y-82106247D02*
X136658095Y-81963390D01*
X136658095Y-81963390D02*
X136705714Y-81772914D01*
X136705714Y-81772914D02*
X136753333Y-81677676D01*
X136753333Y-81677676D02*
X136848571Y-81582438D01*
X136848571Y-81582438D02*
X136991428Y-81534819D01*
X136991428Y-81534819D02*
X137086666Y-81534819D01*
X137086666Y-81534819D02*
X137229523Y-81582438D01*
X137229523Y-81582438D02*
X137277142Y-81630057D01*
X138229523Y-82534819D02*
X137658095Y-82534819D01*
X137943809Y-82534819D02*
X137943809Y-81534819D01*
X137943809Y-81534819D02*
X137848571Y-81677676D01*
X137848571Y-81677676D02*
X137753333Y-81772914D01*
X137753333Y-81772914D02*
X137658095Y-81820533D01*
X138562857Y-81534819D02*
X139181904Y-81534819D01*
X139181904Y-81534819D02*
X138848571Y-81915771D01*
X138848571Y-81915771D02*
X138991428Y-81915771D01*
X138991428Y-81915771D02*
X139086666Y-81963390D01*
X139086666Y-81963390D02*
X139134285Y-82011009D01*
X139134285Y-82011009D02*
X139181904Y-82106247D01*
X139181904Y-82106247D02*
X139181904Y-82344342D01*
X139181904Y-82344342D02*
X139134285Y-82439580D01*
X139134285Y-82439580D02*
X139086666Y-82487200D01*
X139086666Y-82487200D02*
X138991428Y-82534819D01*
X138991428Y-82534819D02*
X138705714Y-82534819D01*
X138705714Y-82534819D02*
X138610476Y-82487200D01*
X138610476Y-82487200D02*
X138562857Y-82439580D01*
X148019819Y-54323333D02*
X148734104Y-54323333D01*
X148734104Y-54323333D02*
X148876961Y-54370952D01*
X148876961Y-54370952D02*
X148972200Y-54466190D01*
X148972200Y-54466190D02*
X149019819Y-54609047D01*
X149019819Y-54609047D02*
X149019819Y-54704285D01*
X148019819Y-53942380D02*
X148019819Y-53323333D01*
X148019819Y-53323333D02*
X148400771Y-53656666D01*
X148400771Y-53656666D02*
X148400771Y-53513809D01*
X148400771Y-53513809D02*
X148448390Y-53418571D01*
X148448390Y-53418571D02*
X148496009Y-53370952D01*
X148496009Y-53370952D02*
X148591247Y-53323333D01*
X148591247Y-53323333D02*
X148829342Y-53323333D01*
X148829342Y-53323333D02*
X148924580Y-53370952D01*
X148924580Y-53370952D02*
X148972200Y-53418571D01*
X148972200Y-53418571D02*
X149019819Y-53513809D01*
X149019819Y-53513809D02*
X149019819Y-53799523D01*
X149019819Y-53799523D02*
X148972200Y-53894761D01*
X148972200Y-53894761D02*
X148924580Y-53942380D01*
X144343333Y-65924819D02*
X144010000Y-65448628D01*
X143771905Y-65924819D02*
X143771905Y-64924819D01*
X143771905Y-64924819D02*
X144152857Y-64924819D01*
X144152857Y-64924819D02*
X144248095Y-64972438D01*
X144248095Y-64972438D02*
X144295714Y-65020057D01*
X144295714Y-65020057D02*
X144343333Y-65115295D01*
X144343333Y-65115295D02*
X144343333Y-65258152D01*
X144343333Y-65258152D02*
X144295714Y-65353390D01*
X144295714Y-65353390D02*
X144248095Y-65401009D01*
X144248095Y-65401009D02*
X144152857Y-65448628D01*
X144152857Y-65448628D02*
X143771905Y-65448628D01*
X144724286Y-65020057D02*
X144771905Y-64972438D01*
X144771905Y-64972438D02*
X144867143Y-64924819D01*
X144867143Y-64924819D02*
X145105238Y-64924819D01*
X145105238Y-64924819D02*
X145200476Y-64972438D01*
X145200476Y-64972438D02*
X145248095Y-65020057D01*
X145248095Y-65020057D02*
X145295714Y-65115295D01*
X145295714Y-65115295D02*
X145295714Y-65210533D01*
X145295714Y-65210533D02*
X145248095Y-65353390D01*
X145248095Y-65353390D02*
X144676667Y-65924819D01*
X144676667Y-65924819D02*
X145295714Y-65924819D01*
X135219580Y-75122857D02*
X135267200Y-75170476D01*
X135267200Y-75170476D02*
X135314819Y-75313333D01*
X135314819Y-75313333D02*
X135314819Y-75408571D01*
X135314819Y-75408571D02*
X135267200Y-75551428D01*
X135267200Y-75551428D02*
X135171961Y-75646666D01*
X135171961Y-75646666D02*
X135076723Y-75694285D01*
X135076723Y-75694285D02*
X134886247Y-75741904D01*
X134886247Y-75741904D02*
X134743390Y-75741904D01*
X134743390Y-75741904D02*
X134552914Y-75694285D01*
X134552914Y-75694285D02*
X134457676Y-75646666D01*
X134457676Y-75646666D02*
X134362438Y-75551428D01*
X134362438Y-75551428D02*
X134314819Y-75408571D01*
X134314819Y-75408571D02*
X134314819Y-75313333D01*
X134314819Y-75313333D02*
X134362438Y-75170476D01*
X134362438Y-75170476D02*
X134410057Y-75122857D01*
X135314819Y-74170476D02*
X135314819Y-74741904D01*
X135314819Y-74456190D02*
X134314819Y-74456190D01*
X134314819Y-74456190D02*
X134457676Y-74551428D01*
X134457676Y-74551428D02*
X134552914Y-74646666D01*
X134552914Y-74646666D02*
X134600533Y-74741904D01*
X134648152Y-73313333D02*
X135314819Y-73313333D01*
X134267200Y-73551428D02*
X134981485Y-73789523D01*
X134981485Y-73789523D02*
X134981485Y-73170476D01*
X142630218Y-111507714D02*
X141923111Y-110800607D01*
X142259829Y-111137325D02*
X142663890Y-110733264D01*
X143034279Y-111103653D02*
X142327172Y-110396546D01*
X143741386Y-110396546D02*
X143337325Y-110800607D01*
X143539355Y-110598577D02*
X142832249Y-109891470D01*
X142832249Y-109891470D02*
X142865920Y-110059829D01*
X142865920Y-110059829D02*
X142865920Y-110194516D01*
X142865920Y-110194516D02*
X142832249Y-110295531D01*
X138233333Y-65924819D02*
X137900000Y-65448628D01*
X137661905Y-65924819D02*
X137661905Y-64924819D01*
X137661905Y-64924819D02*
X138042857Y-64924819D01*
X138042857Y-64924819D02*
X138138095Y-64972438D01*
X138138095Y-64972438D02*
X138185714Y-65020057D01*
X138185714Y-65020057D02*
X138233333Y-65115295D01*
X138233333Y-65115295D02*
X138233333Y-65258152D01*
X138233333Y-65258152D02*
X138185714Y-65353390D01*
X138185714Y-65353390D02*
X138138095Y-65401009D01*
X138138095Y-65401009D02*
X138042857Y-65448628D01*
X138042857Y-65448628D02*
X137661905Y-65448628D01*
X139185714Y-65924819D02*
X138614286Y-65924819D01*
X138900000Y-65924819D02*
X138900000Y-64924819D01*
X138900000Y-64924819D02*
X138804762Y-65067676D01*
X138804762Y-65067676D02*
X138709524Y-65162914D01*
X138709524Y-65162914D02*
X138614286Y-65210533D01*
X110511807Y-79357714D02*
X109804700Y-78650607D01*
X110141418Y-78987325D02*
X110545479Y-78583264D01*
X110915868Y-78953653D02*
X110208761Y-78246546D01*
X110478135Y-77977172D02*
X110915868Y-77539440D01*
X110915868Y-77539440D02*
X110949540Y-78044516D01*
X110949540Y-78044516D02*
X111050555Y-77943501D01*
X111050555Y-77943501D02*
X111151570Y-77909829D01*
X111151570Y-77909829D02*
X111218914Y-77909829D01*
X111218914Y-77909829D02*
X111319929Y-77943501D01*
X111319929Y-77943501D02*
X111488288Y-78111859D01*
X111488288Y-78111859D02*
X111521960Y-78212875D01*
X111521960Y-78212875D02*
X111521960Y-78280218D01*
X111521960Y-78280218D02*
X111488288Y-78381233D01*
X111488288Y-78381233D02*
X111286257Y-78583264D01*
X111286257Y-78583264D02*
X111185242Y-78616936D01*
X111185242Y-78616936D02*
X111117899Y-78616936D01*
X118984580Y-63891666D02*
X119032200Y-63939285D01*
X119032200Y-63939285D02*
X119079819Y-64082142D01*
X119079819Y-64082142D02*
X119079819Y-64177380D01*
X119079819Y-64177380D02*
X119032200Y-64320237D01*
X119032200Y-64320237D02*
X118936961Y-64415475D01*
X118936961Y-64415475D02*
X118841723Y-64463094D01*
X118841723Y-64463094D02*
X118651247Y-64510713D01*
X118651247Y-64510713D02*
X118508390Y-64510713D01*
X118508390Y-64510713D02*
X118317914Y-64463094D01*
X118317914Y-64463094D02*
X118222676Y-64415475D01*
X118222676Y-64415475D02*
X118127438Y-64320237D01*
X118127438Y-64320237D02*
X118079819Y-64177380D01*
X118079819Y-64177380D02*
X118079819Y-64082142D01*
X118079819Y-64082142D02*
X118127438Y-63939285D01*
X118127438Y-63939285D02*
X118175057Y-63891666D01*
X118079819Y-63558332D02*
X118079819Y-62939285D01*
X118079819Y-62939285D02*
X118460771Y-63272618D01*
X118460771Y-63272618D02*
X118460771Y-63129761D01*
X118460771Y-63129761D02*
X118508390Y-63034523D01*
X118508390Y-63034523D02*
X118556009Y-62986904D01*
X118556009Y-62986904D02*
X118651247Y-62939285D01*
X118651247Y-62939285D02*
X118889342Y-62939285D01*
X118889342Y-62939285D02*
X118984580Y-62986904D01*
X118984580Y-62986904D02*
X119032200Y-63034523D01*
X119032200Y-63034523D02*
X119079819Y-63129761D01*
X119079819Y-63129761D02*
X119079819Y-63415475D01*
X119079819Y-63415475D02*
X119032200Y-63510713D01*
X119032200Y-63510713D02*
X118984580Y-63558332D01*
X147969819Y-97748333D02*
X148684104Y-97748333D01*
X148684104Y-97748333D02*
X148826961Y-97795952D01*
X148826961Y-97795952D02*
X148922200Y-97891190D01*
X148922200Y-97891190D02*
X148969819Y-98034047D01*
X148969819Y-98034047D02*
X148969819Y-98129285D01*
X148303152Y-96843571D02*
X148969819Y-96843571D01*
X147922200Y-97081666D02*
X148636485Y-97319761D01*
X148636485Y-97319761D02*
X148636485Y-96700714D01*
X172723333Y-58401459D02*
X172675714Y-58449079D01*
X172675714Y-58449079D02*
X172532857Y-58496698D01*
X172532857Y-58496698D02*
X172437619Y-58496698D01*
X172437619Y-58496698D02*
X172294762Y-58449079D01*
X172294762Y-58449079D02*
X172199524Y-58353840D01*
X172199524Y-58353840D02*
X172151905Y-58258602D01*
X172151905Y-58258602D02*
X172104286Y-58068126D01*
X172104286Y-58068126D02*
X172104286Y-57925269D01*
X172104286Y-57925269D02*
X172151905Y-57734793D01*
X172151905Y-57734793D02*
X172199524Y-57639555D01*
X172199524Y-57639555D02*
X172294762Y-57544317D01*
X172294762Y-57544317D02*
X172437619Y-57496698D01*
X172437619Y-57496698D02*
X172532857Y-57496698D01*
X172532857Y-57496698D02*
X172675714Y-57544317D01*
X172675714Y-57544317D02*
X172723333Y-57591936D01*
X173104286Y-57591936D02*
X173151905Y-57544317D01*
X173151905Y-57544317D02*
X173247143Y-57496698D01*
X173247143Y-57496698D02*
X173485238Y-57496698D01*
X173485238Y-57496698D02*
X173580476Y-57544317D01*
X173580476Y-57544317D02*
X173628095Y-57591936D01*
X173628095Y-57591936D02*
X173675714Y-57687174D01*
X173675714Y-57687174D02*
X173675714Y-57782412D01*
X173675714Y-57782412D02*
X173628095Y-57925269D01*
X173628095Y-57925269D02*
X173056667Y-58496698D01*
X173056667Y-58496698D02*
X173675714Y-58496698D01*
X143773333Y-86784819D02*
X143440000Y-86308628D01*
X143201905Y-86784819D02*
X143201905Y-85784819D01*
X143201905Y-85784819D02*
X143582857Y-85784819D01*
X143582857Y-85784819D02*
X143678095Y-85832438D01*
X143678095Y-85832438D02*
X143725714Y-85880057D01*
X143725714Y-85880057D02*
X143773333Y-85975295D01*
X143773333Y-85975295D02*
X143773333Y-86118152D01*
X143773333Y-86118152D02*
X143725714Y-86213390D01*
X143725714Y-86213390D02*
X143678095Y-86261009D01*
X143678095Y-86261009D02*
X143582857Y-86308628D01*
X143582857Y-86308628D02*
X143201905Y-86308628D01*
X144249524Y-86784819D02*
X144440000Y-86784819D01*
X144440000Y-86784819D02*
X144535238Y-86737200D01*
X144535238Y-86737200D02*
X144582857Y-86689580D01*
X144582857Y-86689580D02*
X144678095Y-86546723D01*
X144678095Y-86546723D02*
X144725714Y-86356247D01*
X144725714Y-86356247D02*
X144725714Y-85975295D01*
X144725714Y-85975295D02*
X144678095Y-85880057D01*
X144678095Y-85880057D02*
X144630476Y-85832438D01*
X144630476Y-85832438D02*
X144535238Y-85784819D01*
X144535238Y-85784819D02*
X144344762Y-85784819D01*
X144344762Y-85784819D02*
X144249524Y-85832438D01*
X144249524Y-85832438D02*
X144201905Y-85880057D01*
X144201905Y-85880057D02*
X144154286Y-85975295D01*
X144154286Y-85975295D02*
X144154286Y-86213390D01*
X144154286Y-86213390D02*
X144201905Y-86308628D01*
X144201905Y-86308628D02*
X144249524Y-86356247D01*
X144249524Y-86356247D02*
X144344762Y-86403866D01*
X144344762Y-86403866D02*
X144535238Y-86403866D01*
X144535238Y-86403866D02*
X144630476Y-86356247D01*
X144630476Y-86356247D02*
X144678095Y-86308628D01*
X144678095Y-86308628D02*
X144725714Y-86213390D01*
X137257857Y-41360353D02*
X136550750Y-40653246D01*
X136887468Y-40989964D02*
X137291529Y-40585903D01*
X137661918Y-40956292D02*
X136954811Y-40249185D01*
X137830277Y-39845124D02*
X138301681Y-40316529D01*
X137392544Y-39744109D02*
X137729262Y-40417544D01*
X137729262Y-40417544D02*
X138166994Y-39979811D01*
X137927142Y-86784819D02*
X137593809Y-86308628D01*
X137355714Y-86784819D02*
X137355714Y-85784819D01*
X137355714Y-85784819D02*
X137736666Y-85784819D01*
X137736666Y-85784819D02*
X137831904Y-85832438D01*
X137831904Y-85832438D02*
X137879523Y-85880057D01*
X137879523Y-85880057D02*
X137927142Y-85975295D01*
X137927142Y-85975295D02*
X137927142Y-86118152D01*
X137927142Y-86118152D02*
X137879523Y-86213390D01*
X137879523Y-86213390D02*
X137831904Y-86261009D01*
X137831904Y-86261009D02*
X137736666Y-86308628D01*
X137736666Y-86308628D02*
X137355714Y-86308628D01*
X138879523Y-86784819D02*
X138308095Y-86784819D01*
X138593809Y-86784819D02*
X138593809Y-85784819D01*
X138593809Y-85784819D02*
X138498571Y-85927676D01*
X138498571Y-85927676D02*
X138403333Y-86022914D01*
X138403333Y-86022914D02*
X138308095Y-86070533D01*
X139498571Y-85784819D02*
X139593809Y-85784819D01*
X139593809Y-85784819D02*
X139689047Y-85832438D01*
X139689047Y-85832438D02*
X139736666Y-85880057D01*
X139736666Y-85880057D02*
X139784285Y-85975295D01*
X139784285Y-85975295D02*
X139831904Y-86165771D01*
X139831904Y-86165771D02*
X139831904Y-86403866D01*
X139831904Y-86403866D02*
X139784285Y-86594342D01*
X139784285Y-86594342D02*
X139736666Y-86689580D01*
X139736666Y-86689580D02*
X139689047Y-86737200D01*
X139689047Y-86737200D02*
X139593809Y-86784819D01*
X139593809Y-86784819D02*
X139498571Y-86784819D01*
X139498571Y-86784819D02*
X139403333Y-86737200D01*
X139403333Y-86737200D02*
X139355714Y-86689580D01*
X139355714Y-86689580D02*
X139308095Y-86594342D01*
X139308095Y-86594342D02*
X139260476Y-86403866D01*
X139260476Y-86403866D02*
X139260476Y-86165771D01*
X139260476Y-86165771D02*
X139308095Y-85975295D01*
X139308095Y-85975295D02*
X139355714Y-85880057D01*
X139355714Y-85880057D02*
X139403333Y-85832438D01*
X139403333Y-85832438D02*
X139498571Y-85784819D01*
X174748628Y-79357714D02*
X174041521Y-78650607D01*
X174378239Y-78987325D02*
X174782300Y-78583264D01*
X175152689Y-78953653D02*
X174445582Y-78246546D01*
X174815972Y-78010844D02*
X174815972Y-77943501D01*
X174815972Y-77943501D02*
X174849643Y-77842485D01*
X174849643Y-77842485D02*
X175018002Y-77674127D01*
X175018002Y-77674127D02*
X175119017Y-77640455D01*
X175119017Y-77640455D02*
X175186361Y-77640455D01*
X175186361Y-77640455D02*
X175287376Y-77674127D01*
X175287376Y-77674127D02*
X175354720Y-77741470D01*
X175354720Y-77741470D02*
X175422063Y-77876157D01*
X175422063Y-77876157D02*
X175422063Y-78684279D01*
X175422063Y-78684279D02*
X175859796Y-78246546D01*
X142630698Y-69702101D02*
X142583079Y-69749721D01*
X142583079Y-69749721D02*
X142440222Y-69797340D01*
X142440222Y-69797340D02*
X142344984Y-69797340D01*
X142344984Y-69797340D02*
X142202127Y-69749721D01*
X142202127Y-69749721D02*
X142106889Y-69654482D01*
X142106889Y-69654482D02*
X142059270Y-69559244D01*
X142059270Y-69559244D02*
X142011651Y-69368768D01*
X142011651Y-69368768D02*
X142011651Y-69225911D01*
X142011651Y-69225911D02*
X142059270Y-69035435D01*
X142059270Y-69035435D02*
X142106889Y-68940197D01*
X142106889Y-68940197D02*
X142202127Y-68844959D01*
X142202127Y-68844959D02*
X142344984Y-68797340D01*
X142344984Y-68797340D02*
X142440222Y-68797340D01*
X142440222Y-68797340D02*
X142583079Y-68844959D01*
X142583079Y-68844959D02*
X142630698Y-68892578D01*
X143583079Y-69797340D02*
X143011651Y-69797340D01*
X143297365Y-69797340D02*
X143297365Y-68797340D01*
X143297365Y-68797340D02*
X143202127Y-68940197D01*
X143202127Y-68940197D02*
X143106889Y-69035435D01*
X143106889Y-69035435D02*
X143011651Y-69083054D01*
X144535460Y-69797340D02*
X143964032Y-69797340D01*
X144249746Y-69797340D02*
X144249746Y-68797340D01*
X144249746Y-68797340D02*
X144154508Y-68940197D01*
X144154508Y-68940197D02*
X144059270Y-69035435D01*
X144059270Y-69035435D02*
X143964032Y-69083054D01*
X119815476Y-59229819D02*
X119815476Y-59944104D01*
X119815476Y-59944104D02*
X119767857Y-60086961D01*
X119767857Y-60086961D02*
X119672619Y-60182200D01*
X119672619Y-60182200D02*
X119529762Y-60229819D01*
X119529762Y-60229819D02*
X119434524Y-60229819D01*
X120815476Y-60229819D02*
X120244048Y-60229819D01*
X120529762Y-60229819D02*
X120529762Y-59229819D01*
X120529762Y-59229819D02*
X120434524Y-59372676D01*
X120434524Y-59372676D02*
X120339286Y-59467914D01*
X120339286Y-59467914D02*
X120244048Y-59515533D01*
X121672619Y-59229819D02*
X121482143Y-59229819D01*
X121482143Y-59229819D02*
X121386905Y-59277438D01*
X121386905Y-59277438D02*
X121339286Y-59325057D01*
X121339286Y-59325057D02*
X121244048Y-59467914D01*
X121244048Y-59467914D02*
X121196429Y-59658390D01*
X121196429Y-59658390D02*
X121196429Y-60039342D01*
X121196429Y-60039342D02*
X121244048Y-60134580D01*
X121244048Y-60134580D02*
X121291667Y-60182200D01*
X121291667Y-60182200D02*
X121386905Y-60229819D01*
X121386905Y-60229819D02*
X121577381Y-60229819D01*
X121577381Y-60229819D02*
X121672619Y-60182200D01*
X121672619Y-60182200D02*
X121720238Y-60134580D01*
X121720238Y-60134580D02*
X121767857Y-60039342D01*
X121767857Y-60039342D02*
X121767857Y-59801247D01*
X121767857Y-59801247D02*
X121720238Y-59706009D01*
X121720238Y-59706009D02*
X121672619Y-59658390D01*
X121672619Y-59658390D02*
X121577381Y-59610771D01*
X121577381Y-59610771D02*
X121386905Y-59610771D01*
X121386905Y-59610771D02*
X121291667Y-59658390D01*
X121291667Y-59658390D02*
X121244048Y-59706009D01*
X121244048Y-59706009D02*
X121196429Y-59801247D01*
X173966666Y-63904819D02*
X173966666Y-64619104D01*
X173966666Y-64619104D02*
X173919047Y-64761961D01*
X173919047Y-64761961D02*
X173823809Y-64857200D01*
X173823809Y-64857200D02*
X173680952Y-64904819D01*
X173680952Y-64904819D02*
X173585714Y-64904819D01*
X174347619Y-63904819D02*
X175014285Y-63904819D01*
X175014285Y-63904819D02*
X174585714Y-64904819D01*
X127316666Y-58779819D02*
X127316666Y-59494104D01*
X127316666Y-59494104D02*
X127269047Y-59636961D01*
X127269047Y-59636961D02*
X127173809Y-59732200D01*
X127173809Y-59732200D02*
X127030952Y-59779819D01*
X127030952Y-59779819D02*
X126935714Y-59779819D01*
X128269047Y-58779819D02*
X127792857Y-58779819D01*
X127792857Y-58779819D02*
X127745238Y-59256009D01*
X127745238Y-59256009D02*
X127792857Y-59208390D01*
X127792857Y-59208390D02*
X127888095Y-59160771D01*
X127888095Y-59160771D02*
X128126190Y-59160771D01*
X128126190Y-59160771D02*
X128221428Y-59208390D01*
X128221428Y-59208390D02*
X128269047Y-59256009D01*
X128269047Y-59256009D02*
X128316666Y-59351247D01*
X128316666Y-59351247D02*
X128316666Y-59589342D01*
X128316666Y-59589342D02*
X128269047Y-59684580D01*
X128269047Y-59684580D02*
X128221428Y-59732200D01*
X128221428Y-59732200D02*
X128126190Y-59779819D01*
X128126190Y-59779819D02*
X127888095Y-59779819D01*
X127888095Y-59779819D02*
X127792857Y-59732200D01*
X127792857Y-59732200D02*
X127745238Y-59684580D01*
X172409339Y-54461459D02*
X172361720Y-54509079D01*
X172361720Y-54509079D02*
X172218863Y-54556698D01*
X172218863Y-54556698D02*
X172123625Y-54556698D01*
X172123625Y-54556698D02*
X171980768Y-54509079D01*
X171980768Y-54509079D02*
X171885530Y-54413840D01*
X171885530Y-54413840D02*
X171837911Y-54318602D01*
X171837911Y-54318602D02*
X171790292Y-54128126D01*
X171790292Y-54128126D02*
X171790292Y-53985269D01*
X171790292Y-53985269D02*
X171837911Y-53794793D01*
X171837911Y-53794793D02*
X171885530Y-53699555D01*
X171885530Y-53699555D02*
X171980768Y-53604317D01*
X171980768Y-53604317D02*
X172123625Y-53556698D01*
X172123625Y-53556698D02*
X172218863Y-53556698D01*
X172218863Y-53556698D02*
X172361720Y-53604317D01*
X172361720Y-53604317D02*
X172409339Y-53651936D01*
X173314101Y-53556698D02*
X172837911Y-53556698D01*
X172837911Y-53556698D02*
X172790292Y-54032888D01*
X172790292Y-54032888D02*
X172837911Y-53985269D01*
X172837911Y-53985269D02*
X172933149Y-53937650D01*
X172933149Y-53937650D02*
X173171244Y-53937650D01*
X173171244Y-53937650D02*
X173266482Y-53985269D01*
X173266482Y-53985269D02*
X173314101Y-54032888D01*
X173314101Y-54032888D02*
X173361720Y-54128126D01*
X173361720Y-54128126D02*
X173361720Y-54366221D01*
X173361720Y-54366221D02*
X173314101Y-54461459D01*
X173314101Y-54461459D02*
X173266482Y-54509079D01*
X173266482Y-54509079D02*
X173171244Y-54556698D01*
X173171244Y-54556698D02*
X172933149Y-54556698D01*
X172933149Y-54556698D02*
X172837911Y-54509079D01*
X172837911Y-54509079D02*
X172790292Y-54461459D01*
X150831922Y-49300159D02*
X150831922Y-50014444D01*
X150831922Y-50014444D02*
X150784303Y-50157301D01*
X150784303Y-50157301D02*
X150689065Y-50252540D01*
X150689065Y-50252540D02*
X150546208Y-50300159D01*
X150546208Y-50300159D02*
X150450970Y-50300159D01*
X151831922Y-50300159D02*
X151260494Y-50300159D01*
X151546208Y-50300159D02*
X151546208Y-49300159D01*
X151546208Y-49300159D02*
X151450970Y-49443016D01*
X151450970Y-49443016D02*
X151355732Y-49538254D01*
X151355732Y-49538254D02*
X151260494Y-49585873D01*
X136817142Y-69702101D02*
X136769523Y-69749721D01*
X136769523Y-69749721D02*
X136626666Y-69797340D01*
X136626666Y-69797340D02*
X136531428Y-69797340D01*
X136531428Y-69797340D02*
X136388571Y-69749721D01*
X136388571Y-69749721D02*
X136293333Y-69654482D01*
X136293333Y-69654482D02*
X136245714Y-69559244D01*
X136245714Y-69559244D02*
X136198095Y-69368768D01*
X136198095Y-69368768D02*
X136198095Y-69225911D01*
X136198095Y-69225911D02*
X136245714Y-69035435D01*
X136245714Y-69035435D02*
X136293333Y-68940197D01*
X136293333Y-68940197D02*
X136388571Y-68844959D01*
X136388571Y-68844959D02*
X136531428Y-68797340D01*
X136531428Y-68797340D02*
X136626666Y-68797340D01*
X136626666Y-68797340D02*
X136769523Y-68844959D01*
X136769523Y-68844959D02*
X136817142Y-68892578D01*
X137769523Y-69797340D02*
X137198095Y-69797340D01*
X137483809Y-69797340D02*
X137483809Y-68797340D01*
X137483809Y-68797340D02*
X137388571Y-68940197D01*
X137388571Y-68940197D02*
X137293333Y-69035435D01*
X137293333Y-69035435D02*
X137198095Y-69083054D01*
X138150476Y-68892578D02*
X138198095Y-68844959D01*
X138198095Y-68844959D02*
X138293333Y-68797340D01*
X138293333Y-68797340D02*
X138531428Y-68797340D01*
X138531428Y-68797340D02*
X138626666Y-68844959D01*
X138626666Y-68844959D02*
X138674285Y-68892578D01*
X138674285Y-68892578D02*
X138721904Y-68987816D01*
X138721904Y-68987816D02*
X138721904Y-69083054D01*
X138721904Y-69083054D02*
X138674285Y-69225911D01*
X138674285Y-69225911D02*
X138102857Y-69797340D01*
X138102857Y-69797340D02*
X138721904Y-69797340D01*
D15*
%TO.C,C1*%
X170470000Y-63041252D02*
X170470000Y-61618748D01*
X172290000Y-63041252D02*
X172290000Y-61618748D01*
D14*
%TO.C,AC1*%
X136227295Y-74562521D02*
X136227295Y-74812521D01*
X136227295Y-77062521D02*
X136227295Y-76812521D01*
X136927295Y-74562521D02*
X136227295Y-74562521D01*
X136927295Y-77062521D02*
X136227295Y-77062521D01*
X139227295Y-74562521D02*
X138527295Y-74562521D01*
X139227295Y-74712521D02*
X139227295Y-74562521D01*
X139227295Y-76812521D02*
X139227295Y-77062521D01*
X139227295Y-77062521D02*
X138527295Y-77062521D01*
X139627295Y-76512521D02*
X139627295Y-76512521D01*
X139627295Y-76612521D02*
X139627295Y-76612521D01*
X139627295Y-76512521D02*
G75*
G02*
X139627295Y-76612521I0J-50000D01*
G01*
X139627295Y-76612521D02*
G75*
G02*
X139627295Y-76512521I0J50000D01*
G01*
D15*
%TO.C,J6*%
X165300000Y-40190000D02*
X165300000Y-47810000D01*
X165300000Y-47810000D02*
X175460000Y-47810000D01*
X175460000Y-40190000D02*
X165300000Y-40190000D01*
X175460000Y-46540000D02*
X165300000Y-46540000D01*
X175460000Y-47810000D02*
X175460000Y-40190000D01*
%TO.C,C7*%
X144254808Y-79320000D02*
X142832304Y-79320000D01*
X144254808Y-81140000D02*
X142832304Y-81140000D01*
%TO.C,U2*%
X141621056Y-73452521D02*
X142846056Y-73452521D01*
X141621056Y-73927521D02*
X141621056Y-73452521D01*
X141621056Y-78172521D02*
X141621056Y-77697521D01*
X142846056Y-78172521D02*
X141621056Y-78172521D01*
X143616056Y-73452521D02*
X144841056Y-73452521D01*
X144841056Y-73452521D02*
X144841056Y-73927521D01*
X144841056Y-77697521D02*
X144841056Y-78172521D01*
X144841056Y-78172521D02*
X143616056Y-78172521D01*
X141371056Y-77312521D02*
X141041056Y-77552521D01*
X141041056Y-77072521D01*
X141371056Y-77312521D01*
G36*
X141371056Y-77312521D02*
G01*
X141041056Y-77552521D01*
X141041056Y-77072521D01*
X141371056Y-77312521D01*
G37*
D16*
%TO.C,G\u002A\u002A\u002A*%
G36*
X130833156Y-81298326D02*
G01*
X130868105Y-81310978D01*
X130905950Y-81336338D01*
X130929494Y-81368571D01*
X130939709Y-81409199D01*
X130940322Y-81424110D01*
X130938140Y-81456223D01*
X130930227Y-81479930D01*
X130920577Y-81494935D01*
X130893197Y-81521127D01*
X130857494Y-81541494D01*
X130820235Y-81552545D01*
X130806808Y-81553578D01*
X130770769Y-81547080D01*
X130733658Y-81529914D01*
X130702244Y-81505569D01*
X130693039Y-81494935D01*
X130680082Y-81472745D01*
X130674244Y-81447127D01*
X130673294Y-81424110D01*
X130679536Y-81380368D01*
X130698854Y-81345557D01*
X130732133Y-81318297D01*
X130746168Y-81310802D01*
X130790267Y-81296671D01*
X130833156Y-81298326D01*
G37*
G36*
X130313211Y-82872521D02*
G01*
X130313211Y-82961519D01*
X130386037Y-83090132D01*
X130409211Y-83131316D01*
X130429341Y-83167579D01*
X130445166Y-83196609D01*
X130455423Y-83216094D01*
X130458863Y-83223658D01*
X130451686Y-83226759D01*
X130433800Y-83228459D01*
X130427106Y-83228570D01*
X130395349Y-83228570D01*
X130341691Y-83127423D01*
X130322018Y-83091152D01*
X130304646Y-83060643D01*
X130291103Y-83038463D01*
X130282912Y-83027177D01*
X130281572Y-83026276D01*
X130275629Y-83033016D01*
X130263708Y-83051536D01*
X130247348Y-83079280D01*
X130228088Y-83113695D01*
X130220635Y-83127423D01*
X130166158Y-83228570D01*
X130134328Y-83228570D01*
X130102497Y-83228570D01*
X130118188Y-83198226D01*
X130127955Y-83180028D01*
X130143759Y-83151358D01*
X130163609Y-83115796D01*
X130185514Y-83076923D01*
X130191178Y-83066933D01*
X130248477Y-82965985D01*
X130248477Y-82874754D01*
X130248477Y-82783523D01*
X130280844Y-82783523D01*
X130313211Y-82783523D01*
X130313211Y-82872521D01*
G37*
G36*
X129387269Y-81708209D02*
G01*
X129398165Y-81710420D01*
X129398844Y-81711225D01*
X129394701Y-81719023D01*
X129383263Y-81738013D01*
X129366014Y-81765793D01*
X129344440Y-81799961D01*
X129330064Y-81822486D01*
X129306534Y-81859741D01*
X129286468Y-81892509D01*
X129271369Y-81918261D01*
X129262737Y-81934465D01*
X129261285Y-81938499D01*
X129265454Y-81948053D01*
X129276928Y-81968522D01*
X129294151Y-81997275D01*
X129315573Y-82031681D01*
X129325801Y-82047738D01*
X129390319Y-82148321D01*
X129361148Y-82150896D01*
X129339631Y-82150556D01*
X129325063Y-82146350D01*
X129323956Y-82145451D01*
X129316763Y-82135566D01*
X129303393Y-82114900D01*
X129285861Y-82086632D01*
X129269133Y-82058904D01*
X129222330Y-81980379D01*
X129200083Y-82015799D01*
X129170968Y-82062234D01*
X129149127Y-82096807D01*
X129133061Y-82121257D01*
X129121269Y-82137319D01*
X129112249Y-82146731D01*
X129104500Y-82151229D01*
X129096522Y-82152549D01*
X129086814Y-82152429D01*
X129082063Y-82152367D01*
X129061428Y-82150940D01*
X129054766Y-82146139D01*
X129056037Y-82142252D01*
X129062402Y-82132053D01*
X129075717Y-82110956D01*
X129094241Y-82081713D01*
X129116232Y-82047077D01*
X129124531Y-82034024D01*
X129186931Y-81935910D01*
X129132816Y-81851959D01*
X129109866Y-81816235D01*
X129088299Y-81782447D01*
X129070655Y-81754589D01*
X129060094Y-81737665D01*
X129041487Y-81707321D01*
X129076537Y-81707570D01*
X129111587Y-81707819D01*
X129164183Y-81796459D01*
X129184286Y-81829830D01*
X129201518Y-81857480D01*
X129214195Y-81876775D01*
X129220633Y-81885083D01*
X129220936Y-81885220D01*
X129226512Y-81878791D01*
X129238806Y-81861122D01*
X129256099Y-81834784D01*
X129276670Y-81802347D01*
X129280420Y-81796330D01*
X129303153Y-81759985D01*
X129319513Y-81735188D01*
X129331655Y-81719731D01*
X129341733Y-81711406D01*
X129351900Y-81708007D01*
X129364313Y-81707325D01*
X129367296Y-81707321D01*
X129387269Y-81708209D01*
G37*
G36*
X131286877Y-81452326D02*
G01*
X131284742Y-81485961D01*
X131280260Y-81514229D01*
X131272674Y-81542525D01*
X131265572Y-81563922D01*
X131230948Y-81642165D01*
X131184861Y-81712774D01*
X131129092Y-81774106D01*
X131065428Y-81824520D01*
X130995652Y-81862372D01*
X130921549Y-81886020D01*
X130914024Y-81887530D01*
X130863450Y-81897134D01*
X130863512Y-82601288D01*
X130863574Y-83305441D01*
X130914086Y-83220701D01*
X130938351Y-83182123D01*
X130960336Y-83151203D01*
X130978128Y-83130499D01*
X130986479Y-83123766D01*
X131002685Y-83116445D01*
X131015355Y-83118123D01*
X131030983Y-83128389D01*
X131042414Y-83137699D01*
X131050354Y-83147347D01*
X131054258Y-83158892D01*
X131053578Y-83173894D01*
X131047770Y-83193912D01*
X131036286Y-83220503D01*
X131018580Y-83255227D01*
X130994107Y-83299642D01*
X130962321Y-83355308D01*
X130934834Y-83402824D01*
X130903885Y-83455979D01*
X130875494Y-83504327D01*
X130850680Y-83546164D01*
X130830461Y-83579790D01*
X130815858Y-83603500D01*
X130807887Y-83615595D01*
X130806767Y-83616801D01*
X130801829Y-83610126D01*
X130789810Y-83591150D01*
X130771739Y-83561577D01*
X130748644Y-83523110D01*
X130721551Y-83477455D01*
X130691491Y-83426314D01*
X130679322Y-83405488D01*
X130639852Y-83337034D01*
X130607566Y-83279367D01*
X130582800Y-83233122D01*
X130565886Y-83198929D01*
X130557157Y-83177421D01*
X130555964Y-83171415D01*
X130562432Y-83150743D01*
X130578246Y-83130952D01*
X130598022Y-83117719D01*
X130609200Y-83115285D01*
X130627982Y-83123037D01*
X130651369Y-83146284D01*
X130679347Y-83185007D01*
X130705862Y-83228570D01*
X130750062Y-83305441D01*
X130750114Y-82601288D01*
X130750166Y-81897134D01*
X130699592Y-81887530D01*
X130632255Y-81867398D01*
X130565299Y-81833850D01*
X130502229Y-81789348D01*
X130446552Y-81736354D01*
X130402933Y-81679177D01*
X130383529Y-81644463D01*
X130364820Y-81604068D01*
X130348514Y-81562489D01*
X130336318Y-81524227D01*
X130329939Y-81493780D01*
X130329395Y-81485394D01*
X130329395Y-81464568D01*
X129562762Y-81464568D01*
X128796129Y-81464568D01*
X128885078Y-81516210D01*
X128928938Y-81542789D01*
X128959424Y-81564461D01*
X128977919Y-81582971D01*
X128985803Y-81600063D01*
X128984458Y-81617482D01*
X128977553Y-81633023D01*
X128969395Y-81645535D01*
X128960000Y-81653897D01*
X128947829Y-81657587D01*
X128931344Y-81656086D01*
X128909008Y-81648873D01*
X128879283Y-81635427D01*
X128840630Y-81615229D01*
X128791510Y-81587756D01*
X128730387Y-81552490D01*
X128717649Y-81545075D01*
X128665630Y-81514735D01*
X128617413Y-81486555D01*
X128574998Y-81461708D01*
X128540382Y-81441366D01*
X128515566Y-81426701D01*
X128502548Y-81418888D01*
X128501991Y-81418540D01*
X128497140Y-81414908D01*
X128495322Y-81410848D01*
X128497863Y-81405428D01*
X128506089Y-81397717D01*
X128518969Y-81388474D01*
X130435504Y-81388474D01*
X130438573Y-81459920D01*
X130454844Y-81528045D01*
X130482978Y-81591352D01*
X130521636Y-81648344D01*
X130569479Y-81697522D01*
X130625166Y-81737390D01*
X130687358Y-81766448D01*
X130754717Y-81783200D01*
X130825902Y-81786148D01*
X130864151Y-81781699D01*
X130936470Y-81762532D01*
X131000470Y-81730531D01*
X131056698Y-81686676D01*
X131106747Y-81629767D01*
X131144153Y-81564634D01*
X131168173Y-81493797D01*
X131178059Y-81419775D01*
X131173068Y-81345088D01*
X131166638Y-81315207D01*
X131140132Y-81242746D01*
X131101584Y-81178976D01*
X131052721Y-81125006D01*
X130995271Y-81081944D01*
X130930962Y-81050899D01*
X130861522Y-81032978D01*
X130788677Y-81029289D01*
X130732358Y-81036633D01*
X130661291Y-81059587D01*
X130596916Y-81096288D01*
X130540912Y-81145096D01*
X130494961Y-81204369D01*
X130460744Y-81272466D01*
X130446978Y-81315207D01*
X130435504Y-81388474D01*
X128518969Y-81388474D01*
X128521325Y-81386783D01*
X128544897Y-81371695D01*
X128578133Y-81351519D01*
X128622356Y-81325326D01*
X128678894Y-81292182D01*
X128696193Y-81282066D01*
X128761323Y-81244424D01*
X128817537Y-81212821D01*
X128863823Y-81187796D01*
X128899166Y-81169887D01*
X128922552Y-81159631D01*
X128931545Y-81157284D01*
X128955484Y-81163561D01*
X128975315Y-81179635D01*
X128985680Y-81200711D01*
X128986164Y-81206164D01*
X128983628Y-81224289D01*
X128974500Y-81240553D01*
X128956503Y-81257288D01*
X128927362Y-81276827D01*
X128903360Y-81290992D01*
X128872261Y-81309022D01*
X128845025Y-81325144D01*
X128825760Y-81336913D01*
X128820506Y-81340329D01*
X128819753Y-81342200D01*
X128823858Y-81343852D01*
X128833693Y-81345298D01*
X128850130Y-81346551D01*
X128874043Y-81347624D01*
X128906304Y-81348530D01*
X128947784Y-81349281D01*
X128999357Y-81349890D01*
X129061896Y-81350370D01*
X129136272Y-81350734D01*
X129223358Y-81350994D01*
X129324026Y-81351164D01*
X129439150Y-81351257D01*
X129566970Y-81351284D01*
X130329395Y-81351284D01*
X130329395Y-81330458D01*
X130331932Y-81312839D01*
X130338631Y-81285492D01*
X130348124Y-81253898D01*
X130349644Y-81249311D01*
X130384784Y-81168549D01*
X130431934Y-81097341D01*
X130489525Y-81036584D01*
X130555992Y-80987176D01*
X130629769Y-80950015D01*
X130709287Y-80926001D01*
X130792981Y-80916030D01*
X130879285Y-80921001D01*
X130912001Y-80926901D01*
X130991353Y-80952005D01*
X131064819Y-80991276D01*
X131130846Y-81043289D01*
X131187885Y-81106618D01*
X131234387Y-81179839D01*
X131265572Y-81251930D01*
X131275629Y-81283218D01*
X131282083Y-81310901D01*
X131285688Y-81340377D01*
X131287201Y-81377043D01*
X131287421Y-81407926D01*
X131287276Y-81419775D01*
X131286877Y-81452326D01*
G37*
D15*
%TO.C,J2*%
X165835256Y-53885340D02*
X165835256Y-86965340D01*
X165835256Y-53885340D02*
X168495256Y-53885340D01*
X165835256Y-86965340D02*
X168495256Y-86965340D01*
X167165256Y-51285340D02*
X168495256Y-51285340D01*
X168495256Y-51285340D02*
X168495256Y-52615340D01*
X168495256Y-53885340D02*
X168495256Y-86965340D01*
%TO.C,C13*%
X138631252Y-79320000D02*
X137208748Y-79320000D01*
X138631252Y-81140000D02*
X137208748Y-81140000D01*
%TO.C,J3*%
X132155000Y-52610000D02*
X132155000Y-55370000D01*
X144965000Y-52610000D02*
X132155000Y-52610000D01*
X144965000Y-52610000D02*
X144965000Y-55370000D01*
X144965000Y-55370000D02*
X132155000Y-55370000D01*
X146235000Y-52610000D02*
X147615000Y-52610000D01*
X147615000Y-52610000D02*
X147615000Y-53990000D01*
%TO.C,R2*%
X143782936Y-66390000D02*
X145237064Y-66390000D01*
X143782936Y-68210000D02*
X145237064Y-68210000D01*
%TO.C,C14*%
X128400000Y-72784437D02*
X128400000Y-77240000D01*
X128400000Y-77240000D02*
X130100000Y-77240000D01*
X129464437Y-71720000D02*
X128400000Y-72784437D01*
X129464437Y-71720000D02*
X130100000Y-71720000D01*
X132845000Y-70855000D02*
X132845000Y-71480000D01*
X132855563Y-71720000D02*
X132220000Y-71720000D01*
X132855563Y-71720000D02*
X133920000Y-72784437D01*
X133157500Y-71167500D02*
X132532500Y-71167500D01*
X133920000Y-72784437D02*
X133920000Y-77240000D01*
X133920000Y-77240000D02*
X132220000Y-77240000D01*
%TO.C,R1*%
X137672936Y-66390000D02*
X139127064Y-66390000D01*
X137672936Y-68210000D02*
X139127064Y-68210000D01*
%TO.C,C3*%
X119915000Y-63013748D02*
X119915000Y-64436252D01*
X121735000Y-63013748D02*
X121735000Y-64436252D01*
%TO.C,J4*%
X132105000Y-96035000D02*
X132105000Y-98795000D01*
X144915000Y-96035000D02*
X132105000Y-96035000D01*
X144915000Y-96035000D02*
X144915000Y-98795000D01*
X144915000Y-98795000D02*
X132105000Y-98795000D01*
X146185000Y-96035000D02*
X147565000Y-96035000D01*
X147565000Y-96035000D02*
X147565000Y-97415000D01*
%TO.C,C2*%
X173601252Y-55281879D02*
X172178748Y-55281879D01*
X173601252Y-57101879D02*
X172178748Y-57101879D01*
%TO.C,R9*%
X143412936Y-83640000D02*
X144867064Y-83640000D01*
X143412936Y-85460000D02*
X144867064Y-85460000D01*
%TO.C,R10*%
X137842936Y-83640000D02*
X139297064Y-83640000D01*
X137842936Y-85460000D02*
X139297064Y-85460000D01*
%TO.C,C11*%
X142562304Y-70282521D02*
X143984808Y-70282521D01*
X142562304Y-72102521D02*
X143984808Y-72102521D01*
%TO.C,J16*%
X119245000Y-50565000D02*
X120625000Y-50565000D01*
X119245000Y-51945000D02*
X119245000Y-50565000D01*
X119245000Y-53215000D02*
X119245000Y-58405000D01*
X119245000Y-53215000D02*
X122005000Y-53215000D01*
X119245000Y-58405000D02*
X122005000Y-58405000D01*
X122005000Y-53215000D02*
X122005000Y-58405000D01*
%TO.C,J7*%
X172920000Y-65450000D02*
X174300000Y-65450000D01*
X172920000Y-66830000D02*
X172920000Y-65450000D01*
X172920000Y-68100000D02*
X172920000Y-70750000D01*
X172920000Y-68100000D02*
X175680000Y-68100000D01*
X172920000Y-70750000D02*
X175680000Y-70750000D01*
X175680000Y-68100000D02*
X175680000Y-70750000D01*
%TO.C,J5*%
X126270000Y-55725000D02*
X126270000Y-50535000D01*
X129030000Y-50535000D02*
X126270000Y-50535000D01*
X129030000Y-55725000D02*
X126270000Y-55725000D01*
X129030000Y-55725000D02*
X129030000Y-50535000D01*
X129030000Y-56995000D02*
X129030000Y-58375000D01*
X129030000Y-58375000D02*
X127650000Y-58375000D01*
%TO.C,C5*%
X170316006Y-48641879D02*
X170316006Y-49841879D01*
X170316006Y-53161879D02*
X170316006Y-51961879D01*
X173771569Y-48641879D02*
X170316006Y-48641879D01*
X173771569Y-53161879D02*
X170316006Y-53161879D01*
X174836006Y-49706316D02*
X173771569Y-48641879D01*
X174836006Y-49706316D02*
X174836006Y-49841879D01*
X174836006Y-52097442D02*
X173771569Y-53161879D01*
X174836006Y-52097442D02*
X174836006Y-51961879D01*
X175326006Y-52711879D02*
X175326006Y-52211879D01*
X175576006Y-52461879D02*
X175076006Y-52461879D01*
%TO.C,J1*%
X149835256Y-53885340D02*
X149835256Y-86965340D01*
X149835256Y-53885340D02*
X152495256Y-53885340D01*
X149835256Y-86965340D02*
X152495256Y-86965340D01*
X151165256Y-51285340D02*
X152495256Y-51285340D01*
X152495256Y-51285340D02*
X152495256Y-52615340D01*
X152495256Y-53885340D02*
X152495256Y-86965340D01*
%TO.C,C12*%
X136748748Y-70282521D02*
X138171252Y-70282521D01*
X136748748Y-72102521D02*
X138171252Y-72102521D01*
%TD*%
M02*
